<svg width="322" height="101" viewBox="0 0 322 101" fill="none" xmlns="http://www.w3.org/2000/svg">
<path d="M196.582 45.9623C196.582 49.3358 195.62 51.9197 193.695 53.7139C191.779 55.5082 189.008 56.4053 185.382 56.4053H179.579V35.9118H186.013C189.359 35.9118 191.957 36.7949 193.807 38.5611C195.657 40.3273 196.582 42.7944 196.582 45.9623ZM192.069 46.0744C192.069 41.673 190.125 39.4722 186.237 39.4722H183.925V52.8168H185.789C189.975 52.8168 192.069 50.5694 192.069 46.0744ZM200.311 36.6828C200.311 35.2904 201.087 34.5942 202.638 34.5942C204.189 34.5942 204.965 35.2904 204.965 36.6828C204.965 37.3462 204.769 37.8649 204.376 38.2387C203.993 38.6031 203.414 38.7854 202.638 38.7854C201.087 38.7854 200.311 38.0845 200.311 36.6828ZM204.769 56.4053H200.493V40.7338H204.769V56.4053ZM215.758 43.4812C214.852 43.4812 214.142 43.7709 213.628 44.3503C213.114 44.9203 212.819 45.7333 212.744 46.7893H218.744C218.725 45.7333 218.45 44.9203 217.917 44.3503C217.384 43.7709 216.665 43.4812 215.758 43.4812ZM216.361 56.6856C213.838 56.6856 211.866 55.9894 210.446 54.597C209.025 53.2046 208.315 51.2328 208.315 48.6817C208.315 46.0557 208.969 44.0279 210.277 42.5981C211.595 41.159 213.413 40.4394 215.73 40.4394C217.945 40.4394 219.669 41.0702 220.903 42.3318C222.136 43.5933 222.753 45.3362 222.753 47.5603V49.6349H212.646C212.693 50.8497 213.053 51.7982 213.726 52.4804C214.398 53.1626 215.342 53.5037 216.557 53.5037C217.501 53.5037 218.393 53.4055 219.235 53.2093C220.076 53.0131 220.954 52.7 221.87 52.2701V55.5782C221.122 55.952 220.323 56.2277 219.473 56.4053C218.622 56.5922 217.585 56.6856 216.361 56.6856ZM232.831 53.2794C233.579 53.2794 234.476 53.1159 235.523 52.7888V55.9707C234.457 56.4473 233.149 56.6856 231.598 56.6856C229.888 56.6856 228.64 56.2558 227.855 55.396C227.08 54.5269 226.692 53.228 226.692 51.4992V43.9438H224.645V42.1355L227 40.7058L228.234 37.3976H230.967V40.7338H235.355V43.9438H230.967V51.4992C230.967 52.1066 231.135 52.5552 231.472 52.8448C231.817 53.1345 232.271 53.2794 232.831 53.2794ZM250.844 45.5558H252.274C253.61 45.5558 254.61 45.2941 255.273 44.7708C255.937 44.2381 256.269 43.4672 256.269 42.4579C256.269 41.4393 255.988 40.6871 255.428 40.2011C254.876 39.7152 254.007 39.4722 252.82 39.4722H250.844V45.5558ZM260.656 42.3037C260.656 44.5092 259.964 46.1959 258.581 47.364C257.208 48.5322 255.25 49.1162 252.708 49.1162H250.844V56.4053H246.498V35.9118H253.045C255.53 35.9118 257.418 36.4491 258.708 37.5238C260.007 38.5891 260.656 40.1824 260.656 42.3037ZM268.464 56.4053H264.188V34.5942H268.464V56.4053ZM282.916 56.4053L282.089 54.2746H281.977C281.257 55.1811 280.514 55.8119 279.748 56.167C278.991 56.5127 278 56.6856 276.776 56.6856C275.272 56.6856 274.085 56.2558 273.216 55.396C272.356 54.5363 271.926 53.3121 271.926 51.7235C271.926 50.0601 272.505 48.8359 273.664 48.0509C274.832 47.2566 276.589 46.8174 278.935 46.7332L281.654 46.6491V45.9623C281.654 44.3736 280.841 43.5793 279.215 43.5793C277.963 43.5793 276.491 43.9578 274.8 44.7147L273.384 41.8271C275.187 40.8833 277.187 40.4114 279.383 40.4114C281.486 40.4114 283.098 40.8693 284.219 41.7851C285.341 42.7009 285.901 44.0933 285.901 45.9623V56.4053H282.916ZM281.654 49.1442L280 49.2003C278.757 49.2377 277.832 49.462 277.225 49.8732C276.617 50.2843 276.313 50.9104 276.313 51.7515C276.313 52.957 277.005 53.5597 278.388 53.5597C279.379 53.5597 280.168 53.2747 280.757 52.7047C281.355 52.1346 281.654 51.3777 281.654 50.4338V49.1442ZM304.783 56.4053H300.508V47.2519C300.508 46.1212 300.307 45.2754 299.905 44.7147C299.503 44.1447 298.863 43.8597 297.984 43.8597C296.788 43.8597 295.924 44.2615 295.391 45.0652C294.859 45.8595 294.592 47.1818 294.592 49.0321V56.4053H290.317V40.7338H293.583L294.158 42.7383H294.396C294.873 41.9813 295.527 41.4113 296.358 41.0282C297.199 40.6357 298.153 40.4394 299.218 40.4394C301.04 40.4394 302.423 40.9347 303.367 41.9253C304.311 42.9065 304.783 44.3269 304.783 46.1866V56.4053ZM320.118 51.7515C320.118 53.3588 319.557 54.583 318.436 55.4241C317.324 56.2651 315.656 56.6856 313.432 56.6856C312.292 56.6856 311.32 56.6062 310.516 56.4473C309.712 56.2978 308.96 56.0735 308.259 55.7745V52.2421C309.054 52.6159 309.946 52.929 310.937 53.1813C311.936 53.4336 312.815 53.5597 313.572 53.5597C315.123 53.5597 315.899 53.1112 315.899 52.2141C315.899 51.8776 315.796 51.6066 315.59 51.4011C315.385 51.1861 315.03 50.9478 314.525 50.6862C314.02 50.4152 313.348 50.1021 312.506 49.747C311.301 49.2424 310.413 48.7751 309.843 48.3453C309.282 47.9154 308.871 47.4248 308.61 46.8734C308.357 46.3127 308.231 45.6259 308.231 44.8129C308.231 43.4205 308.768 42.3458 309.843 41.5889C310.927 40.8226 312.46 40.4394 314.441 40.4394C316.329 40.4394 318.165 40.8506 319.95 41.673L318.66 44.7568C317.875 44.4204 317.142 44.1447 316.459 43.9298C315.777 43.7148 315.081 43.6074 314.371 43.6074C313.109 43.6074 312.478 43.9485 312.478 44.6306C312.478 45.0138 312.679 45.3455 313.081 45.6259C313.492 45.9062 314.385 46.3221 315.759 46.8734C316.983 47.3687 317.88 47.8313 318.45 48.2611C319.02 48.691 319.44 49.1863 319.711 49.747C319.982 50.3077 320.118 50.9759 320.118 51.7515Z" fill="black"/>
<path d="M91.1573 93.3372C91.1573 93.3642 73.5511 93.3873 51.8352 93.3873C30.1193 93.3873 12.5092 93.3642 12.5092 93.3372C12.5092 93.3101 30.1114 93.287 51.8352 93.287C73.559 93.287 91.1573 93.3082 91.1573 93.3372Z" fill="#263238"/>
<path d="M53.3005 33.0793L54.7875 39.7699L59.0914 44.22L56.0626 51.092L57.2396 53.0604C57.2396 53.0604 63.7544 45.897 63.5759 44.1447C63.2659 41.0879 56.6923 34.6887 55.2132 33.4845C54.7188 33.0793 53.3005 33.0793 53.3005 33.0793Z" fill="#FFBE9D"/>
<path d="M61.361 43.2165C61.361 43.2339 61.208 43.2165 60.9687 43.2358C60.6599 43.2636 60.3592 43.348 60.082 43.4847C59.8054 43.6223 59.5577 43.8102 59.3523 44.0386C59.1934 44.2161 59.1188 44.3435 59.1031 44.3358C59.1426 44.2093 59.2095 44.0927 59.2993 43.9942C59.4974 43.7426 59.7501 43.5375 60.0388 43.394C60.3276 43.2504 60.6453 43.172 60.9687 43.1644C61.1017 43.1553 61.2352 43.1731 61.361 43.2165Z" fill="#4CA9EE"/>
<path d="M44.8966 86.4806L45.7401 93.2927L48.9279 92.8373L49.1437 86.1236L44.8966 86.4806Z" fill="#FFBE9D"/>
<path d="M48.9396 91.4865C48.9396 91.4865 46.7994 93.1866 45.6048 91.9381L45.3674 92.6019L44.4336 97.2894C44.4014 97.4374 44.426 97.5919 44.5028 97.7231C44.5796 97.8543 44.7032 97.9528 44.8495 97.9995C44.9628 98.0338 45.0835 98.0361 45.198 98.006C45.3124 97.976 45.416 97.9149 45.4969 97.8297C46.362 96.9169 49.5223 93.5398 49.4575 93.1191L49.3594 91.994C49.3482 91.879 49.3022 91.77 49.2273 91.6809C49.1525 91.5918 49.0523 91.5268 48.9396 91.4942V91.4865Z" fill="#4CA9EE"/>
<g opacity="0.6">
<path opacity="0.6" d="M44.9672 98.013L49.434 92.7195L49.4516 92.9646C49.4967 93.2309 49.383 93.3506 49.2555 93.5243C48.9024 94.0588 47.9039 95.2707 45.5106 97.8219C45.4415 97.8957 45.3553 97.9518 45.2592 97.9854C45.1632 98.0191 45.0603 98.0292 44.9594 98.0149L44.9672 98.013Z" fill="white"/>
</g>
<g opacity="0.6">
<path opacity="0.6" d="M48.665 92.0384C48.5948 92.0948 48.5488 92.1752 48.536 92.2635C48.5233 92.3518 48.5449 92.4416 48.5964 92.515C48.6548 92.585 48.7377 92.6309 48.8289 92.6437C48.92 92.6566 49.0127 92.6354 49.0887 92.5845C49.128 92.5569 49.1611 92.5216 49.1859 92.4809C49.2106 92.4401 49.2265 92.3947 49.2325 92.3476C49.2385 92.3005 49.2345 92.2527 49.2208 92.2071C49.2071 92.1616 49.1839 92.1194 49.1527 92.0831C49.1216 92.0469 49.0831 92.0173 49.0398 91.9964C48.9964 91.9755 48.9492 91.9637 48.9009 91.9616C48.8527 91.9596 48.8046 91.9674 48.7596 91.9846C48.7146 92.0018 48.6737 92.028 48.6395 92.0615" fill="white"/>
</g>
<path d="M46.1678 95.3808C46.1344 95.4001 45.9716 95.1048 45.6028 94.9659C45.234 94.8269 44.9064 94.9215 44.8966 94.8868C44.8868 94.852 44.9633 94.8231 45.1045 94.7941C45.2891 94.76 45.4797 94.7788 45.6538 94.8482C45.8275 94.914 45.9781 95.028 46.0873 95.1762C46.1658 95.2901 46.1815 95.375 46.1678 95.3808Z" fill="#263238"/>
<path d="M45.7911 96.1893C45.7637 96.2163 45.5557 96.0407 45.236 95.9771C44.9162 95.9134 44.6475 95.9771 44.6475 95.9443C44.6475 95.9114 44.9103 95.7725 45.2732 95.8516C45.6361 95.9307 45.8205 96.17 45.7911 96.1893Z" fill="#263238"/>
<path d="M46.8995 94.329C46.874 94.358 46.5543 94.0878 46.0678 93.9431C45.5813 93.7983 45.1635 93.8466 45.1635 93.8157C45.1635 93.7848 45.597 93.6729 46.1168 93.8312C46.6367 93.9894 46.929 94.3117 46.8995 94.329Z" fill="#263238"/>
<path d="M46.9015 92.926C46.8878 92.9607 46.5445 92.8507 46.107 92.8662C45.6696 92.8816 45.3322 93.0051 45.3224 92.9704C45.3125 92.9357 45.6402 92.7485 46.107 92.7388C46.5739 92.7292 46.929 92.8971 46.9015 92.926Z" fill="#263238"/>
<path d="M45.858 92.872C45.847 92.7983 45.853 92.7231 45.8756 92.652C45.9191 92.4526 46.0039 92.264 46.1248 92.0982C46.2023 91.967 46.3215 91.8646 46.4641 91.8068C46.5131 91.7919 46.5655 91.7918 46.6145 91.8066C46.6634 91.8214 46.7068 91.8504 46.7388 91.8898C46.7937 91.9688 46.8167 92.0651 46.8035 92.1599C46.7627 92.3539 46.6555 92.5283 46.4999 92.654C46.3443 92.7797 46.1496 92.8492 45.9482 92.8508C45.748 92.851 45.5523 92.7928 45.3857 92.6836C45.2192 92.5743 45.0893 92.419 45.0125 92.2371C44.9932 92.1921 44.9846 92.1433 44.9873 92.0945C44.99 92.0457 45.004 91.9981 45.0282 91.9554C45.057 91.9135 45.0984 91.8816 45.1466 91.8639C45.1947 91.8463 45.2473 91.8438 45.2969 91.857C45.4412 91.9035 45.5705 91.9867 45.6716 92.0982C45.8211 92.2391 45.9428 92.4059 46.0306 92.5903C46.0694 92.6544 46.0929 92.7263 46.0993 92.8006C45.9699 92.5644 45.8038 92.3495 45.6069 92.1638C45.5147 92.0708 45.4009 92.0013 45.2753 91.9612C45.2484 91.9535 45.2196 91.9544 45.1932 91.9638C45.1668 91.9732 45.144 91.9905 45.1282 92.0133C45.1136 92.0434 45.106 92.0764 45.106 92.1098C45.106 92.1432 45.1136 92.1761 45.1282 92.2063C45.2 92.3607 45.3151 92.4918 45.46 92.5841C45.6049 92.6765 45.7736 92.7261 45.9462 92.7273C46.1175 92.7265 46.2834 92.6689 46.4172 92.5638C46.5511 92.4588 46.645 92.3124 46.6838 92.1484C46.6945 92.0817 46.6813 92.0135 46.6466 91.9554C46.6296 91.9329 46.6059 91.9162 46.5788 91.9076C46.5518 91.899 46.5227 91.8988 46.4955 91.9071C46.3755 91.9566 46.2736 92.0407 46.2032 92.1484C46.0445 92.367 45.9275 92.6122 45.858 92.872Z" fill="#263238"/>
<path d="M57.5319 91.8473C57.4574 91.7431 56.7904 89.4621 56.7904 89.4621L60.91 88.4103L61.4985 91.691L57.5319 91.8473Z" fill="#FFBE9D"/>
<path d="M61.4671 91.0503V91.3128C61.4671 91.3128 66.0124 93.0496 66.0693 93.889L57.0906 93.9489L57.1926 91.0098C58.5363 91.608 59.9331 91.6679 61.4671 91.0503Z" fill="#4CA9EE"/>
<g opacity="0.6">
<path opacity="0.6" d="M58.1106 91.9438C58.0242 91.9698 57.9507 92.0265 57.9043 92.1028C57.8579 92.179 57.8419 92.2696 57.8595 92.3568C57.8831 92.4423 57.9392 92.5157 58.0163 92.5617C58.0933 92.6076 58.1854 92.6227 58.2734 92.6038C58.3638 92.5745 58.4402 92.514 58.4886 92.4334C58.5369 92.3528 58.5539 92.2577 58.5363 92.1657C58.5027 92.0787 58.436 92.0079 58.3504 91.9683C58.2647 91.9287 58.1668 91.9233 58.0772 91.9534" fill="white"/>
</g>
<g opacity="0.6">
<path opacity="0.6" d="M57.0944 93.9488L57.1297 93.2367L65.7258 93.4297C65.7258 93.4297 66.1182 93.5976 66.0829 93.8755L57.0944 93.9488Z" fill="white"/>
</g>
<path d="M61.5043 91.3359C61.5043 91.3803 61.2827 91.4015 61.0688 91.5404C60.855 91.6794 60.7393 91.8627 60.7 91.8453C60.6608 91.828 60.7236 91.579 60.9864 91.415C61.2493 91.251 61.5122 91.3069 61.5043 91.3359Z" fill="#263238"/>
<path d="M62.4479 91.7141C62.4577 91.7546 62.2694 91.8299 62.1203 92.0132C61.9712 92.1966 61.9241 92.3895 61.8888 92.3876C61.8535 92.3857 61.8143 92.1425 62.0026 91.9187C62.1909 91.6948 62.4459 91.6716 62.4479 91.7141Z" fill="#263238"/>
<path d="M62.9914 92.818C62.9502 92.8277 62.8874 92.6134 62.9914 92.3761C63.0953 92.1387 63.3072 92.0441 63.3248 92.0789C63.3425 92.1136 63.2189 92.2429 63.1287 92.4378C63.0384 92.6327 63.0345 92.8141 62.9914 92.818Z" fill="#263238"/>
<path d="M55.331 52.8481C55.5271 52.9678 57.9949 60.4091 58.9385 71.241C59.7369 80.3998 61.4456 89.493 61.4456 89.493L57.0023 90.3035C57.0023 90.3035 53.2182 78.9563 50.6072 70.9766C48.3964 64.2223 47.9334 59.255 47.9334 59.255L47.1036 52.8481H55.331Z" fill="#263238"/>
<path d="M41.8618 48.7492C41.8618 48.7492 37.2636 53.5061 37.6069 58.9096C37.8129 62.1439 44.9633 89.8654 44.9633 89.8654L49.3594 89.7496L48.0176 53.564L41.8618 48.7492Z" fill="#263238"/>
<path d="M48.7063 58.3075C48.7554 58.1109 48.817 57.9176 48.8907 57.7286C49.0371 57.2735 49.1525 56.8093 49.236 56.3391C49.3181 55.8689 49.368 55.3937 49.385 54.9168C49.3813 54.7178 49.3892 54.5187 49.4086 54.3205C49.4247 54.3725 49.4333 54.4264 49.4341 54.4807C49.4459 54.583 49.4537 54.7335 49.4557 54.9168C49.4601 55.3992 49.4207 55.881 49.338 56.3565C49.2553 56.8322 49.1279 57.2992 48.9574 57.7517C48.8927 57.9254 48.8338 58.0624 48.7887 58.157C48.7689 58.2109 48.7412 58.2616 48.7063 58.3075Z" fill="#455A64"/>
<path d="M45.3164 88.777C45.3055 88.746 45.2964 88.7144 45.2889 88.6824L45.2183 88.4045C45.1555 88.1575 45.0673 87.7947 44.9594 87.3258C44.7416 86.3879 44.4493 85.0255 44.1119 83.3388C43.7745 81.6522 43.3979 79.6375 42.9349 77.4105C42.7034 76.297 42.4464 75.1314 42.1502 73.9272C41.854 72.723 41.5342 71.4841 41.2066 70.2124C40.5495 67.6708 39.9512 65.2354 39.5922 62.9853C39.4159 61.9214 39.2993 60.8487 39.243 59.7722C39.1999 58.8325 39.2485 57.891 39.3882 56.9605C39.5074 56.1936 39.6959 55.4386 39.9512 54.7045C40.149 54.1543 40.3829 53.6174 40.6515 53.097C40.8771 52.6705 41.0654 52.3463 41.2066 52.1321L41.3636 51.889C41.3807 51.8608 41.3997 51.8337 41.4205 51.8079L41.3714 51.8948L41.24 52.1321C41.1046 52.3483 40.9222 52.6763 40.7025 53.097C40.4416 53.62 40.2149 54.1589 40.0237 54.7103C39.7734 55.4462 39.5896 56.2024 39.4745 56.9701C39.3415 57.8967 39.2981 58.8337 39.345 59.7683C39.4035 60.8417 39.5221 61.9112 39.7001 62.9718C40.0649 65.2142 40.6633 67.6457 41.3204 70.1892C41.648 71.459 41.9717 72.6979 42.262 73.906C42.5524 75.114 42.8054 76.2777 43.0349 77.3912C43.492 79.6201 43.8608 81.6368 44.1904 83.3253C44.5199 85.0139 44.7985 86.3763 45.0045 87.3181C45.1065 87.7831 45.1869 88.1479 45.2438 88.3988C45.2693 88.5203 45.2889 88.613 45.3046 88.6805C45.3203 88.7481 45.3164 88.777 45.3164 88.777Z" fill="white"/>
<path d="M45.9481 88.696C45.9481 88.696 45.9363 88.6631 45.9206 88.6014C45.905 88.5396 45.8795 88.4412 45.85 88.3216C45.7892 88.0765 45.699 87.7137 45.593 87.2467C45.3753 86.3107 45.083 84.9522 44.7476 83.2674C44.4121 81.5827 44.0374 79.5738 43.5705 77.3526C43.3391 76.2411 43.084 75.0793 42.7859 73.879C42.4877 72.6787 42.1719 71.4417 41.8443 70.1719C41.1891 67.6342 40.5947 65.2046 40.2376 62.9602C40.0606 61.8984 39.9454 60.8276 39.8924 59.7529C39.8593 58.8176 39.9165 57.8813 40.063 56.9566C40.1837 56.1919 40.3721 55.439 40.626 54.7065C40.8232 54.1557 41.0564 53.6181 41.3244 53.097C41.55 52.6706 41.7364 52.3464 41.8776 52.1321L42.0345 51.8909C42.0699 51.835 42.0895 51.8099 42.0895 51.8099C42.0895 51.8099 42.0757 51.8388 42.0424 51.8948L41.8953 52.1437C41.7599 52.3579 41.5794 52.686 41.3597 53.1086C41.0991 53.6311 40.8724 54.1693 40.681 54.72C40.4316 55.4484 40.2472 56.1968 40.1297 56.9566C39.9963 57.8806 39.9516 58.8149 39.9963 59.7471C40.0531 60.818 40.171 61.8849 40.3495 62.9428C40.7104 65.1833 41.3087 67.6091 41.9639 70.1448C42.2915 71.4146 42.6132 72.6536 42.9036 73.8539C43.1939 75.0542 43.447 76.2198 43.6745 77.3275C44.1316 79.5526 44.5004 81.5731 44.826 83.2481C45.1517 84.9232 45.4341 86.2934 45.6401 87.2312C45.7421 87.6982 45.8226 88.0611 45.8775 88.3119C45.903 88.4316 45.9246 88.5261 45.9383 88.5937C45.952 88.6612 45.9481 88.696 45.9481 88.696Z" fill="white"/>
<path d="M59.0384 72.3352C59.0448 72.3519 59.0487 72.3695 59.0502 72.3873C59.0502 72.4278 59.062 72.4799 59.0718 72.5417C59.0894 72.6845 59.1149 72.8832 59.1463 73.136C59.2071 73.6609 59.2934 74.4039 59.3994 75.3225C59.4523 75.7837 59.5092 76.2874 59.57 76.8316C59.6308 77.3758 59.725 77.9528 59.8094 78.5684C59.9761 79.7861 60.1585 81.1235 60.3508 82.5264C60.7059 84.5778 61.0374 86.4864 61.314 88.0765V88.1132L61.2767 88.1248C59.9035 88.4837 58.75 88.7346 57.9418 88.8967C57.5377 88.9777 57.2199 89.0356 57.0041 89.0742L56.755 89.1147L56.6707 89.1244C56.6973 89.1139 56.7249 89.1062 56.753 89.1012L56.9983 89.0491L57.9301 88.8561C58.7343 88.6825 59.8819 88.42 61.2532 88.0533L61.2218 88.0997C60.9412 86.5095 60.6038 84.6029 60.2409 82.5515C60.0448 81.1466 59.8702 79.8073 59.7054 78.5896C59.625 77.9798 59.5485 77.4009 59.4759 76.8528L59.3189 75.3418C59.2248 74.4232 59.1502 73.6764 59.0973 73.1515C59.0737 72.8987 59.0541 72.6999 59.0404 72.5552C59.0404 72.4915 59.0404 72.4413 59.0286 72.4008C59.028 72.3785 59.0313 72.3563 59.0384 72.3352Z" fill="#455A64"/>
<path d="M57.9144 90.0545C57.681 89.7364 57.5629 89.3504 57.579 88.9584C57.6519 89.1354 57.7096 89.3181 57.7516 89.5045C57.8237 89.6823 57.8782 89.8665 57.9144 90.0545Z" fill="#455A64"/>
<path d="M59.4308 89.7727C59.4308 89.7727 59.4112 89.7592 59.3936 89.7283C59.3759 89.6376 59.3583 89.4369 59.3131 89.2054C59.2601 89.0184 59.2195 88.8282 59.1915 88.6361C59.3143 88.7972 59.3908 88.9878 59.4132 89.188C59.451 89.3657 59.4583 89.5483 59.4348 89.7283C59.4387 89.7496 59.4387 89.7631 59.4308 89.7727Z" fill="#455A64"/>
<path d="M60.8804 89.5354C60.851 89.5354 60.8647 89.2401 60.8039 88.8869C60.7431 88.5338 60.6332 88.2636 60.6607 88.2501C60.7834 88.4388 60.8661 88.6498 60.9038 88.8707C60.9416 89.0915 60.9336 89.3176 60.8804 89.5354Z" fill="#455A64"/>
<path d="M49.383 88.64C49.1564 88.6553 48.929 88.6553 48.7023 88.64C48.2825 88.64 47.7038 88.64 47.0624 88.6574C46.4209 88.6747 45.8442 88.7153 45.4263 88.7461C45.2004 88.7723 44.973 88.7839 44.7456 88.7809C44.8033 88.761 44.8632 88.748 44.9241 88.7423C45.0399 88.721 45.2086 88.6998 45.4185 88.6747C45.8363 88.6265 46.417 88.5782 47.0604 88.557C47.7038 88.5358 48.2845 88.5474 48.7043 88.5686C48.9142 88.5802 49.0849 88.5918 49.2026 88.6033C49.2642 88.6072 49.3249 88.6195 49.383 88.64Z" fill="#455A64"/>
<path d="M48.5708 89.8287C48.5433 89.8287 48.6316 89.5644 48.6512 89.2382C48.6709 88.9121 48.6218 88.6593 48.6512 88.6419C48.7472 88.8276 48.7828 89.0378 48.7532 89.244C48.757 89.453 48.6931 89.6578 48.5708 89.8287Z" fill="#455A64"/>
<path d="M47.0898 89.8442C47.0241 89.6581 46.9916 89.4623 46.9937 89.2653C46.9606 89.0704 46.9606 88.8715 46.9937 88.6767C47.0896 89.0589 47.1195 89.4542 47.0819 89.8461L47.0898 89.8442Z" fill="#455A64"/>
<path d="M45.9245 89.8307C45.7182 89.4804 45.6264 89.0761 45.6617 88.6728C45.7284 88.8606 45.7757 89.0546 45.8029 89.2517C45.8626 89.4403 45.9034 89.6342 45.9245 89.8307Z" fill="#455A64"/>
<path d="M56.8805 41.4256C56.8805 39.5769 55.0444 36.6204 55.0444 36.6204L53.3004 33.0793L45.9225 33.0001L41.854 34.737L41.2282 35.2619L43.0212 47.1147L40.7181 50.3818C41.6323 54.2684 55.5603 53.0604 55.5603 53.0604L53.9203 46.5512C53.9203 46.5512 56.8805 43.2724 56.8805 41.4256Z" fill="#4CA9EE"/>
<g opacity="0.3">
<path opacity="0.3" d="M41.756 48.9499C41.756 49.305 42.1228 49.55 42.4642 49.6678C42.8055 49.7855 43.1939 49.8607 43.4156 50.1483C43.6117 50.3992 43.6117 50.7427 43.6117 51.0611C43.6117 51.5834 43.6117 52.1077 43.6117 52.6339C43.6117 52.8268 43.6686 53.0912 43.8687 53.0951C44.0139 53.0951 44.11 52.9484 44.1669 52.8153C44.3529 52.3847 44.4733 51.9295 44.5239 51.4644C44.5573 51.1344 44.5789 50.7562 44.8476 50.5555C45.1164 50.3548 45.5165 50.4435 45.852 50.5342C47.9536 51.1018 50.1653 51.1496 52.2903 50.6732C53.0357 50.5053 53.791 50.2602 54.3559 49.7546C54.4952 49.6292 54.6325 49.4362 54.5521 49.2702C54.4717 49.1043 54.1931 49.112 53.995 49.1602C51.8744 49.6813 49.795 50.5979 47.6136 50.486C45.6735 50.3856 43.8864 49.4786 42.1601 48.5929" fill="black"/>
</g>
<path d="M52.5629 33.0715L45.9226 33.0001L43.7098 33.9457C43.6686 33.9612 44.7259 38.5888 46.4895 39.2469C48.306 39.9204 53.5339 39.8451 53.7066 37.9211C53.8439 36.4101 52.5629 33.0715 52.5629 33.0715Z" fill="#FFBE9D"/>
<path d="M50.1932 39.6309C50.1794 39.6406 50.0931 39.4997 49.9224 39.3009C49.699 39.0453 49.4338 38.8281 49.1378 38.6583C48.8404 38.4893 48.516 38.3712 48.1785 38.309C47.9196 38.2608 47.7528 38.2588 47.7528 38.2415C47.8974 38.2154 48.0456 38.2154 48.1903 38.2415C48.5425 38.2861 48.8823 38.3991 49.1898 38.574C49.4972 38.7489 49.7663 38.9823 49.9813 39.2604C50.0748 39.3698 50.1466 39.4955 50.1932 39.6309Z" fill="#4CA9EE"/>
<path d="M51.5037 46.3428C51.3128 46.409 51.1157 46.4562 50.9152 46.4837C50.5503 46.5531 50.0403 46.6303 49.4733 46.6882C48.9064 46.7461 48.3925 46.7673 48.0197 46.7712C47.8181 46.7822 47.6159 46.7751 47.4155 46.75C47.6139 46.7174 47.8147 46.7006 48.0158 46.6998C48.3885 46.6766 48.9005 46.6438 49.4635 46.5879C50.0265 46.5319 50.5366 46.4644 50.9034 46.4123C51.1017 46.3757 51.3022 46.3525 51.5037 46.3428Z" fill="#263238"/>
<path d="M50.8072 47.3848C50.5973 47.4291 50.3851 47.4619 50.1716 47.4832C49.6616 47.5563 49.156 47.6568 48.6571 47.7842C48.1587 47.9135 47.6676 48.0688 47.1859 48.2493C46.9891 48.3333 46.7881 48.4073 46.5836 48.4712C46.5836 48.4712 46.6327 48.4326 46.7307 48.3825C46.8288 48.3323 46.976 48.2628 47.1584 48.1895C48.1157 47.7869 49.1285 47.5267 50.1637 47.4176C50.3599 47.3983 50.5227 47.3867 50.6345 47.3848C50.6917 47.376 50.75 47.376 50.8072 47.3848Z" fill="#263238"/>
<g opacity="0.3">
<path opacity="0.3" d="M47.3468 46.7287C47.3096 44.7237 46.8799 42.6241 45.5499 41.1053C45.7753 42.2013 45.6428 43.3394 45.1714 44.3569C44.7 45.3745 43.9139 46.2194 42.9252 46.7712V47.3096C43.2528 47.9175 43.7216 48.481 44.3572 48.7647C44.9928 49.0484 45.8147 48.9943 46.3189 48.5099C46.5837 48.2494 46.7348 47.8982 46.9839 47.6222C47.3998 47.1668 48.0315 46.9796 48.6298 46.8117L47.3468 46.7287Z" fill="black"/>
</g>
<path d="M53.3064 42.0509C53.2887 42.1128 53.2637 42.1723 53.2319 42.2285C53.1809 42.3404 53.0965 42.4986 52.9886 42.6916C52.4192 43.6971 51.7116 44.6205 50.8857 45.4358C50.7268 45.5921 50.5954 45.7137 50.4934 45.7928C50.4467 45.8386 50.3947 45.8788 50.3384 45.9124C50.4922 45.7289 50.6552 45.5531 50.8268 45.3856C51.1289 45.0653 51.535 44.6137 51.945 44.0753C52.355 43.5369 52.6885 43.0313 52.9258 42.6569C53.0418 42.4485 53.1689 42.2462 53.3064 42.0509Z" fill="#263238"/>
<path d="M48.9514 19.3256C49.5399 18.5942 51.1269 18.5961 51.531 19.0265C51.8019 18.8789 52.1202 18.8397 52.4197 18.917C52.7193 18.9943 52.9771 19.182 53.1396 19.4414L54.8403 19.7115C55.1341 19.7302 55.4183 19.8218 55.6662 19.9778C55.8997 20.1554 56.0252 20.5028 55.8624 20.7498C56.4646 20.8636 56.753 21.7147 56.343 22.1585C56.4037 22.2195 56.4512 22.2919 56.4824 22.3715C56.5137 22.4511 56.5281 22.5362 56.5248 22.6214C56.5215 22.7067 56.5005 22.7904 56.4632 22.8674C56.4259 22.9444 56.373 23.0132 56.3077 23.0694C56.808 23.5869 57.2147 24.1847 57.5102 24.8371C57.6592 25.0999 57.7092 25.4061 57.6515 25.7016C57.5651 25.9872 57.2042 26.2034 56.9492 26.0451C57.0389 26.1544 57.0947 26.2867 57.11 26.4263C57.1253 26.5659 57.0994 26.7069 57.0355 26.8325C57.3199 26.8209 57.4278 27.2474 57.2513 27.4616C57.0747 27.6758 56.755 27.7202 56.4666 27.7318C56.1782 27.7433 55.8781 27.7491 55.6525 27.9247C55.6571 27.9585 55.6687 27.9911 55.6866 28.0203C55.7044 28.0495 55.7282 28.0748 55.7565 28.0946C56.0054 28.258 56.1817 28.5086 56.2495 28.7954C56.3173 29.0822 56.2715 29.3837 56.1213 29.6384C56.0899 29.6866 56.0605 29.731 56.037 29.7716C55.8859 30.0128 55.4936 30.2482 55.2523 30.3949C54.6324 30.7654 54.246 30.7268 53.5358 30.8754C53.7614 31.3173 52.6668 32.398 51.2701 31.4949C48.9342 32.3187 46.4895 32.8056 44.0118 32.9403C43.6195 32.9673 43.1447 32.9403 42.9486 32.6103C42.7884 32.6508 42.6204 32.6508 42.4603 32.6103C42.3001 32.5698 42.1529 32.4902 42.0325 32.3787C41.7921 32.1534 41.593 31.889 41.444 31.5971C41.0986 31.5224 40.7853 31.3442 40.5471 31.0871C40.3089 30.83 40.1576 30.5066 40.1139 30.1614C39.8724 29.9975 39.6681 29.7862 39.5138 29.5407C39.3595 29.2953 39.2586 29.021 39.2174 28.7353C39.0532 28.6882 38.9006 28.6084 38.7692 28.5008C38.6377 28.3932 38.5301 28.2602 38.4532 28.1099C38.3763 27.9596 38.3316 27.7954 38.322 27.6274C38.3124 27.4594 38.3381 27.2913 38.3975 27.1335C38.4882 26.3266 38.7128 25.5397 39.0625 24.8043C38.6074 24.7367 38.3975 24.152 38.5544 23.7255C38.7113 23.299 39.1037 23.0057 39.4764 22.7375C39.1449 22.8475 38.8251 22.4499 38.8879 22.1122C38.9507 21.7745 39.2351 21.5333 39.5235 21.3287C39.944 21.043 40.3977 20.8078 40.8751 20.6282C40.9967 20.0357 41.7088 19.3236 42.2483 19.0303C44.4159 17.8454 45.9755 17.4865 48.9514 19.3507" fill="#263238"/>
<path d="M51.2918 33.1989V22.6912C51.2931 22.4664 51.2082 22.2493 51.054 22.0834C50.8998 21.9174 50.6877 21.8147 50.46 21.7958L45.6225 20.6572C44.0747 20.5163 43.0723 22.394 42.9958 23.9263C42.9094 25.6226 42.8722 27.6952 43.0919 28.9572C43.1875 29.6536 43.5079 30.3013 44.0059 30.805C44.5038 31.3087 45.153 31.6419 45.8579 31.7554L45.8971 33.5984L45.9246 35.7443C46.6563 35.6131 51.2054 33.0059 51.2054 33.0059" fill="#FFBE9D"/>
<path d="M45.7206 27.6372C45.529 27.5819 45.3315 27.5495 45.1321 27.5407C45.0418 27.5407 44.9555 27.5176 44.9359 27.4558C44.928 27.3635 44.9478 27.2709 44.9928 27.1895C45.0771 26.9714 45.1634 26.7437 45.2537 26.5044C45.6146 25.5279 45.8755 24.7271 45.8422 24.7136C45.8088 24.7001 45.4773 25.4855 45.1164 26.4504C45.03 26.6916 44.9457 26.9193 44.8672 27.1393C44.8114 27.2485 44.7967 27.3737 44.826 27.4925C44.8393 27.5239 44.8598 27.5518 44.8861 27.5739C44.9123 27.5961 44.9435 27.6118 44.9771 27.6198C45.0276 27.633 45.0798 27.6395 45.1321 27.6391C45.3275 27.6629 45.5253 27.6622 45.7206 27.6372Z" fill="#263238"/>
<path d="M45.8657 31.7555C45.8657 31.7555 47.2683 31.879 48.977 30.8388C48.977 30.8388 48.5846 32.7377 45.8834 32.6335L45.8657 31.7555Z" fill="#4CA9EE"/>
<path d="M46.7151 23.6638C46.7505 23.7584 47.1075 23.7082 47.5253 23.7526C47.9432 23.797 48.2845 23.905 48.3394 23.8182C48.363 23.7777 48.3022 23.6889 48.1648 23.5982C47.9813 23.4878 47.7748 23.4198 47.5607 23.3994C47.3466 23.379 47.1306 23.4068 46.929 23.4805C46.776 23.5422 46.6995 23.6194 46.7151 23.6638Z" fill="#263238"/>
<path d="M43.5941 23.7912C43.6569 23.8684 43.9021 23.7912 44.1983 23.7757C44.4945 23.7603 44.7437 23.8221 44.8006 23.7391C44.8241 23.6966 44.7849 23.6175 44.675 23.5461C44.5273 23.4554 44.3545 23.4122 44.1807 23.4226C44.0074 23.4271 43.8399 23.4852 43.702 23.5886C43.5941 23.6696 43.5568 23.7526 43.5941 23.7912Z" fill="#263238"/>
<path d="M41.9169 25.2115C41.9025 24.8089 42.0307 24.4139 42.2798 24.0941C42.4388 23.942 42.5894 23.7816 42.731 23.6136C42.9997 23.2277 42.9271 22.7047 43.0233 22.2415C43.0903 21.9445 43.2278 21.6674 43.4245 21.4326C43.6213 21.1978 43.8716 21.0121 44.1552 20.8907C44.6279 20.6977 45.1772 20.6861 45.6166 20.4237C45.9423 20.2307 46.1796 19.9104 46.5151 19.7347C47.1703 19.3951 47.9707 19.6904 48.6278 20.0261C48.7828 20.5163 48.4885 20.9621 48.2041 21.3924C48.0611 21.605 47.8731 21.7847 47.6531 21.9192C47.433 22.0538 47.186 22.14 46.929 22.1721C46.5268 22.2203 46.0521 22.1566 45.7853 22.4558C45.5185 22.7549 45.6519 23.2875 45.4263 23.6406C45.1046 24.1482 44.2984 24.0092 43.7922 24.3392C43.3999 24.594 43.2606 25.0803 43.0821 25.4971C42.9036 25.9139 42.576 26.3752 42.1013 26.381C41.9941 25.9994 41.9323 25.607 41.9169 25.2115Z" fill="#263238"/>
<path d="M47.6764 20.9814C48.8555 20.8972 50.04 21.0388 51.1643 21.3982C51.5084 21.4772 51.8178 21.6625 52.047 21.927C52.2076 22.1885 52.288 22.49 52.2785 22.7954C52.3236 23.7468 52.0039 24.9317 51.69 25.831L50.5267 26.6029C49.5851 26.4389 49.9186 24.8371 49.9166 24.0459C49.5852 23.9187 49.2967 23.7026 49.0838 23.4222C48.8708 23.1419 48.7421 22.8084 48.7122 22.4596C48.4376 22.3057 48.2019 22.0929 48.0226 21.8369C47.8433 21.581 47.7249 21.2886 47.6764 20.9814Z" fill="#263238"/>
<path d="M50.5188 26.2728C50.5188 25.7286 51.1956 25.5839 51.686 25.8386C51.9548 25.9776 52.1706 26.269 52.1706 26.8479C52.1706 28.3918 50.6012 28.0733 50.6012 28.029C50.6012 27.9846 50.513 26.9039 50.5188 26.2728Z" fill="#FFBE9D"/>
<path d="M51.0721 27.4308C51.0721 27.4308 51.0995 27.4501 51.1447 27.4694C51.2078 27.4933 51.2777 27.4933 51.3408 27.4694C51.5076 27.4096 51.6469 27.1491 51.6547 26.8712C51.6591 26.7385 51.6329 26.6066 51.5782 26.4852C51.5635 26.4369 51.537 26.3929 51.5011 26.3569C51.4652 26.321 51.421 26.2941 51.3722 26.2787C51.3409 26.2707 51.3077 26.2736 51.2784 26.2869C51.249 26.3003 51.2253 26.3233 51.2114 26.352C51.1898 26.3964 51.1996 26.4273 51.1917 26.4292C51.1839 26.4312 51.1584 26.4041 51.1702 26.3385C51.1807 26.3009 51.2026 26.2672 51.2329 26.242C51.2765 26.2107 51.3305 26.1969 51.384 26.2035C51.452 26.2178 51.5149 26.2497 51.5662 26.2958C51.6176 26.3419 51.6556 26.4006 51.6763 26.4659C51.7436 26.5995 51.7766 26.7472 51.7724 26.8962C51.7606 27.2069 51.5998 27.4983 51.3801 27.562C51.3381 27.5743 51.2939 27.577 51.2507 27.57C51.2076 27.563 51.1666 27.5464 51.1309 27.5215C51.074 27.4733 51.0662 27.4308 51.0721 27.4308Z" fill="#4CA9EE"/>
<path d="M51.2839 28.0734C51.2839 28.0734 51.2839 28.0734 51.2839 28.0927C51.2882 28.1132 51.2962 28.1328 51.3075 28.1506C51.3532 28.2211 51.4226 28.2736 51.5036 28.2992C51.6286 28.3462 51.7625 28.3659 51.896 28.357C51.9798 28.3547 52.0633 28.3444 52.1451 28.3262C52.2394 28.3087 52.3302 28.2761 52.4139 28.2297H52.3942C52.4247 28.358 52.488 28.4765 52.5782 28.5739C52.6684 28.6714 52.7825 28.7445 52.9095 28.7862C53.0366 28.828 53.1724 28.8371 53.304 28.8127C53.4356 28.7882 53.5587 28.731 53.6615 28.6465H53.634C53.6864 28.7133 53.763 28.7576 53.8478 28.77C53.9334 28.7821 54.0207 28.7694 54.0989 28.7334C54.1828 28.6995 54.2521 28.6381 54.2951 28.5597C54.3389 28.4811 54.3612 28.3926 54.3599 28.303C54.357 28.1176 54.2875 27.9392 54.1637 27.7993C54.0344 27.6583 53.8882 27.5332 53.7282 27.4269V27.4636C53.7916 27.4186 53.8446 27.361 53.8839 27.2945C53.9231 27.228 53.9476 27.1541 53.9557 27.0776C53.9769 26.9233 53.9517 26.7663 53.8832 26.626C53.8103 26.485 53.7096 26.3597 53.5869 26.2574C53.4626 26.1533 53.3316 26.0573 53.1946 25.9699V26.0046C53.2469 25.942 53.2853 25.8693 53.3073 25.7912C53.3293 25.7131 53.3343 25.6313 53.3221 25.5511C53.3038 25.3859 53.2354 25.23 53.1259 25.1034C52.9013 24.8864 52.6297 24.7221 52.3315 24.6229L52.3452 24.648C52.3767 24.4855 52.3676 24.3179 52.3187 24.1597C52.2698 24.0014 52.1825 23.8572 52.0644 23.7395C51.9463 23.6218 51.8008 23.5341 51.6406 23.4839C51.4804 23.4337 51.3102 23.4226 51.1446 23.4515L51.1701 23.4766C51.1842 23.3479 51.1705 23.2177 51.13 23.0945C51.0894 22.9713 51.0229 22.858 50.9348 22.7618C50.8466 22.6656 50.7389 22.5889 50.6185 22.5364C50.4982 22.484 50.368 22.4572 50.2364 22.4577L50.2579 22.477C50.2465 22.3465 50.2053 22.2203 50.1373 22.1077C50.0694 21.9951 49.9765 21.899 49.8656 21.8266C49.7702 21.7601 49.6621 21.7134 49.5478 21.6892C49.4335 21.665 49.3154 21.6638 49.2006 21.6857L49.2202 21.6993C49.2032 21.5603 49.1513 21.4276 49.0692 21.3133C49.0016 21.2093 48.9159 21.1179 48.8161 21.0431C48.6599 20.9218 48.4677 20.854 48.2688 20.8501H48.2099H48.155C48.1219 20.8535 48.0891 20.8594 48.0569 20.8675C48.0068 20.8804 47.9577 20.8965 47.9098 20.9158L47.8235 20.9582L47.796 20.9737L47.8254 20.9621L47.9118 20.9235C47.9599 20.906 48.009 20.8911 48.0589 20.8791C48.0912 20.8716 48.1239 20.8665 48.157 20.8637H48.2099H48.2688C48.4628 20.8685 48.6497 20.9363 48.8004 21.0566C48.8973 21.1305 48.9809 21.2198 49.0476 21.321C49.1245 21.4329 49.1729 21.5613 49.1888 21.6954V21.7128H49.2065C49.3169 21.6929 49.4303 21.6952 49.5398 21.7194C49.6494 21.7436 49.7528 21.7892 49.844 21.8536C49.95 21.9232 50.0387 22.0154 50.1036 22.1233C50.1684 22.2312 50.2078 22.3521 50.2187 22.477V22.4963H50.2383C50.3598 22.4933 50.4804 22.5161 50.5921 22.5631C50.7038 22.61 50.8039 22.68 50.8857 22.7684C50.9775 22.8593 51.047 22.9697 51.0888 23.0911C51.1306 23.2125 51.1437 23.3417 51.127 23.4689V23.4998H51.1584C51.3168 23.4726 51.4795 23.4837 51.6326 23.532C51.7857 23.5803 51.9246 23.6645 52.0374 23.7771C52.1502 23.8898 52.2336 24.0278 52.2804 24.1791C52.3271 24.3304 52.3359 24.4907 52.306 24.6461V24.6634H52.3236C52.6142 24.761 52.8789 24.9212 53.0985 25.1324C53.2061 25.2495 53.2745 25.3964 53.2946 25.5531C53.3063 25.6269 53.302 25.7024 53.2821 25.7746C53.2622 25.8467 53.227 25.9139 53.1789 25.9718L53.1613 25.993L53.1828 26.0066C53.4575 26.1591 53.6878 26.3783 53.8518 26.6434C53.9159 26.7754 53.9398 26.9229 53.9204 27.0679C53.9126 27.1372 53.89 27.2041 53.8542 27.2643C53.8184 27.3245 53.7701 27.3766 53.7125 27.4172L53.687 27.4346L53.7125 27.4539C53.8697 27.5571 54.0133 27.6789 54.1401 27.8167C54.2617 27.9472 54.3314 28.1164 54.3363 28.2934C54.3419 28.3747 54.3226 28.4558 54.281 28.5263C54.2395 28.5967 54.1774 28.6534 54.1029 28.689C54.0347 28.7251 53.9562 28.7375 53.88 28.7242C53.8038 28.7109 53.7344 28.6726 53.6831 28.6156L53.6733 28.6002L53.6576 28.6118C53.5507 28.7009 53.4207 28.7591 53.2822 28.7799C53.1436 28.8007 53.0019 28.7832 52.8729 28.7295C52.7658 28.6824 52.671 28.6119 52.5958 28.5233C52.5207 28.4346 52.4672 28.3302 52.4394 28.2181V28.2007H52.4237C52.3427 28.2454 52.2554 28.2779 52.1647 28.2972C52.0836 28.3162 52.0008 28.3271 51.9175 28.33C51.7846 28.3401 51.6511 28.323 51.5252 28.2799C51.4454 28.2562 51.3763 28.2065 51.329 28.139C51.2918 28.1004 51.2859 28.0714 51.2839 28.0734Z" fill="#455A64"/>
<path d="M57.1415 26.0799C57.1624 26.0496 57.1802 26.0173 57.1944 25.9834C57.2507 25.8565 57.2721 25.7173 57.2562 25.5798C57.2404 25.4422 57.1879 25.3112 57.1042 25.1999C57.0349 25.1083 56.9466 25.0322 56.8451 24.9766C56.7437 24.921 56.6314 24.8873 56.5157 24.8776L56.5294 24.895C56.5648 24.6328 56.4991 24.367 56.345 24.1501C56.2601 24.0271 56.149 23.9237 56.0194 23.8471C55.8793 23.7762 55.7328 23.7181 55.5819 23.6735C55.505 23.6491 55.4318 23.6147 55.3642 23.5712C55.2994 23.5228 55.2465 23.4608 55.2092 23.3898C55.1307 23.247 55.0994 23.0733 55.0013 22.9189C54.8979 22.7622 54.7493 22.6395 54.5745 22.5666C54.3997 22.4937 54.2068 22.4739 54.0204 22.5098L54.0479 22.5329C54.0642 22.3446 54.0362 22.1551 53.9661 21.9791C53.8959 21.8031 53.7856 21.6454 53.6435 21.5181C53.5014 21.3908 53.3314 21.2975 53.1468 21.2452C52.9621 21.193 52.7677 21.1833 52.5786 21.2168L52.6061 21.24C52.6155 21.0343 52.5653 20.8303 52.4612 20.6516C52.3572 20.473 52.2036 20.3272 52.0185 20.2313C51.8333 20.1354 51.6242 20.0933 51.4156 20.1099C51.207 20.1265 51.0076 20.2012 50.8405 20.3253H50.866C50.7012 20.1879 50.5087 20.0866 50.3011 20.0281C50.1161 19.9735 49.9251 19.9418 49.7322 19.9335C49.4198 19.9182 49.1071 19.9567 48.8082 20.0474C48.6167 20.1053 48.4354 20.1918 48.2707 20.304C48.2285 20.3347 48.1879 20.3676 48.1491 20.4025L48.1099 20.4391C48.1099 20.4391 48.1668 20.3909 48.2786 20.3137C48.444 20.206 48.6253 20.124 48.8161 20.0705C49.1121 19.9828 49.4216 19.9475 49.7302 19.9663C49.9201 19.9741 50.1081 20.0066 50.2893 20.0628C50.4917 20.1195 50.6792 20.2189 50.8386 20.3542L50.8523 20.3658H50.8641C51.0244 20.245 51.2166 20.1719 51.4178 20.1551C51.619 20.1384 51.8209 20.1786 51.9996 20.2712C52.1783 20.3638 52.3263 20.5047 52.4261 20.6775C52.526 20.8502 52.5734 21.0474 52.5629 21.2458V21.2554H52.5904C52.7764 21.2243 52.9673 21.2359 53.148 21.2895C53.3288 21.3431 53.4944 21.4371 53.632 21.5642C53.7627 21.6881 53.8639 21.8388 53.9287 22.0055C53.9935 22.1723 54.0201 22.3511 54.0067 22.5291V22.5619H54.0381C54.2148 22.5279 54.3978 22.5464 54.5638 22.6152C54.7297 22.6839 54.8711 22.7997 54.9699 22.9479C55.0621 23.0907 55.0954 23.2624 55.1778 23.4129C55.2169 23.4895 55.2741 23.5557 55.3446 23.6059C55.4129 23.6536 55.4874 23.6919 55.5662 23.7198C55.7158 23.7621 55.861 23.8184 55.9998 23.8877C56.1246 23.9612 56.2322 24.0599 56.3156 24.1771C56.4669 24.3879 56.5327 24.6467 56.5 24.9027V24.922H56.5157C56.6271 24.9311 56.7354 24.9629 56.8337 25.0154C56.932 25.0679 57.0181 25.1399 57.0866 25.2269C57.1696 25.3361 57.2226 25.4645 57.2404 25.5997C57.2583 25.735 57.2404 25.8724 57.1886 25.9989C57.1611 26.0548 57.1395 26.0799 57.1415 26.0799Z" fill="#455A64"/>
<path d="M42.2209 27.3594C42.2302 27.3397 42.2351 27.3183 42.2351 27.2966C42.2351 27.275 42.2302 27.2536 42.2209 27.2339C42.2001 27.1854 42.1662 27.1433 42.1229 27.1123C42.0641 27.071 41.9973 27.0421 41.9267 27.0274C41.8391 27.0109 41.7544 26.9817 41.6756 26.9406C41.5851 26.8853 41.516 26.8017 41.4794 26.7032C41.4363 26.5918 41.4156 26.4731 41.4186 26.3539C41.4186 26.2266 41.4304 26.0915 41.4186 25.9467C41.3696 25.6391 41.2847 25.338 41.1656 25.0494C41.1159 24.8863 41.0986 24.7153 41.1146 24.5457C41.1224 24.4569 41.1496 24.3707 41.1943 24.2932C41.2389 24.2156 41.3001 24.1484 41.3735 24.0961C41.5432 24.0036 41.7237 23.9317 41.911 23.8819C42.0091 23.849 42.1012 23.8008 42.1837 23.7391C42.266 23.6712 42.3288 23.5834 42.3661 23.4843C42.4308 23.2841 42.4742 23.0778 42.4956 22.8687C42.5104 22.7658 42.5408 22.6656 42.5858 22.5715C42.6338 22.4792 42.7109 22.4047 42.8055 22.3593C42.9439 22.3137 43.0876 22.2858 43.2332 22.2763C43.3086 22.2665 43.3816 22.2436 43.449 22.2087C43.5171 22.1738 43.5741 22.121 43.6137 22.0563C43.6805 21.93 43.728 21.7947 43.755 21.6549C43.7869 21.5245 43.8464 21.4022 43.9296 21.2959C44.0088 21.1942 44.1087 21.1098 44.2228 21.0481C44.337 20.9863 44.4629 20.9485 44.5926 20.937C44.8349 20.9145 45.0769 20.9835 45.2694 21.13L45.291 21.1454L45.3028 21.1203C45.3815 20.9289 45.5005 20.756 45.652 20.613C45.8034 20.47 45.9839 20.3601 46.1816 20.2905C46.3485 20.2334 46.525 20.2085 46.7014 20.2172C46.8517 20.2219 47 20.2533 47.1389 20.3098C47.3332 20.3907 47.5 20.5247 47.6195 20.6958C47.6513 20.7409 47.6802 20.7879 47.7058 20.8367L47.7254 20.8733V20.8849C47.7254 20.8849 47.7254 20.8849 47.7254 20.8714L47.7078 20.8328C47.6842 20.7831 47.6567 20.7354 47.6254 20.69C47.5094 20.5133 47.3428 20.3744 47.1468 20.2905C47.0063 20.2315 46.856 20.1982 46.7034 20.1921C46.5225 20.1817 46.3413 20.206 46.1698 20.2635C45.9651 20.3349 45.7782 20.4484 45.6216 20.5965C45.4649 20.7446 45.3422 20.9238 45.2616 21.1223L45.293 21.1126C45.0927 20.9579 44.8406 20.8829 44.5867 20.9023C44.4511 20.9147 44.3195 20.9543 44.2001 21.0187C44.0807 21.0831 43.9759 21.1709 43.8923 21.2766C43.8047 21.3872 43.7418 21.5148 43.7079 21.651C43.6815 21.7853 43.6359 21.9152 43.5726 22.037C43.533 22.093 43.481 22.1395 43.4205 22.1729C43.36 22.2063 43.2926 22.2258 43.2234 22.23C43.0736 22.2397 42.9259 22.2689 42.784 22.3168C42.6795 22.3662 42.5946 22.4484 42.5427 22.5503C42.4938 22.6481 42.4614 22.753 42.4465 22.861C42.4258 23.0667 42.3837 23.2697 42.321 23.467C42.2858 23.5582 42.2278 23.6392 42.1523 23.7024C42.0741 23.7621 41.9867 23.809 41.8933 23.8413C41.7022 23.8916 41.5183 23.9656 41.346 24.0613C41.2637 24.1158 41.1963 24.1893 41.1499 24.2755C41.1064 24.3581 41.0785 24.4476 41.0675 24.5399C41.0496 24.7155 41.0683 24.8928 41.1224 25.061C41.2411 25.3473 41.3273 25.6457 41.3794 25.9506C41.3892 26.0896 41.3794 26.2266 41.3794 26.3539C41.3776 26.4765 41.3996 26.5984 41.4441 26.7129C41.4815 26.8134 41.5501 26.8999 41.6403 26.9599C41.7213 27.0002 41.8079 27.0288 41.8973 27.0448C41.9673 27.0571 42.0341 27.0834 42.0934 27.122C42.1365 27.1513 42.171 27.1913 42.1935 27.2378C42.216 27.2742 42.2257 27.317 42.2209 27.3594Z" fill="#455A64"/>
<path d="M39.0389 25.1517C39.0389 25.1517 39.0389 25.1517 39.0546 25.1228C39.0703 25.0938 39.0762 25.0707 39.0919 25.034L39.2331 24.6905C39.2959 24.5419 39.3646 24.3566 39.4666 24.154C39.5717 23.9196 39.7416 23.719 39.957 23.5751C40.0786 23.4998 40.2238 23.4477 40.365 23.3821C40.4402 23.3464 40.5101 23.301 40.573 23.247C40.6383 23.1901 40.6888 23.1187 40.7201 23.0386C40.7848 22.8745 40.775 22.6931 40.826 22.5253C40.8477 22.4398 40.8957 22.363 40.9634 22.3053C41.0368 22.2488 41.1198 22.2057 41.2086 22.1779C41.3015 22.145 41.3914 22.1043 41.4773 22.0563C41.5659 22.0022 41.6346 21.9218 41.6735 21.8267C41.7336 21.6306 41.7666 21.4274 41.7716 21.2226C41.781 21.1222 41.8103 21.0245 41.8579 20.9351C41.911 20.8478 41.997 20.7847 42.0972 20.7595C42.2934 20.7055 42.5249 20.7595 42.7524 20.7151C42.8661 20.6891 42.9684 20.6283 43.0447 20.5414C43.1146 20.4564 43.1745 20.3638 43.2232 20.2655C43.2742 20.1709 43.3213 20.0725 43.3782 19.9914C43.4318 19.9049 43.5076 19.8337 43.5979 19.7849C43.7853 19.7111 43.9925 19.7009 44.1864 19.756C44.3791 19.8033 44.58 19.8086 44.7749 19.7714C44.9566 19.7144 45.1267 19.6262 45.2771 19.5109C45.4162 19.4045 45.5653 19.3115 45.7224 19.233C46.0165 19.1178 46.3383 19.0897 46.6484 19.152C46.9054 19.2001 47.1477 19.3057 47.3565 19.4607C47.5129 19.579 47.6499 19.7203 47.7626 19.8795C47.8319 19.9817 47.8923 20.0895 47.9431 20.2018C47.9607 20.2384 47.9745 20.2674 47.9862 20.2886C47.998 20.3098 48 20.3176 48.0019 20.3176L47.9902 20.2867L47.9529 20.1979C47.9057 20.0832 47.8472 19.9733 47.7783 19.8699C47.6667 19.7063 47.5297 19.5611 47.3722 19.4395C47.1618 19.2799 46.9168 19.1703 46.6562 19.1192C46.3387 19.0524 46.0083 19.0799 45.7067 19.1983C45.5467 19.2767 45.3949 19.3704 45.2536 19.4781C45.1079 19.5832 44.9445 19.6622 44.771 19.7116C44.5795 19.7454 44.383 19.7389 44.1943 19.6923C44.0928 19.6719 43.9898 19.6603 43.8863 19.6576C43.7781 19.6529 43.6706 19.6762 43.5744 19.7251C43.4771 19.7768 43.3953 19.8527 43.337 19.9451C43.2791 20.0356 43.2261 20.129 43.1781 20.2249C43.132 20.3204 43.074 20.4099 43.0055 20.4912C42.936 20.5711 42.8426 20.6272 42.7387 20.6514C42.5288 20.6977 42.3032 20.6398 42.0835 20.6958C41.9722 20.7231 41.8763 20.7924 41.8167 20.8888C41.7642 20.9836 41.7321 21.0881 41.7225 21.1956C41.7191 21.3963 41.6881 21.5956 41.6303 21.7881C41.5924 21.8752 41.528 21.9487 41.4459 21.9984C41.3619 22.045 41.274 22.0844 41.1831 22.1161C41.0909 22.1475 41.0047 22.1938 40.9281 22.2532C40.8543 22.316 40.8016 22.3995 40.777 22.4924C40.726 22.67 40.7358 22.8495 40.675 23.0019C40.61 23.1488 40.4909 23.2661 40.3415 23.33C40.2022 23.4014 40.0571 23.4554 39.9315 23.5345C39.7113 23.6832 39.5391 23.8908 39.4352 24.1328C39.3332 24.3393 39.2685 24.5187 39.2076 24.675L39.0743 25.0205C39.0605 25.0591 39.0507 25.088 39.0409 25.1112L39.0389 25.1517Z" fill="#455A64"/>
<path d="M40.6084 23.4476C40.6084 23.4476 40.5986 23.4476 40.579 23.4476C40.5501 23.4493 40.522 23.4572 40.4966 23.4708C40.4519 23.5032 40.416 23.5458 40.3917 23.5948C40.3675 23.6439 40.3556 23.698 40.3573 23.7526C40.3625 23.8302 40.3784 23.9068 40.4044 23.9803C40.4361 24.0653 40.4553 24.1543 40.4613 24.2447C40.4556 24.3475 40.4232 24.4472 40.3671 24.5341C40.3122 24.6306 40.2416 24.7271 40.1847 24.841C40.1524 24.8999 40.1342 24.9653 40.1315 25.0322C40.1287 25.099 40.1416 25.1656 40.169 25.2269C40.2259 25.3562 40.3298 25.4604 40.3848 25.5897C40.4343 25.7289 40.428 25.8814 40.3671 26.0162C40.3141 26.159 40.2357 26.3018 40.1847 26.4601C40.1571 26.5414 40.1451 26.6272 40.1494 26.7129C40.1564 26.8006 40.1817 26.8861 40.2239 26.9637C40.3186 27.114 40.4269 27.2554 40.5476 27.3864C40.671 27.5157 40.741 27.6856 40.7437 27.863C40.7121 28.0454 40.6588 28.2236 40.5848 28.3937C40.5524 28.4854 40.5384 28.5824 40.5437 28.6793C40.5514 28.7755 40.5816 28.8686 40.6319 28.9514C40.737 29.103 40.8587 29.2428 40.9948 29.3683C41.1229 29.4863 41.225 29.6288 41.295 29.787C41.3489 29.9477 41.4145 30.1045 41.4911 30.256C41.5327 30.332 41.591 30.3979 41.6618 30.4489C41.7314 30.4912 41.8076 30.5219 41.8874 30.5396C41.9624 30.5569 42.0364 30.5781 42.1091 30.6033C42.1798 30.6308 42.2459 30.6686 42.3053 30.7153C42.4108 30.8075 42.5031 30.9133 42.5799 31.0298C42.6603 31.1398 42.7329 31.2479 42.8133 31.3444C42.9576 31.5231 43.1574 31.6505 43.3822 31.7072C43.5491 31.7522 43.7243 31.7588 43.8942 31.7265C44.0012 31.7069 44.1045 31.6711 44.2002 31.6203C44.2338 31.602 44.2659 31.5814 44.2964 31.5586C44.1719 31.632 44.035 31.683 43.8923 31.7091C43.7242 31.7366 43.5521 31.7274 43.3881 31.6821C43.1704 31.624 42.9777 31.498 42.8388 31.3231C42.7604 31.2286 42.6897 31.1302 42.6113 31.0086C42.5329 30.8887 42.4385 30.7797 42.3308 30.6844C42.2714 30.6361 42.2053 30.5965 42.1346 30.5667C42.0609 30.5401 41.9855 30.5182 41.909 30.501C41.8331 30.4836 41.7608 30.4536 41.6952 30.4123C41.6302 30.3676 41.5765 30.3088 41.5382 30.2405C41.4629 30.0898 41.3974 29.9344 41.3421 29.7754C41.2717 29.6109 41.1667 29.463 41.0341 29.3412C40.9013 29.2184 40.7822 29.0819 40.679 28.9341C40.632 28.8572 40.6038 28.7707 40.5966 28.6813C40.5933 28.5902 40.6066 28.4994 40.6359 28.413C40.7113 28.2399 40.7653 28.0585 40.7967 27.8727C40.8015 27.777 40.7827 27.6817 40.7418 27.5948C40.701 27.512 40.6503 27.4342 40.5907 27.3632C40.4736 27.2338 40.3667 27.0957 40.271 26.9502C40.2324 26.8777 40.209 26.7983 40.2023 26.7167C40.1977 26.6362 40.209 26.5556 40.2357 26.4794C40.2827 26.325 40.3612 26.1841 40.4142 26.0355C40.478 25.8912 40.4837 25.7283 40.4299 25.5801C40.3691 25.4411 40.2651 25.3388 40.2102 25.2192C40.1841 25.1621 40.1718 25.0998 40.1741 25.0372C40.1765 24.9746 40.1935 24.9134 40.2239 24.8583C40.2749 24.7483 40.3475 24.6518 40.4024 24.5534C40.4602 24.4617 40.492 24.3564 40.4946 24.2485C40.4882 24.156 40.4677 24.0649 40.4338 23.9783C40.4067 23.9071 40.3902 23.8323 40.3848 23.7564C40.3816 23.7042 40.3914 23.6519 40.4133 23.6042C40.4352 23.5565 40.4684 23.5147 40.5103 23.4824C40.5392 23.4623 40.5731 23.4503 40.6084 23.4476Z" fill="#455A64"/>
<path d="M57.1002 26.0393C57.142 26.0372 57.1834 26.0308 57.2238 26.02C57.341 25.9912 57.4502 25.9372 57.5435 25.8618C57.6976 25.7445 57.8051 25.5779 57.8476 25.3909C57.8747 25.266 57.8735 25.1367 57.844 25.0123C57.8145 24.8878 57.7575 24.7713 57.6769 24.6711C57.5775 24.5614 57.4671 24.4618 57.3474 24.3739C57.2171 24.2824 57.1098 24.163 57.0335 24.0246C56.9705 23.8671 56.9705 23.692 57.0335 23.5345C57.0825 23.3666 57.1649 23.2006 57.212 23.0134C57.263 22.8096 57.2702 22.5975 57.2333 22.3907C57.1964 22.184 57.1162 21.987 56.9978 21.8124C56.8793 21.6378 56.7252 21.4894 56.5453 21.3765C56.3654 21.2637 56.1635 21.1889 55.9526 21.1569L55.9683 21.1936C56.0349 21.0901 56.0746 20.9722 56.084 20.8501C56.0906 20.7257 56.0726 20.6012 56.0311 20.4834C55.9921 20.3642 55.9323 20.2526 55.8545 20.1535C55.7737 20.0576 55.6792 19.9737 55.574 19.9045C55.2549 19.7095 54.8944 19.5894 54.5206 19.5533C54.1706 19.5084 53.8158 19.5129 53.4672 19.5668L53.4927 19.588C53.4754 19.3888 53.4031 19.198 53.2834 19.0364C53.1638 18.8748 53.0014 18.7486 52.8139 18.6714C52.638 18.6016 52.4471 18.5763 52.2587 18.598C52.0835 18.6274 51.9136 18.6821 51.7546 18.7601C51.678 18.7924 51.5976 18.8151 51.5153 18.8277C51.4368 18.8383 51.3569 18.8344 51.2799 18.8161C51.1314 18.7754 50.9884 18.717 50.8542 18.6424C50.7263 18.5731 50.5898 18.5206 50.4481 18.4861C50.3195 18.4575 50.1874 18.4471 50.0558 18.4552C49.8278 18.4701 49.6075 18.5426 49.4163 18.6656C49.2748 18.758 49.1523 18.8758 49.0553 19.0129C48.9881 19.0966 48.9326 19.1887 48.8905 19.287C48.877 19.3202 48.8658 19.3544 48.8572 19.3893C48.8572 19.3893 48.8689 19.3545 48.8984 19.2889C48.9388 19.194 48.9902 19.1041 49.0514 19.0207C49.1496 18.8878 49.272 18.7739 49.4123 18.6849C49.5621 18.5915 49.7293 18.5285 49.9041 18.4996C50.079 18.4708 50.258 18.4767 50.4305 18.517C50.5674 18.5517 50.6993 18.6036 50.8228 18.6714C50.9587 18.7487 51.1036 18.8097 51.2544 18.8528C51.3366 18.8721 51.4218 18.876 51.5055 18.8643C51.5905 18.8516 51.6736 18.8283 51.7526 18.7949C51.9098 18.7201 52.0769 18.6675 52.2489 18.6386C52.4301 18.6183 52.6135 18.6428 52.7825 18.71C52.9622 18.7837 53.1179 18.9042 53.2331 19.0586C53.3482 19.213 53.4183 19.3954 53.4358 19.5861V19.6092H53.4593C53.804 19.5554 54.1549 19.5509 54.501 19.5957C54.867 19.6313 55.22 19.7488 55.5328 19.9392C55.6348 20.0081 55.726 20.0914 55.8035 20.1863C55.8776 20.2809 55.9346 20.3873 55.9722 20.5008C56.0083 20.613 56.0223 20.7309 56.0134 20.8482C56.0036 20.9624 55.9666 21.0728 55.9055 21.1705L55.8859 21.1994H55.9212C56.1268 21.229 56.3238 21.3006 56.4997 21.4094C56.6755 21.5183 56.8263 21.662 56.9425 21.8315C57.0586 22.001 57.1375 22.1924 57.1742 22.3936C57.2108 22.5948 57.2043 22.8013 57.1551 22.9999C57.11 23.1813 57.0296 23.3473 56.9786 23.519C56.9128 23.6847 56.9128 23.8686 56.9786 24.0343C57.0575 24.1776 57.1689 24.3011 57.3042 24.3951C57.4231 24.4812 57.5328 24.5788 57.6318 24.6865C57.7105 24.7828 57.7666 24.8951 57.7961 25.0151C57.8256 25.1352 57.8278 25.2602 57.8025 25.3813C57.7637 25.5648 57.6611 25.7293 57.5122 25.8463C57.4198 25.9207 57.313 25.9758 57.1983 26.0084C57.1414 26.0335 57.1002 26.0374 57.1002 26.0393Z" fill="#263238"/>
<path d="M39.9964 22.4133C39.9973 22.4037 39.9973 22.394 39.9964 22.3843C39.9964 22.3612 39.9964 22.3322 39.9964 22.2975C39.9964 22.2184 39.9964 22.1045 40.0082 21.9636C40.0199 21.8228 40.0317 21.6414 40.0631 21.4484C40.0931 21.2177 40.1497 20.9911 40.2318 20.773C40.3319 20.5097 40.4885 20.2708 40.6908 20.0724C40.8057 19.9629 40.9383 19.8728 41.0832 19.8061C41.2394 19.7418 41.3992 19.6864 41.5618 19.6402C41.7305 19.5869 41.8875 19.5032 42.0248 19.3932C42.1723 19.2726 42.3041 19.1345 42.4171 18.9821C42.529 18.8316 42.6349 18.6733 42.7624 18.5267C42.8861 18.3824 43.0349 18.2609 43.2018 18.1677C43.5488 17.9931 43.9289 17.8913 44.318 17.8686C44.6806 17.8364 45.0452 17.83 45.4087 17.8493C46.0246 17.8795 46.6311 18.01 47.2037 18.2353C47.5889 18.3896 47.947 18.6025 48.2649 18.8663C48.3199 18.9146 48.3709 18.9551 48.4121 18.9937L48.5121 19.094L48.5749 19.1558L48.5965 19.1751C48.5965 19.1751 48.5965 19.1751 48.5788 19.1519L48.518 19.0863L48.4219 18.984C48.3807 18.9435 48.3316 18.9011 48.2767 18.8528C47.962 18.5812 47.6041 18.3622 47.2174 18.2044C46.6422 17.9725 46.0314 17.8374 45.4107 17.8049C45.0453 17.7833 44.6787 17.7884 44.3141 17.8204C43.9182 17.8439 43.5315 17.9477 43.1783 18.1253C43.0014 18.2244 42.845 18.3553 42.7173 18.5112C42.5878 18.6579 42.4799 18.8181 42.3681 18.9686C42.2643 19.1182 42.1409 19.2538 42.0013 19.3719C41.8635 19.4802 41.7056 19.5608 41.5363 19.6093C41.372 19.656 41.2109 19.7127 41.0538 19.7791C40.9087 19.8488 40.7762 19.9414 40.6614 20.0531C40.4569 20.2572 40.299 20.502 40.1985 20.771C40.1163 20.9914 40.0616 21.2208 40.0356 21.4542C40.0101 21.6607 40.0023 21.8401 39.9984 21.9829C39.9944 22.1257 39.9984 22.2415 39.9984 22.3187V22.4056C39.9944 22.4133 39.9944 22.4133 39.9964 22.4133Z" fill="#263238"/>
<path d="M46.7975 28.1158L45.6734 28.5886L45.5656 28.633C45.6245 28.8269 45.7089 29.0125 45.8166 29.1849C45.8657 29.259 45.9306 29.3216 46.0068 29.3682C46.0831 29.4149 46.1688 29.4446 46.258 29.4551C46.4034 29.4563 46.5455 29.4124 46.6641 29.3297C46.7568 29.2614 46.8336 29.1744 46.8894 29.0746C46.9453 28.9747 46.9788 28.8643 46.9878 28.7507C47.0005 28.6378 46.9903 28.5235 46.9576 28.4144C46.925 28.3054 46.8705 28.2039 46.7975 28.1158Z" fill="#4CA9EE"/>
<path d="M46.1914 29.4706C46.3449 29.4627 46.494 29.4169 46.6249 29.3374C46.7585 29.2429 46.8559 29.107 46.9015 28.9515C46.9598 28.7612 46.9508 28.5571 46.876 28.3725C46.8588 28.3237 46.8371 28.2766 46.8112 28.2317C46.8018 28.2123 46.7899 28.1941 46.7759 28.1776C46.7642 28.1776 46.7759 28.1776 46.7504 28.1776L46.4778 28.2973L46.005 28.5018C45.8635 28.5733 45.7141 28.6283 45.5597 28.6659C45.6899 28.5759 45.8292 28.4996 45.9756 28.4381L46.4385 28.2162C46.5288 28.1738 46.6131 28.1332 46.719 28.0869C46.7398 28.0789 46.7624 28.0768 46.7843 28.0809C46.8061 28.085 46.8264 28.0951 46.8426 28.1101C46.8662 28.1322 46.8854 28.1584 46.8995 28.1873C46.9274 28.2367 46.951 28.2884 46.9701 28.3417C47.0517 28.5466 47.0586 28.773 46.9898 28.9823C46.9328 29.1534 46.817 29.2994 46.6622 29.3953C46.559 29.4583 46.4403 29.4924 46.3189 29.4937C46.275 29.4985 46.2306 29.4904 46.1914 29.4706Z" fill="#263238"/>
<path d="M52.1922 27.7685C52.2792 27.7955 52.3613 27.8359 52.4355 27.8881C52.6407 28.0309 52.7874 28.2409 52.8494 28.4805C52.896 28.6453 52.902 28.8186 52.8671 28.9861C52.8254 29.1779 52.738 29.3571 52.612 29.5091C52.4742 29.6801 52.2938 29.8131 52.0883 29.8951C51.867 29.982 51.6242 30.0008 51.3919 29.9491C51.1598 29.9008 50.9463 29.7891 50.7759 29.6268C50.6164 29.4747 50.5053 29.2803 50.4561 29.0672C50.4151 28.8884 50.4162 28.7028 50.4594 28.5245C50.5026 28.3462 50.5867 28.18 50.7053 28.0386C50.8014 27.935 50.9174 27.851 51.0466 27.7916C51.1427 27.7451 51.2451 27.7126 51.3507 27.6951C51.4157 27.6853 51.4818 27.6853 51.5468 27.6951C51.5705 27.6975 51.5936 27.7033 51.6155 27.7125C51.5272 27.6978 51.437 27.6978 51.3487 27.7125C51.2472 27.734 51.149 27.7684 51.0564 27.8148C50.9328 27.8751 50.8223 27.9583 50.7308 28.0598C50.6193 28.1972 50.541 28.3577 50.5019 28.5292C50.4628 28.7008 50.4639 28.8788 50.5052 29.0498C50.5528 29.2516 50.6591 29.4354 50.8112 29.5786C50.9746 29.733 51.1783 29.8399 51.3997 29.8874C51.6204 29.9356 51.8507 29.9174 52.0608 29.8353C52.2471 29.7614 52.4127 29.6447 52.5438 29.495C52.6749 29.3452 52.7675 29.1668 52.8141 28.9746C52.8475 28.8144 52.8441 28.6489 52.8043 28.4902C52.7441 28.259 52.6057 28.0549 52.412 27.9113C52.342 27.8589 52.2686 27.8112 52.1922 27.7685Z" fill="#E0E0E0"/>
<path d="M47.335 25.8869C47.3354 25.9738 47.3703 26.0571 47.4323 26.1191C47.4942 26.1811 47.5782 26.2168 47.6665 26.2189C47.7099 26.2217 47.7535 26.216 47.7946 26.202C47.8357 26.1881 47.8736 26.1661 47.9059 26.1375C47.9383 26.1089 47.9645 26.0742 47.983 26.0355C48.0015 25.9968 48.012 25.9548 48.0137 25.912C48.0132 25.8248 47.978 25.7412 47.9157 25.6792C47.8534 25.6172 47.7689 25.5816 47.6802 25.5801C47.6369 25.5772 47.5934 25.5829 47.5524 25.5969C47.5114 25.6109 47.4737 25.6329 47.4415 25.6615C47.4093 25.6901 47.3832 25.7248 47.3649 25.7636C47.3466 25.8023 47.3364 25.8442 47.335 25.8869Z" fill="#263238"/>
<path d="M43.9413 25.8502C43.9413 25.9376 43.9763 26.0214 44.0387 26.0836C44.1011 26.1457 44.186 26.1811 44.2748 26.1822C44.3181 26.185 44.3615 26.1793 44.4026 26.1653C44.4436 26.1513 44.4813 26.1294 44.5135 26.1007C44.5457 26.0721 44.5718 26.0374 44.5901 25.9987C44.6084 25.9599 44.6185 25.918 44.62 25.8753C44.6195 25.7881 44.5844 25.7045 44.522 25.6425C44.4597 25.5805 44.3752 25.5449 44.2865 25.5434C44.2432 25.5405 44.1998 25.5462 44.1588 25.5602C44.1177 25.5742 44.08 25.5962 44.0478 25.6248C44.0156 25.6534 43.9896 25.6881 43.9713 25.7269C43.953 25.7656 43.9428 25.8076 43.9413 25.8502Z" fill="#263238"/>
<path d="M43.4547 25.0281C43.4979 25.086 43.7941 24.8622 44.1923 24.8815C44.5905 24.9008 44.8671 25.1458 44.9142 25.0918C44.9378 25.0686 44.8966 24.9664 44.7769 24.8544C44.6207 24.7108 44.4176 24.6266 44.204 24.6171C43.9905 24.6075 43.7804 24.6732 43.6117 24.8023C43.4822 24.9046 43.4351 25.0011 43.4547 25.0281Z" fill="#263238"/>
<path d="M46.8975 25.0667C46.9485 25.1188 47.2388 24.8737 47.6626 24.8506C48.0863 24.8274 48.41 25.0436 48.4472 24.9799C48.4688 24.9548 48.4139 24.8583 48.2726 24.7618C48.0854 24.6381 47.8623 24.5778 47.6371 24.5901C47.4138 24.6014 47.201 24.6864 47.0328 24.8313C46.9132 24.9432 46.872 25.0436 46.8975 25.0667Z" fill="#263238"/>
<g opacity="0.3">
<path opacity="0.3" d="M44.7318 50.2718C43.8647 51.0746 43.7882 52.3792 43.7745 53.5525C43.7451 55.9609 43.7294 58.3963 43.1742 60.7429C42.9369 61.7483 42.5995 62.7499 42.6407 63.7804C42.6779 64.6507 42.9839 65.4844 43.286 66.3007L43.0683 66.4937C43.0232 66.8893 43.6019 67.1305 43.9413 66.9144C44.2806 66.6983 44.3689 66.2351 44.2983 65.8434C44.2277 65.4516 44.0295 65.0927 43.9197 64.7106C43.545 63.3964 44.2159 62.0475 44.5631 60.7275C45.4576 57.3426 44.2159 53.7339 44.7318 50.2718Z" fill="black"/>
</g>
<path d="M41.7128 48.9441C41.7128 48.9441 49.8302 52.8037 54.5599 49.1255L54.3225 48.178C54.3225 48.178 49.1456 51.2811 42.4425 47.9271L41.7128 48.9441Z" fill="#455A64"/>
<path d="M45.2929 48.7492C45.3466 48.7861 45.3919 48.8336 45.4257 48.8888C45.4595 48.944 45.4811 49.0056 45.4891 49.0695L44.9948 48.9441C44.9948 48.9441 45.1988 48.7569 45.2929 48.7492Z" fill="#263238"/>
<path d="M43.9138 48.5736C43.7203 48.9085 43.5713 49.2665 43.4705 49.6388C42.5426 53.2032 43.5215 57.2847 42.4897 60.876C42.1758 61.9799 41.6697 63.1223 41.9737 64.2281C42.1836 64.9865 42.7584 65.6619 42.7211 66.4454L42.9173 66.4242L43.8001 66.3721C43.7017 65.6088 43.4984 64.8623 43.1959 64.1528C42.8231 63.352 43.4509 61.7502 43.702 60.8606C43.9531 59.971 44.1865 57.5626 44.1865 55.7486C44.1865 53.9345 44.469 49.6774 45.0006 48.9557L45.2831 48.7492L44.3023 48.4906C44.2405 48.4745 44.1759 48.4717 44.113 48.4824C44.05 48.4931 43.9901 48.5169 43.9374 48.5523L43.9138 48.5736Z" fill="#455A64"/>
<path d="M43.9393 48.5581C43.8663 48.7519 43.7818 48.9414 43.6863 49.1255C43.6211 49.3223 43.5451 49.5156 43.4587 49.7044C43.4465 49.4906 43.4925 49.2774 43.5921 49.0869C43.6598 48.8842 43.7794 48.7021 43.9393 48.5581Z" fill="#263238"/>
<path d="M44.9967 48.9749C44.9458 49.1653 44.8842 49.3528 44.8123 49.5365C44.7718 49.7289 44.7207 49.9189 44.6593 50.1058C44.6199 49.9053 44.6389 49.6979 44.7142 49.5076C44.7568 49.3079 44.8546 49.1236 44.9967 48.9749Z" fill="#263238"/>
<path d="M42.729 66.4454L42.7054 66.073L43.753 66.0054L43.8079 66.3721L42.729 66.4454Z" fill="#E0E0E0"/>
<path d="M43.2018 65.4748C43.2018 65.5018 43.0664 65.5423 42.8899 65.5655C42.7133 65.5886 42.5681 65.5828 42.5662 65.5558C42.5642 65.5288 42.7015 65.4883 42.8781 65.4651C43.0546 65.442 43.2018 65.4477 43.2018 65.4748Z" fill="#263238"/>
<path d="M42.8094 65.0617C42.8094 65.0888 42.729 65.1293 42.6132 65.1525C42.4975 65.1756 42.4171 65.1737 42.4033 65.1525C42.3896 65.1312 42.4818 65.0849 42.5995 65.0598C42.7172 65.0347 42.7976 65.0367 42.8094 65.0617Z" fill="#263238"/>
<path d="M43.1664 64.5813C43.0107 64.6559 42.8412 64.6986 42.6681 64.7067C42.5009 64.7484 42.327 64.7576 42.1561 64.7337C42.4793 64.6176 42.8227 64.5657 43.1664 64.5813Z" fill="#263238"/>
<path d="M42.417 64.3246C42.417 64.3535 42.3307 64.3805 42.2208 64.3863C42.111 64.3921 42.0247 64.3728 42.0247 64.3458C42.0247 64.3188 42.1129 64.2918 42.2208 64.286C42.3287 64.2802 42.417 64.2898 42.417 64.3246Z" fill="#263238"/>
<path d="M42.2797 63.8209C42.2797 63.8479 42.2032 63.8903 42.0835 63.8961C41.9638 63.9019 41.8873 63.873 41.8873 63.846C41.8873 63.8189 41.9756 63.8035 42.0835 63.7958C42.1914 63.7881 42.2738 63.7938 42.2797 63.8209Z" fill="#263238"/>
<path d="M42.368 63.4041C42.368 63.4311 42.264 63.4542 42.1365 63.4542C42.009 63.4542 41.905 63.4311 41.905 63.4041C41.905 63.3771 42.009 63.3539 42.1365 63.3539C42.264 63.3539 42.368 63.3751 42.368 63.4041Z" fill="#263238"/>
<path d="M42.4053 62.8657C42.4053 62.8927 42.3072 62.912 42.1915 62.9081C42.0757 62.9042 41.9796 62.8792 41.9796 62.8521C41.9796 62.8251 42.0777 62.8039 42.1934 62.8078C42.3092 62.8116 42.4053 62.8367 42.4053 62.8657Z" fill="#263238"/>
<path d="M42.8781 62.4604C42.8781 62.4893 42.6937 62.499 42.47 62.4835C42.2464 62.4681 42.0659 62.4334 42.0679 62.4044C42.3385 62.3572 42.6168 62.3765 42.8781 62.4604Z" fill="#263238"/>
<path d="M42.6132 61.9606C42.6132 61.9896 42.5151 62.0011 42.4014 61.9876C42.2876 61.9741 42.2052 61.9413 42.2052 61.9143C42.2052 61.8873 42.3033 61.8738 42.4171 61.8873C42.5308 61.9008 42.6132 61.9336 42.6132 61.9606Z" fill="#263238"/>
<path d="M42.8545 61.3758C42.8545 61.4028 42.7407 61.4105 42.6112 61.3951C42.4818 61.3797 42.3758 61.3411 42.3797 61.3141C42.3837 61.287 42.4935 61.2774 42.623 61.2948C42.7525 61.3121 42.8584 61.3488 42.8545 61.3758Z" fill="#263238"/>
<path d="M42.8801 60.8934C42.8801 60.9204 42.7879 60.93 42.6839 60.9127C42.5799 60.8953 42.5015 60.8586 42.5054 60.8316C42.5093 60.8046 42.5976 60.795 42.7016 60.8123C42.8055 60.8297 42.884 60.8664 42.8801 60.8934Z" fill="#263238"/>
<path d="M42.9663 60.4437C42.9565 60.4708 42.8859 60.4688 42.8074 60.4611C42.7289 60.4534 42.6603 60.4457 42.6544 60.4187C42.6485 60.3916 42.7211 60.353 42.8172 60.3627C42.9133 60.3723 42.9761 60.4187 42.9663 60.4437Z" fill="#263238"/>
<path d="M43.5941 60.0442C43.4493 60.0848 43.2973 60.0933 43.1488 60.0693C42.9979 60.0754 42.8474 60.0497 42.7074 59.9941C43.003 59.9439 43.3063 59.9611 43.5941 60.0442Z" fill="#263238"/>
<path d="M43.2292 59.4287C43.2292 59.4576 43.1527 59.4827 43.0546 59.4846C42.9565 59.4866 42.88 59.4673 42.88 59.4383C42.88 59.4094 42.9565 59.3862 43.0526 59.3843C43.1488 59.3824 43.2272 59.4017 43.2292 59.4287Z" fill="#263238"/>
<path d="M43.3979 58.9096C43.3979 58.9385 43.2901 58.9578 43.1586 58.9559C43.0272 58.9539 42.9232 58.9269 42.9232 58.8999C42.9232 58.8729 43.0311 58.8517 43.1625 58.8555C43.294 58.8594 43.3979 58.8864 43.3979 58.9096Z" fill="#263238"/>
<path d="M43.1292 58.5525C43.2256 58.5525 43.3038 58.5301 43.3038 58.5024C43.3038 58.4746 43.2256 58.4522 43.1292 58.4522C43.0328 58.4522 42.9546 58.4746 42.9546 58.5024C42.9546 58.5301 43.0328 58.5525 43.1292 58.5525Z" fill="#263238"/>
<path d="M43.3783 57.9871C43.3783 58.0161 43.29 58.0373 43.1821 58.0373C43.0742 58.0373 42.986 58.0161 42.986 57.9871C42.986 57.9582 43.0762 57.9369 43.1821 57.9369C43.2881 57.9369 43.3783 57.9601 43.3783 57.9871Z" fill="#263238"/>
<path d="M43.3783 57.5201C43.3783 57.549 43.2842 57.5702 43.1665 57.5702C43.0488 57.5702 42.9546 57.549 42.9546 57.5201C42.9546 57.4911 43.0488 57.4699 43.1665 57.4699C43.2842 57.4699 43.3783 57.4931 43.3783 57.5201Z" fill="#263238"/>
<path d="M43.7117 56.7636C43.7117 56.7926 43.5489 56.808 43.3527 56.8447C43.1566 56.8813 42.9761 56.8447 42.978 56.8254C42.98 56.8061 43.1409 56.781 43.337 56.7443C43.4604 56.7076 43.5929 56.7145 43.7117 56.7636Z" fill="#263238"/>
<path d="M43.3783 56.2195C43.3783 56.2465 43.3077 56.2696 43.2233 56.2696C43.139 56.2696 43.0664 56.2465 43.0664 56.2195C43.0664 56.1924 43.137 56.1693 43.2233 56.1693C43.3097 56.1693 43.3783 56.1847 43.3783 56.2195Z" fill="#263238"/>
<path d="M43.3666 55.7023C43.3666 55.7312 43.3038 55.7524 43.2292 55.7524C43.1547 55.7524 43.0919 55.7312 43.0919 55.7023C43.0919 55.6733 43.1527 55.6521 43.2292 55.6521C43.3057 55.6521 43.3666 55.6753 43.3666 55.7023Z" fill="#263238"/>
<path d="M43.2469 55.2121C43.3336 55.2121 43.4038 55.1896 43.4038 55.1619C43.4038 55.1342 43.3336 55.1118 43.2469 55.1118C43.1602 55.1118 43.09 55.1342 43.09 55.1619C43.09 55.1896 43.1602 55.2121 43.2469 55.2121Z" fill="#263238"/>
<path d="M43.3292 54.6583C43.3292 54.6872 43.2664 54.7104 43.1919 54.7104C43.1173 54.7104 43.0546 54.6872 43.0546 54.6583C43.0546 54.6293 43.1154 54.6081 43.1919 54.6081C43.2684 54.6081 43.3292 54.6409 43.3292 54.6583Z" fill="#263238"/>
<path d="M43.7648 54.1931C43.7648 54.1931 43.7412 54.2105 43.7 54.2163H43.6824V54.1603H43.6942H43.7353H43.8354V54.2452C43.7569 54.2452 43.6608 54.2452 43.5588 54.2452C43.3832 54.2611 43.2061 54.2441 43.037 54.1951C43.2059 54.1449 43.3832 54.1279 43.5588 54.1449C43.6608 54.1449 43.755 54.1449 43.8354 54.1449V54.2298H43.7353H43.6942H43.6824V54.1738H43.7079C43.7412 54.1758 43.7667 54.1835 43.7648 54.1931Z" fill="#263238"/>
<path d="M43.2469 53.7396C43.3498 53.7396 43.4333 53.7171 43.4333 53.6894C43.4333 53.6617 43.3498 53.6392 43.2469 53.6392C43.144 53.6392 43.0605 53.6617 43.0605 53.6894C43.0605 53.7171 43.144 53.7396 43.2469 53.7396Z" fill="#263238"/>
<path d="M43.4489 53.0449C43.4489 53.0719 43.3645 53.0951 43.2527 53.0951C43.1409 53.0951 43.0565 53.0719 43.0565 53.0449C43.0565 53.0179 43.1389 52.9947 43.2527 52.9947C43.3665 52.9947 43.4489 53.016 43.4489 53.0449Z" fill="#263238"/>
<path d="M43.4744 52.4853C43.4744 52.5142 43.3841 52.5316 43.2782 52.5258C43.1723 52.52 43.082 52.493 43.082 52.4659C43.082 52.4389 43.1723 52.4196 43.2782 52.4254C43.3841 52.4312 43.4763 52.4582 43.4744 52.4853Z" fill="#263238"/>
<path d="M43.5136 51.8774C43.5136 51.9045 43.4214 51.916 43.3174 51.9045C43.2134 51.8929 43.1212 51.8601 43.1212 51.8331C43.1212 51.806 43.2134 51.7925 43.3174 51.8041C43.4214 51.8157 43.5175 51.8485 43.5136 51.8774Z" fill="#263238"/>
<path d="M44.2905 51.4548C43.9174 51.4903 43.5408 51.457 43.1802 51.3564C43.3657 51.324 43.5557 51.324 43.7412 51.3564C43.9288 51.3569 44.1148 51.3903 44.2905 51.4548Z" fill="#263238"/>
<path d="M43.7432 50.6751C43.7432 50.7022 43.647 50.7215 43.5333 50.7195C43.4195 50.7176 43.3273 50.6887 43.3273 50.6616C43.3273 50.6346 43.4214 50.6153 43.5372 50.6192C43.6529 50.623 43.7432 50.6481 43.7432 50.6751Z" fill="#263238"/>
<path d="M43.8373 50.2371C43.8373 50.2641 43.7295 50.266 43.6118 50.2371C43.4941 50.2081 43.4038 50.1695 43.4156 50.1406C43.4274 50.1116 43.5215 50.1136 43.6392 50.1406C43.7569 50.1676 43.8432 50.2023 43.8373 50.2371Z" fill="#263238"/>
<path d="M44.0119 49.5366C44.0119 49.5636 43.8903 49.5501 43.7608 49.5057C43.6313 49.4613 43.5352 49.4054 43.5431 49.3803C43.5509 49.3552 43.6647 49.3668 43.7942 49.4111C43.9236 49.4555 44.0217 49.5115 44.0119 49.5366Z" fill="#263238"/>
<path d="M44.1983 49.0657C44.1983 49.0907 44.0806 49.0849 43.9609 49.029C43.8413 48.973 43.7648 48.8939 43.7824 48.8707C43.8001 48.8476 43.8942 48.8862 44.0061 48.9383C44.1179 48.9904 44.2062 49.0444 44.1983 49.0657Z" fill="#263238"/>
<path d="M44.5455 48.7396C44.5298 48.7627 44.4297 48.7183 44.3218 48.6411C44.2139 48.5639 44.1414 48.4848 44.159 48.4617C44.1767 48.4385 44.2748 48.4829 44.3826 48.5601C44.4905 48.6373 44.5631 48.7164 44.5455 48.7396Z" fill="#263238"/>
<path d="M45.7363 49.635C45.7088 49.635 45.6775 49.5347 45.6873 49.4054C45.6971 49.2761 45.7481 49.1796 45.7736 49.1873C45.7991 49.195 45.7991 49.2934 45.7893 49.4131C45.7795 49.5327 45.7657 49.6331 45.7363 49.635Z" fill="#263238"/>
<path d="M45.2361 49.4304C45.2067 49.4304 45.1968 49.3532 45.2106 49.2645C45.2243 49.1757 45.2577 49.1101 45.2851 49.1159C45.3126 49.1217 45.3244 49.1931 45.3106 49.2818C45.2969 49.3706 45.2635 49.4304 45.2361 49.4304Z" fill="#263238"/>
<path d="M46.3032 50.266C46.2274 49.945 46.2506 49.6091 46.3699 49.3011C46.3956 49.461 46.3956 49.6238 46.3699 49.7836C46.3756 49.947 46.353 50.1101 46.3032 50.266Z" fill="#263238"/>
<path d="M47.0173 49.8318C46.9899 49.8318 46.9604 49.7334 46.9526 49.606C46.9447 49.4787 46.9526 49.3744 46.9899 49.3725C47.0271 49.3706 47.0467 49.4729 47.0546 49.6002C47.0624 49.7276 47.0467 49.8318 47.0173 49.8318Z" fill="#263238"/>
<path d="M47.7372 49.8589C47.7097 49.8589 47.6842 49.7759 47.6823 49.6659C47.6803 49.5559 47.698 49.4729 47.7274 49.4729C47.7568 49.4729 47.7804 49.5579 47.7843 49.6659C47.7882 49.774 47.7666 49.8589 47.7372 49.8589Z" fill="#263238"/>
<path d="M48.3472 49.965C48.3197 49.965 48.2942 49.8569 48.2922 49.7218C48.2903 49.5867 48.3099 49.4767 48.3393 49.4767C48.3688 49.4767 48.3923 49.5848 48.3943 49.7199C48.3962 49.855 48.3766 49.9631 48.3472 49.965Z" fill="#263238"/>
<path d="M48.9475 49.911C48.92 49.911 48.8906 49.8261 48.8828 49.718C48.8749 49.6099 48.8828 49.525 48.92 49.525C48.9573 49.525 48.9769 49.6099 48.9848 49.718C48.9926 49.8261 48.975 49.909 48.9475 49.911Z" fill="#263238"/>
<path d="M49.6164 50.4107C49.5036 50.1172 49.4561 49.8033 49.4772 49.4902C49.5492 49.6313 49.59 49.7859 49.5968 49.9437C49.638 50.0961 49.6447 50.2555 49.6164 50.4107Z" fill="#263238"/>
<path d="M50.1913 49.8724C50.1658 49.882 50.1049 49.7913 50.0794 49.662C50.0539 49.5327 50.0794 49.4247 50.0991 49.4247C50.1187 49.4247 50.154 49.5212 50.1795 49.6408C50.205 49.7605 50.2187 49.8627 50.1913 49.8724Z" fill="#263238"/>
<path d="M50.766 49.7276C50.7385 49.7276 50.6954 49.6504 50.6699 49.5346C50.6444 49.4188 50.6463 49.3416 50.6699 49.3262C50.6934 49.3107 50.7405 49.4034 50.766 49.5192C50.7915 49.635 50.7935 49.7218 50.766 49.7276Z" fill="#263238"/>
<path d="M51.3251 49.689C51.2976 49.689 51.2564 49.5983 51.2329 49.4748C51.2094 49.3513 51.2133 49.2471 51.2329 49.2413C51.2525 49.2355 51.3015 49.332 51.3251 49.4555C51.3486 49.579 51.3526 49.6832 51.3251 49.689Z" fill="#263238"/>
<path d="M51.794 49.5693C51.7665 49.5693 51.7253 49.4883 51.7037 49.3763C51.6821 49.2644 51.6861 49.1679 51.7037 49.1621C51.7214 49.1563 51.7724 49.2432 51.794 49.3551C51.8155 49.467 51.8214 49.5654 51.794 49.5693Z" fill="#263238"/>
<path d="M52.3353 50.0557C52.2642 49.898 52.2249 49.7282 52.2196 49.5558C52.1807 49.3879 52.1761 49.2141 52.2059 49.0444C52.2759 49.2024 52.3152 49.372 52.3216 49.5443C52.3592 49.7123 52.3639 49.8859 52.3353 50.0557Z" fill="#263238"/>
<path d="M52.8728 49.1854C52.8473 49.195 52.7983 49.1255 52.7669 49.031C52.7355 48.9364 52.7296 48.8515 52.7669 48.838C52.8042 48.8245 52.8414 48.8998 52.8728 48.9943C52.9042 49.0889 52.9003 49.1777 52.8728 49.1854Z" fill="#263238"/>
<path d="M53.4417 48.9634C53.4142 48.9634 53.375 48.9132 53.3515 48.8322C53.3279 48.7511 53.3338 48.6817 53.3515 48.6739C53.3691 48.6662 53.4182 48.726 53.4417 48.8071C53.4652 48.8882 53.4692 48.9576 53.4417 48.9634Z" fill="#263238"/>
<path d="M53.991 48.78C53.9635 48.78 53.9223 48.7163 53.8988 48.6218C53.8752 48.5272 53.8792 48.4462 53.8988 48.4385C53.9184 48.4307 53.9674 48.5041 53.991 48.5986C54.0145 48.6932 54.0165 48.7742 53.991 48.78Z" fill="#263238"/>
<path d="M43.0997 48.8051C43.0762 48.7916 43.1154 48.6816 43.1899 48.562C43.2645 48.4423 43.341 48.3555 43.3645 48.369C43.3881 48.3825 43.3508 48.4925 43.2763 48.6122C43.2017 48.7318 43.1252 48.8206 43.0997 48.8051Z" fill="#263238"/>
<path d="M42.5289 48.4655C42.5092 48.4463 42.5622 48.3633 42.6466 48.2841C42.7309 48.205 42.8153 48.1549 42.8427 48.1741C42.8702 48.1934 42.8094 48.2764 42.725 48.3555C42.6407 48.4347 42.5485 48.4868 42.5289 48.4655Z" fill="#263238"/>
<g opacity="0.3">
<path opacity="0.3" d="M45.0319 48.9383C44.9607 49.0326 44.9039 49.1366 44.8632 49.2471C44.7682 49.4954 44.7068 49.755 44.6808 50.019L44.9456 50.0924C44.9456 50.0924 45.1418 49.1583 45.2359 49.0097L45.0319 48.9383Z" fill="black"/>
</g>
<path d="M41.8129 32.7512C41.6108 32.2185 41.5085 31.6543 41.5108 31.0858C41.5137 30.8015 41.5825 30.5216 41.7121 30.2674C41.8416 30.0132 42.0284 29.7915 42.2582 29.6191C42.6412 29.4021 43.0737 29.2839 43.5156 29.2756C44.0629 29.2293 44.6691 29.2332 45.085 29.5825C45.4047 29.8488 45.5499 30.2637 45.6578 30.6612C45.799 31.1784 45.901 31.7342 45.7323 32.2417C45.4773 33.004 44.6357 33.4768 43.8197 33.4845C43.0785 33.5038 42.3582 33.2411 41.809 32.7512" fill="#FF5E5E"/>
<g opacity="0.3">
<path opacity="0.3" d="M44.8692 29.6192C44.6244 29.4499 44.3251 29.3744 44.0277 29.4069C44.0056 29.4084 43.9843 29.4156 43.9659 29.4277C43.9475 29.4398 43.9327 29.4564 43.9228 29.4759C43.9129 29.4954 43.9083 29.517 43.9095 29.5388C43.9107 29.5605 43.9176 29.5816 43.9296 29.5999L43.9413 29.6134C43.9695 29.6381 44.0024 29.657 44.0381 29.669C44.0738 29.6809 44.1117 29.6856 44.1493 29.6828C44.2244 29.679 44.2997 29.679 44.3749 29.6828C44.4622 29.6946 44.5456 29.7264 44.6181 29.7757C44.6907 29.825 44.7505 29.8903 44.7927 29.9665C44.8765 30.1185 44.9373 30.2817 44.9732 30.4509C44.9831 30.5012 45.0031 30.5491 45.032 30.5918C45.0467 30.6126 45.0669 30.629 45.0904 30.6393C45.114 30.6495 45.1399 30.6531 45.1654 30.6497C45.24 30.6362 45.2733 30.5493 45.2831 30.4741C45.2976 30.3082 45.2669 30.1416 45.1942 29.9913C45.1214 29.841 45.0093 29.7126 44.8692 29.6192Z" fill="white"/>
</g>
<g opacity="0.3">
<path opacity="0.3" d="M42.2346 29.9973C42.2817 29.9433 42.3818 29.9973 42.3916 30.0649C42.3919 30.1361 42.3653 30.2048 42.317 30.2579C42.2038 30.3889 42.1352 30.5515 42.1209 30.7229C42.1209 30.8947 42.2994 31.0703 42.4622 31.0086C42.5897 30.9603 42.6348 30.8156 42.6839 30.6882C42.7509 30.5183 42.8539 30.3644 42.986 30.2366C43.0387 30.1786 43.1065 30.1359 43.1821 30.1131C43.22 30.1038 43.2598 30.1058 43.2965 30.1189C43.3332 30.1319 43.3651 30.1555 43.3881 30.1865C43.4038 30.2264 43.4096 30.2694 43.4052 30.312C43.4007 30.3546 43.3862 30.3955 43.3626 30.4315C43.2694 30.5821 43.203 30.7472 43.1664 30.9198C43.1515 31.0063 43.1697 31.0953 43.2176 31.1694C43.2654 31.2435 43.3394 31.2976 43.4254 31.3212C43.4781 31.3245 43.5308 31.3158 43.5795 31.2957C43.6282 31.2756 43.6714 31.2447 43.7059 31.2054C43.7738 31.1271 43.8305 31.0401 43.8746 30.9468C44.0279 30.6716 44.21 30.4128 44.418 30.1749C44.4847 30.0958 44.5887 30.0128 44.6828 30.0572C44.777 30.1016 44.7711 30.2173 44.7593 30.3119C44.7263 30.5761 44.6604 30.8354 44.5632 31.0838C44.467 31.2673 44.4103 31.4683 44.3964 31.6743C44.3964 31.8789 44.5691 32.0989 44.777 32.0796C44.8983 32.0483 45.0127 31.9953 45.1144 31.9233C45.2243 31.8654 45.3871 31.8538 45.4518 31.9599C45.4758 32.0077 45.4847 32.0615 45.4773 32.1143C45.458 32.292 45.3971 32.4628 45.2994 32.6135C45.2017 32.7642 45.0699 32.8905 44.9143 32.9827C44.5986 33.1644 44.2329 33.244 43.8687 33.2105C43.5063 33.1759 43.1516 33.0861 42.8173 32.9441C42.4252 32.8219 42.0821 32.5816 41.8364 32.2571C41.5637 31.8306 41.6167 31.2729 41.7776 30.7943" fill="black"/>
</g>
<path d="M42.576 35.3198C42.576 35.3198 41.2028 33.6756 41.2028 33.444C41.2028 33.2125 40.8889 31.356 40.8889 31.356L41.4774 30.119L42.3798 29.8681C42.4043 29.8954 42.422 29.9279 42.4314 29.9631C42.4409 29.9983 42.4418 30.0352 42.4342 30.0708C42.4266 30.1065 42.4106 30.1398 42.3875 30.1683C42.3645 30.1968 42.3349 30.2195 42.3013 30.2348C42.164 30.3145 42.0386 30.4126 41.9286 30.5262L41.7324 31.163L41.9875 32.3035L41.9678 31.0086L42.7349 29.8681C42.7349 29.8681 43.1076 29.7137 43.2841 29.9646C43.4607 30.2155 43.1664 30.5648 43.1664 30.5648L42.8918 31.1823C42.8918 31.1823 43.0487 32.5853 43.0684 32.5698C43.088 32.5544 43.4215 31.0665 43.4215 31.0665L44.3258 29.6172C44.3731 29.6101 44.4215 29.6134 44.4675 29.6267C44.5134 29.6401 44.5558 29.6633 44.5915 29.6946C44.6273 29.726 44.6556 29.7647 44.6745 29.808C44.6933 29.8513 44.7022 29.8982 44.7005 29.9453C44.7005 30.312 44.2473 31.163 44.2473 31.163L44.0315 32.73H44.2866L44.8182 32.0526L45.7794 30.9507C45.8229 30.9558 45.8646 30.971 45.901 30.995C45.9374 31.019 45.9674 31.0512 45.9887 31.0889C46.0099 31.1266 46.0218 31.1687 46.0233 31.2118C46.0247 31.2549 46.0158 31.2977 45.9972 31.3367C45.8991 31.686 45.0163 33.2318 45.0163 33.2318C45.0163 33.2318 45.4675 34.8759 45.4086 35.6286L45.3498 36.3831L42.576 35.3198Z" fill="#FFBE9D"/>
<path d="M42.3425 34.6811C42.3425 34.6811 40.5966 34.6811 40.01 37.5101C39.0763 42.0162 41.3185 45.6153 42.2405 46.5184C42.2405 46.5184 43.5901 48.6624 45.6518 48.0758C47.7136 47.4891 46.6817 43.8071 46.6817 43.8071L45.2183 35.316L42.3425 34.6811Z" fill="#FFBE9D"/>
<path d="M41.3833 33.799C41.4171 33.8283 41.4474 33.8613 41.4735 33.8974L41.7188 34.1966L42.6054 35.3062C42.7188 35.9279 42.7766 36.5581 42.7781 37.1897C42.775 37.5603 42.7475 37.9303 42.6957 38.2974C42.6381 38.687 42.5602 39.0735 42.4622 39.4553C42.2661 40.2773 42.0228 41.0454 41.8384 41.7517C41.7388 42.0819 41.6596 42.4176 41.601 42.7571C41.5511 43.0506 41.5458 43.3498 41.5854 43.6448C41.6403 43.8847 41.7118 44.1207 41.7992 44.3511C41.8595 44.5284 41.9295 44.7024 42.0091 44.8722C42.0605 44.9786 42.1208 45.0806 42.1896 45.1771C42.2162 45.2086 42.241 45.2414 42.2641 45.2755C42.2641 45.2755 42.2543 45.2755 42.2386 45.2562C42.2147 45.236 42.193 45.2133 42.1739 45.1887C42.0977 45.0962 42.032 44.9959 41.9777 44.8896C41.8899 44.7216 41.8132 44.5482 41.7482 44.3704C41.6544 44.1381 41.5777 43.8995 41.5187 43.6564C41.4147 43.0968 41.554 42.4271 41.7501 41.7266C41.9463 41.0261 42.1641 40.2465 42.3681 39.4302C42.4642 39.0442 42.5466 38.6582 42.6015 38.2723C42.653 37.909 42.6811 37.5429 42.6859 37.1762C42.6889 36.5499 42.6391 35.9244 42.5368 35.3062V35.3216L41.6776 34.1927C41.5814 34.0653 41.5069 33.9611 41.448 33.882C41.4237 33.8566 41.402 33.8288 41.3833 33.799Z" fill="#4CA9EE"/>
<path d="M44.2808 32.6412C44.3073 32.5956 44.3396 32.5534 44.3769 32.5158L44.6672 32.1742L45.7501 30.9295V30.9179H45.7638C45.8201 30.9135 45.8766 30.9249 45.9266 30.9507C45.9779 30.9803 46.0157 31.0279 46.0326 31.0839C46.0587 31.1906 46.0498 31.3028 46.0071 31.4042C45.9288 31.6068 45.8384 31.8046 45.7363 31.9967C45.5402 32.3981 45.2989 32.8188 45.0439 33.2588V33.2202C45.0635 33.2607 45.087 33.3032 45.1106 33.3476V33.3591V33.4865C45.2302 34.1156 45.3362 34.8026 45.4421 35.5128L46.1581 40.5727C46.2542 41.2115 46.3327 41.7306 46.3896 42.105C46.4151 42.2767 46.4367 42.4157 46.4543 42.5199C46.4643 42.5681 46.4696 42.6173 46.47 42.6665C46.4533 42.6201 46.4408 42.5723 46.4327 42.5237C46.4131 42.4195 46.3837 42.2825 46.3504 42.1108C46.2817 41.7518 46.1895 41.2288 46.0875 40.5843C45.8795 39.2913 45.6304 37.4966 45.342 35.5263C45.2361 34.8181 45.1302 34.133 45.0144 33.5039C45.0144 33.4614 45.0144 33.419 45.0144 33.3804V33.4016L44.9497 33.2723L44.9379 33.2491L44.9497 33.2279C45.2067 32.7898 45.444 32.3691 45.65 31.9735C45.7512 31.7857 45.8416 31.5924 45.9207 31.3946C45.9584 31.3096 45.968 31.2151 45.9482 31.1244C45.9361 31.0869 45.911 31.0548 45.8773 31.0336C45.8436 31.0125 45.8035 31.0036 45.7638 31.0086L45.7873 30.9951L44.677 32.2206L44.373 32.5486C44.3442 32.5813 44.3134 32.6123 44.2808 32.6412Z" fill="#4CA9EE"/>
<path d="M44.7926 27.7356C44.5305 27.8285 44.2792 27.9489 44.0432 28.0946C43.8069 28.2419 43.6237 28.4586 43.5194 28.714C43.436 28.966 43.4429 29.2384 43.5391 29.4859C43.935 29.3652 44.2902 29.1411 44.567 28.8375C44.6966 28.6878 44.7854 28.5081 44.8248 28.3153C44.8643 28.1225 44.8532 27.923 44.7926 27.7356Z" fill="#455A64"/>
<path d="M42.572 28.278C42.572 28.2664 42.6701 28.278 42.8113 28.3417C42.9929 28.4298 43.1518 28.5571 43.2763 28.7141C43.4024 28.8704 43.4897 29.0534 43.5313 29.2487C43.5543 29.3282 43.5543 29.4124 43.5313 29.4918C43.4615 29.239 43.3502 28.9991 43.2017 28.7817C43.0223 28.58 42.8093 28.4097 42.572 28.278Z" fill="#263238"/>
<path d="M44.6651 28.0579C44.6847 28.0792 44.3826 28.3551 44.0766 28.743C43.7706 29.1309 43.5587 29.4821 43.5312 29.4667C43.632 29.1772 43.79 28.9103 43.9962 28.6812C44.1744 28.4314 44.4019 28.2195 44.6651 28.0579Z" fill="#263238"/>
<path d="M43.182 29.3934C43.182 29.4223 42.9623 29.4358 42.7171 29.5284C42.4719 29.6211 42.2953 29.7523 42.2757 29.7214C42.2561 29.6905 42.4111 29.5284 42.6798 29.4281C42.8365 29.3534 43.0163 29.341 43.182 29.3934Z" fill="white"/>
<path d="M52.967 49.6967C52.967 49.6967 52.7708 49.1834 53.2044 49.1409C53.3888 49.1255 53.6614 49.1236 53.9145 49.1274C54.1036 49.1305 54.287 49.1917 54.4389 49.3025C54.5909 49.4132 54.7039 49.5679 54.762 49.745L54.9424 50.3027L55.5427 50.8932H56.2058L57.2415 53.0604C57.2415 53.0604 56.3509 53.7995 55.833 53.5582C55.3152 53.317 55.2328 53.3653 55.2328 53.3653C55.2328 53.3653 53.1828 54.5463 53.0376 54.4845C52.8925 54.4228 52.6453 54.2067 53.0376 53.8747C53.43 53.5428 54.8032 52.6107 54.8032 52.6107L52.1961 53.566C52.1961 53.566 51.7606 53.4656 52.0097 53.1414C52.2588 52.8172 54.452 51.8098 54.452 51.8098L54.2872 51.6342C54.2872 51.6342 52.1745 52.4062 52.0293 52.3058C51.8842 52.2055 51.5448 52.0009 51.9332 51.7269C52.3216 51.4528 54.2245 50.7079 54.2245 50.7079L53.9341 50.0364L53.6438 49.8936C53.6438 49.8936 53.0278 49.882 52.967 49.6967Z" fill="#FFBE9D"/>
<path d="M56.8669 51.6805C56.7823 51.5168 56.6825 51.3611 56.5687 51.2155C56.4306 51.0913 56.2808 50.9801 56.1215 50.8835C56.3215 50.9081 56.5063 51.0016 56.6428 51.1476C56.7793 51.2935 56.8587 51.4824 56.8669 51.6805Z" fill="#4CA9EE"/>
<path d="M55.1681 51.065C55.031 50.9504 54.8785 50.855 54.715 50.7813C54.5412 50.7389 54.3624 50.7194 54.1833 50.7234C54.1833 50.7119 54.2344 50.6771 54.3383 50.6559C54.476 50.6298 54.6182 50.6405 54.7503 50.6868C54.8819 50.7317 54.9991 50.8103 55.0897 50.9145C55.1505 50.9955 55.1681 51.0573 55.1681 51.065Z" fill="#4CA9EE"/>
<path d="M55.1897 51.8427C55.174 51.8678 55.0092 51.7713 54.7855 51.7809C54.5619 51.7906 54.3932 51.8948 54.3834 51.8716C54.3736 51.8485 54.5168 51.6786 54.7757 51.6786C55.0347 51.6786 55.2132 51.8253 55.1897 51.8427Z" fill="#4CA9EE"/>
<path d="M55.5604 52.5683C55.5506 52.5953 55.3544 52.5529 55.1151 52.5876C54.8758 52.6223 54.6992 52.715 54.6835 52.6899C54.6678 52.6648 54.8346 52.5239 55.1014 52.4969C55.1786 52.4762 55.2595 52.4719 55.3386 52.4842C55.4178 52.4965 55.4933 52.5252 55.5604 52.5683Z" fill="#4CA9EE"/>
<path d="M33.3325 25.7942L21.731 26.4773C21.6626 26.4813 21.5955 26.4985 21.5339 26.528C21.4722 26.5575 21.417 26.5988 21.3716 26.6494C21.3262 26.7 21.2914 26.7589 21.2693 26.8228C21.2471 26.8867 21.2381 26.9542 21.2426 27.0215L22.243 42.7031C22.247 42.77 22.2644 42.8355 22.2942 42.8958C22.324 42.9562 22.3656 43.0101 22.4167 43.0546C22.4677 43.099 22.5271 43.1331 22.5916 43.1549C22.6561 43.1768 22.7243 43.1858 22.7923 43.1817L34.4585 42.5217C34.5272 42.518 34.5944 42.5009 34.6563 42.4715C34.7182 42.4421 34.7736 42.4009 34.8192 42.3503C34.8648 42.2997 34.8998 42.2406 34.922 42.1766C34.9443 42.1127 34.9534 42.045 34.9489 41.9775L33.8837 26.2728C33.8747 26.1376 33.8116 26.0114 33.7083 25.9218C33.6051 25.8321 33.47 25.7863 33.3325 25.7942Z" fill="#263238"/>
<path d="M22.0959 27.0969L22.9375 41.5028C22.9375 41.5028 30.6607 41.4487 34.6253 40.4453C34.4187 39.5147 34.2764 38.5714 34.1996 37.622C33.8759 33.5694 33.4267 26.4716 33.4267 26.4716L22.0959 27.0969Z" fill="white"/>
<path d="M26.1192 39.6308C26.0918 39.6308 25.8701 37.4829 25.6268 34.8295C25.3836 32.176 25.207 30.0204 25.2345 30.0185C25.262 30.0166 25.4836 32.1664 25.7269 34.8198C25.9701 37.4733 26.1467 39.6289 26.1192 39.6308Z" fill="#263238"/>
<path d="M28.6244 39.517C28.5969 39.517 28.3752 37.3691 28.132 34.7157C27.8887 32.0622 27.7122 29.9066 27.7396 29.9047C27.7671 29.9028 27.9888 32.0506 28.234 34.706C28.4792 37.3614 28.6538 39.5151 28.6244 39.517Z" fill="#263238"/>
<path d="M31.1315 39.3954C31.102 39.3954 30.8823 37.2476 30.6371 34.5941C30.3919 31.9406 30.2173 29.7851 30.2448 29.7831C30.2722 29.7812 30.4939 31.9291 30.7372 34.5844C30.9804 37.2398 31.1589 39.3954 31.1315 39.3954Z" fill="#263238"/>
<path d="M33.3698 39.2391C33.3424 39.2391 33.1207 37.0912 32.8775 34.4378C32.6342 31.7843 32.4577 29.6287 32.4851 29.6268C32.5126 29.6249 32.7343 31.7746 32.9795 34.4281C33.2247 37.0816 33.3934 39.2372 33.3698 39.2391Z" fill="#263238"/>
<path d="M32.9773 29.814C32.9773 29.843 30.7959 30.0707 28.1006 30.3235C25.4052 30.5763 23.214 30.7615 23.212 30.7345C23.2101 30.7075 25.3915 30.4779 28.0908 30.2231C30.7901 29.9684 32.9754 29.787 32.9773 29.814Z" fill="#263238"/>
<path d="M32.9224 31.0548C32.9224 31.0838 30.7646 31.3096 28.081 31.5624C25.3974 31.8152 23.2337 31.9946 23.2317 31.9676C23.2297 31.9406 25.3896 31.7129 28.0712 31.462C30.7528 31.2111 32.9185 31.0278 32.9224 31.0548Z" fill="#263238"/>
<path d="M32.9893 32.2861C32.9893 32.3131 30.8471 32.537 28.1988 32.7859C25.5505 33.0349 23.4005 33.2201 23.3986 33.1873C23.3966 33.1545 25.5388 32.9364 28.189 32.6875C30.8393 32.4386 32.9854 32.2552 32.9893 32.2861Z" fill="#263238"/>
<path d="M33.0756 33.5135C33.0756 33.5405 30.9177 33.7663 28.2694 34.0152C25.6212 34.2642 23.4574 34.4456 23.4535 34.4185C23.4496 34.3915 25.6114 34.1657 28.2596 33.9149C30.9079 33.664 33.0717 33.4845 33.0756 33.5135Z" fill="#263238"/>
<path d="M33.1598 34.7368C33.1598 34.7639 31.0255 35.0032 28.385 35.2695C25.7446 35.5358 23.6044 35.7288 23.6005 35.7017C23.5965 35.6747 25.7348 35.4354 28.3752 35.1691C31.0157 34.9028 33.1559 34.7079 33.1598 34.7368Z" fill="#263238"/>
<path d="M33.4404 35.9315C33.4404 35.9585 31.2648 36.1862 28.5773 36.439C25.8898 36.6918 23.7064 36.8751 23.7025 36.8481C23.6986 36.8211 25.878 36.5934 28.5675 36.3387C31.257 36.0839 33.4384 35.9045 33.4404 35.9315Z" fill="#263238"/>
<path d="M33.6561 37.346C33.6561 37.3749 31.4433 37.6046 28.7087 37.8632C25.9741 38.1218 23.7534 38.307 23.7515 38.2781C23.7495 38.2491 25.9643 38.0195 28.6989 37.7628C31.4335 37.5061 33.6541 37.319 33.6561 37.346Z" fill="#263238"/>
<path d="M24.8598 31.2131C24.7042 31.2975 24.527 31.3358 24.3498 31.3231C24.1738 31.35 23.9936 31.3251 23.8319 31.2517C24.0019 31.2258 24.174 31.2161 24.3459 31.2227C24.5165 31.2031 24.6886 31.1999 24.8598 31.2131Z" fill="#FF725E"/>
<path d="M24.7854 32.3575C24.6533 32.4368 24.5026 32.4814 24.3479 32.4868C24.1972 32.5236 24.0391 32.519 23.8909 32.4733C24.0326 32.42 24.1825 32.3907 24.3342 32.3864C24.4817 32.3504 24.6345 32.3406 24.7854 32.3575Z" fill="#FF725E"/>
<path d="M24.8187 33.5172C24.6806 33.5843 24.5294 33.6212 24.3754 33.6253C24.2256 33.6611 24.0696 33.6644 23.9183 33.6349C24.0558 33.5662 24.2075 33.5292 24.3617 33.5269C24.5115 33.4911 24.6675 33.4878 24.8187 33.5172Z" fill="#FF725E"/>
<path d="M24.9148 34.8334C24.9148 34.8604 24.7736 34.899 24.5931 34.9202C24.4126 34.9414 24.2635 34.9356 24.2596 34.9086C24.2557 34.8816 24.4008 34.8411 24.5813 34.8199C24.7618 34.7986 24.9109 34.8044 24.9148 34.8334Z" fill="#FF725E"/>
<path d="M25.2719 35.9854C25.141 36.0677 24.9897 36.1131 24.8344 36.1167C24.6847 36.156 24.5271 36.156 24.3773 36.1167C24.5184 36.0606 24.6686 36.0299 24.8207 36.026C24.9676 35.9874 25.1202 35.9737 25.2719 35.9854Z" fill="#FF725E"/>
<path d="M25.164 37.4019C25.164 37.4289 25.0071 37.4695 24.807 37.4926C24.6069 37.5158 24.4402 37.5138 24.4362 37.4926C24.4323 37.4714 24.5932 37.4251 24.7952 37.4019C24.9973 37.3788 25.1542 37.373 25.164 37.4019Z" fill="#FF725E"/>
<path d="M25.2404 38.6235C25.2404 38.6486 25.103 38.7103 24.9128 38.7393C24.7225 38.7682 24.5675 38.7393 24.5675 38.7219C24.5675 38.7045 24.7146 38.666 24.899 38.6389C25.0834 38.6119 25.2325 38.6003 25.2404 38.6235Z" fill="#FF725E"/>
<path d="M28.0319 36.8481C27.7855 36.9331 27.5291 36.987 27.2688 37.0083C27.0111 37.0625 26.7471 37.0819 26.4841 37.0662C26.7305 36.9812 26.987 36.9281 27.2472 36.9079C27.5051 36.8549 27.7688 36.8348 28.0319 36.8481Z" fill="#263238"/>
<path d="M27.5669 37.2727C27.5669 37.2997 27.3943 37.3383 27.1746 37.3576C27.0414 37.3851 26.9034 37.3804 26.7725 37.3441C26.7725 37.3151 26.9451 37.2785 27.1648 37.2573C27.2981 37.2299 27.4362 37.2352 27.5669 37.2727Z" fill="#263238"/>
<path d="M30.4369 36.4852C30.1676 36.602 29.883 36.6812 29.5915 36.7206C29.3063 36.7916 29.0124 36.8221 28.7185 36.8113C28.9974 36.723 29.2836 36.6584 29.5738 36.6184C29.8568 36.5484 30.1457 36.5038 30.4369 36.4852Z" fill="#263238"/>
<path d="M30.1801 36.9832C29.9974 37.0577 29.8029 37.1008 29.6054 37.1106C29.4123 37.1535 29.2131 37.1626 29.0168 37.1376C29.2 37.0644 29.3942 37.022 29.5916 37.0121C29.7846 36.9692 29.9837 36.9594 30.1801 36.9832Z" fill="#263238"/>
<path d="M32.6086 36.4659C32.4405 36.5205 32.2635 36.5434 32.0868 36.5335C31.9111 36.5566 31.7326 36.5461 31.561 36.5026C31.729 36.4476 31.906 36.424 32.0828 36.4331C32.2586 36.4102 32.4372 36.4214 32.6086 36.4659Z" fill="#263238"/>
<path d="M32.4596 36.7033C32.1654 36.8054 31.852 36.8429 31.5415 36.8133C31.6832 36.747 31.8378 36.7114 31.9947 36.709C32.1473 36.6733 32.3061 36.6713 32.4596 36.7033Z" fill="#263238"/>
<path d="M32.2162 36.9831C32.2162 37.0121 32.0632 37.0507 31.8709 37.0931C31.6787 37.1356 31.5217 37.1703 31.5119 37.1433C31.5021 37.1163 31.6493 37.041 31.8474 36.9966C32.0455 36.9522 32.2162 36.9561 32.2162 36.9831Z" fill="#263238"/>
<path d="M32.9441 37.8902C32.7199 37.9694 32.4855 38.0175 32.2477 38.033C32.0145 38.0818 31.7752 38.0968 31.5376 38.0774C31.7619 37.9984 31.9963 37.9504 32.234 37.9346C32.4674 37.8869 32.7065 37.872 32.9441 37.8902Z" fill="#263238"/>
<path d="M32.9343 38.3224C32.7775 38.355 32.6179 38.3731 32.4576 38.3764C32.3009 38.4094 32.1412 38.4269 31.981 38.4285C32.1168 38.3329 32.2789 38.2798 32.4459 38.2761C32.6096 38.2411 32.7804 38.2573 32.9343 38.3224Z" fill="#263238"/>
<path d="M30.5488 38.4073C30.2737 38.5156 29.9831 38.5807 29.6876 38.6003C29.3957 38.6491 29.098 38.6536 28.8048 38.6138C29.0917 38.5537 29.3829 38.5156 29.6758 38.5C29.964 38.4476 30.2558 38.4167 30.5488 38.4073Z" fill="#263238"/>
<path d="M27.6005 38.5096C27.6005 38.5386 27.4553 38.5733 27.2709 38.5887C27.0865 38.6042 26.9355 38.5887 26.9335 38.5656C26.9315 38.5424 27.0787 38.5038 27.2631 38.4884C27.4475 38.473 27.5985 38.4826 27.6005 38.5096Z" fill="#263238"/>
<path d="M27.7476 35.6613C27.4914 35.7704 27.218 35.8357 26.9394 35.8543C26.6643 35.9024 26.3828 35.9024 26.1077 35.8543C26.3775 35.8001 26.6508 35.7646 26.9257 35.7481C27.1972 35.6996 27.4719 35.6705 27.7476 35.6613Z" fill="#263238"/>
<path d="M29.927 35.5648C29.7588 35.6291 29.5798 35.6618 29.3993 35.6613C29.2223 35.6937 29.0408 35.6937 28.8638 35.6613C29.032 35.597 29.211 35.5642 29.3915 35.5648C29.5685 35.5324 29.75 35.5324 29.927 35.5648Z" fill="#263238"/>
<path d="M30.6116 35.8774C30.4205 35.9355 30.2228 35.9699 30.0231 35.9797C29.8299 36.0211 29.632 36.0373 29.4346 36.0279C29.8079 35.8814 30.2126 35.8297 30.6116 35.8774Z" fill="#263238"/>
<path d="M32.3065 35.449C32.0347 35.5931 31.719 35.6356 31.4178 35.5686C31.5599 35.5198 31.7088 35.4931 31.8592 35.4895C32.0053 35.4534 32.1562 35.4397 32.3065 35.449Z" fill="#263238"/>
<path d="M32.5262 34.0961C32.5262 34.1251 32.3516 34.1656 32.1339 34.1907C31.9161 34.2158 31.7317 34.2119 31.7278 34.1907C31.8491 34.1293 31.9837 34.0976 32.1201 34.0981C32.2534 34.0659 32.3926 34.0652 32.5262 34.0961Z" fill="#263238"/>
<path d="M30.1996 34.5362C29.9335 34.6384 29.6542 34.7033 29.3698 34.7292C29.0906 34.7861 28.8045 34.803 28.5204 34.7794C28.7929 34.7042 29.0721 34.6545 29.3541 34.6308C29.6321 34.5723 29.9153 34.5406 30.1996 34.5362Z" fill="#263238"/>
<path d="M29.456 34.2969C29.456 34.3259 29.356 34.3568 29.2285 34.3664C29.101 34.3761 28.9931 34.3664 28.9911 34.3355C28.9892 34.3047 29.0912 34.2776 29.2187 34.2661C29.3462 34.2545 29.4521 34.2699 29.456 34.2969Z" fill="#263238"/>
<path d="M27.2531 34.8179C27.1212 34.8785 26.9787 34.9139 26.8333 34.9221C26.6941 34.9628 26.5483 34.9772 26.4037 34.9646C26.4037 34.9375 26.5783 34.8642 26.8176 34.8237C26.9596 34.7833 27.11 34.7813 27.2531 34.8179Z" fill="#263238"/>
<path d="M26.9197 33.6774C26.9197 33.7025 26.7726 33.7836 26.5568 33.8106C26.341 33.8376 26.1644 33.7971 26.1644 33.7701C26.285 33.732 26.4106 33.7118 26.5372 33.7102C26.751 33.6871 26.9197 33.6504 26.9197 33.6774Z" fill="#263238"/>
<path d="M27.673 33.1159C27.3834 33.1984 27.0853 33.2489 26.7843 33.2664C26.4871 33.3165 26.1851 33.3339 25.8839 33.3185C26.1732 33.2343 26.4714 33.1831 26.7726 33.1661C27.07 33.1172 27.3719 33.1004 27.673 33.1159Z" fill="#263238"/>
<path d="M29.8191 32.9827C29.6238 33.0558 29.4178 33.0975 29.209 33.1062C29.0037 33.1467 28.7931 33.1545 28.5852 33.1294C28.7805 33.0563 28.9865 33.0146 29.1953 33.0059C29.4006 32.9655 29.6112 32.9577 29.8191 32.9827Z" fill="#263238"/>
<path d="M30.2546 33.3686C29.9674 33.4436 29.675 33.4978 29.3797 33.5307C29.0898 33.5961 28.7954 33.6406 28.4989 33.6639C28.7726 33.5427 29.0638 33.4639 29.362 33.4304C29.6547 33.3654 29.9556 33.3445 30.2546 33.3686Z" fill="#263238"/>
<path d="M31.8867 33.2393C31.8867 33.2663 31.7416 33.3049 31.5572 33.3242C31.3728 33.3435 31.2178 33.3396 31.2158 33.3107C31.2139 33.2817 31.361 33.2451 31.5454 33.2258C31.7298 33.2065 31.8848 33.22 31.8867 33.2393Z" fill="#263238"/>
<path d="M32.3183 32.7067C32.3183 32.7337 32.1908 32.782 32.024 32.8148C31.8573 32.8476 31.716 32.8534 31.7102 32.8264C31.7043 32.7993 31.8357 32.7492 32.0044 32.7164C32.1731 32.6836 32.3124 32.6797 32.3183 32.7067Z" fill="#263238"/>
<path d="M29.8798 32.1819C29.6438 32.2408 29.4028 32.2789 29.1599 32.2957C28.9216 32.3449 28.6794 32.3733 28.436 32.3806C28.6582 32.2728 28.8992 32.2073 29.1462 32.1876C29.3882 32.1409 29.637 32.139 29.8798 32.1819Z" fill="#263238"/>
<path d="M29.3286 31.8229C29.3286 31.8499 29.1972 31.8731 29.0363 31.875C28.8755 31.8769 28.744 31.8538 28.744 31.8248C28.744 31.7959 28.8735 31.7747 29.0363 31.7727C29.1991 31.7708 29.3286 31.794 29.3286 31.8229Z" fill="#263238"/>
<path d="M32.0338 31.7264C32.0338 31.7535 31.8866 31.7998 31.6944 31.8287C31.5021 31.8577 31.3432 31.8596 31.3393 31.8287C31.3354 31.7978 31.4864 31.7554 31.6787 31.7264C31.8709 31.6975 32.0298 31.6994 32.0338 31.7264Z" fill="#263238"/>
<path d="M27.6062 32.0622C27.3101 32.1112 27.0099 32.1326 26.7097 32.1259C26.4103 32.1537 26.1088 32.1537 25.8093 32.1259C26.1021 32.0523 26.4036 32.0172 26.7058 32.0217C27.0064 31.9952 27.3093 32.0089 27.6062 32.0622Z" fill="#263238"/>
<path d="M27.3356 31.0741C27.3356 31.0741 27.3513 31.0606 27.3847 31.0529V31.0876C27.1638 31.1462 26.9389 31.1894 26.7118 31.2169C26.471 31.2681 26.224 31.2856 25.9781 31.269C26.2101 31.1868 26.4523 31.1355 26.6981 31.1165C26.9232 31.08 27.1507 31.0587 27.3788 31.0529V31.0876C27.3533 31.0857 27.3356 31.0799 27.3356 31.0741Z" fill="#263238"/>
<path d="M26.5509 30.8715C26.5509 30.9004 26.3744 30.941 26.1468 30.9641C26.0108 30.9965 25.8689 30.9965 25.7329 30.9641C25.9942 30.8695 26.2753 30.8403 26.5509 30.8792V30.8715Z" fill="#263238"/>
<path d="M29.7975 30.7365C29.5604 30.8193 29.3129 30.87 29.0619 30.887C28.8155 30.937 28.5634 30.9532 28.3125 30.9352C28.5501 30.8544 28.7974 30.8044 29.0481 30.7866C29.2946 30.7378 29.5466 30.7209 29.7975 30.7365Z" fill="#263238"/>
<path d="M29.5778 30.4314C29.4189 30.494 29.2486 30.5236 29.0775 30.5183C28.9106 30.5494 28.7389 30.5461 28.5734 30.5086C28.7313 30.447 28.8998 30.4162 29.0697 30.4179C29.2383 30.3902 29.4109 30.3948 29.5778 30.4314Z" fill="#263238"/>
<path d="M32.1397 30.6515C31.8713 30.7325 31.5941 30.7824 31.3138 30.8001C31.0369 30.849 30.7551 30.8652 30.4742 30.8483C30.7431 30.7664 31.0211 30.7165 31.3021 30.6998C31.5782 30.6497 31.8596 30.6335 32.1397 30.6515Z" fill="#263238"/>
<path d="M31.6925 30.3872C31.6925 30.4161 31.5414 30.4567 31.3492 30.4798C31.1569 30.503 30.9961 30.4991 30.9921 30.4798C30.9882 30.4605 31.1432 30.4103 31.3354 30.3872C31.5277 30.364 31.6885 30.3602 31.6925 30.3872Z" fill="#263238"/>
<path d="M24.7756 28.2836L25.1542 28.2624C25.2122 28.2531 25.2716 28.2558 25.3284 28.2705C25.3853 28.2852 25.4383 28.3114 25.4842 28.3476C25.5301 28.3837 25.5677 28.4289 25.5947 28.4803C25.6217 28.5316 25.6375 28.588 25.6409 28.6457C25.6444 28.7034 25.6354 28.7612 25.6148 28.8153C25.5941 28.8694 25.5621 28.9186 25.5208 28.9598C25.4796 29.001 25.43 29.0332 25.3753 29.0543C25.3206 29.0755 25.262 29.0851 25.2033 29.0825L24.8247 29.1037L24.7756 28.2836ZM25.1837 28.9281C25.2177 28.9262 25.251 28.9178 25.2816 28.9032C25.3123 28.8886 25.3398 28.8683 25.3625 28.8433C25.3851 28.8183 25.4026 28.7891 25.4138 28.7575C25.425 28.7259 25.4298 28.6924 25.4279 28.6589C25.426 28.6255 25.4174 28.5927 25.4026 28.5625C25.3878 28.5324 25.3671 28.5054 25.3417 28.483C25.3162 28.4607 25.2866 28.4436 25.2545 28.4325C25.2223 28.4215 25.1882 28.4168 25.1542 28.4187H24.9777L25.0071 28.9281H25.1837Z" fill="#263238"/>
<path d="M25.7603 28.2296L25.9564 28.218L26.0035 29.0382H25.8073L25.7603 28.2296Z" fill="#263238"/>
<path d="M26.8333 28.8375V28.9899L26.1879 29.0266L26.1409 28.2084L26.7706 28.1717V28.3242L26.3331 28.3492L26.3429 28.5268L26.7353 28.5056V28.6522L26.3429 28.6734V28.8664L26.8333 28.8375Z" fill="#263238"/>
<path d="M27.1315 28.3068L26.8647 28.3222V28.1678L27.5906 28.1273V28.2817L27.3238 28.2971L27.363 28.961L27.1668 28.9726L27.1315 28.3068Z" fill="#263238"/>
<path d="M28.7618 28.3589C28.7618 28.5519 28.6402 28.6638 28.4185 28.6754H28.2498L28.2635 28.9012L28.0673 28.9128L28.0203 28.0926L28.3812 28.0733C28.6048 28.0694 28.752 28.1756 28.7618 28.3589ZM28.5656 28.3705C28.5656 28.2798 28.497 28.2315 28.3694 28.2373H28.2125L28.2282 28.521H28.3851C28.5166 28.5152 28.5715 28.4593 28.5676 28.3705H28.5656Z" fill="#263238"/>
<path d="M28.8813 28.054H29.0775L29.1148 28.7179L29.5326 28.6947V28.8491L28.9225 28.8838L28.8813 28.054Z" fill="#263238"/>
<path d="M30.1938 28.6271L29.8014 28.6484L29.7386 28.8278L29.5425 28.8394L29.8622 28.0096L30.0584 27.998L30.4782 28.797L30.282 28.8085L30.1938 28.6271ZM30.1251 28.4863L29.976 28.1794L29.8603 28.5017L30.1251 28.4863Z" fill="#263238"/>
<path d="M31.2845 27.9209L31.3316 28.7391H31.1746L30.7293 28.2644L30.7588 28.7623H30.5626L30.5155 27.944L30.6744 27.9344L31.1177 28.4091L31.0883 27.9112L31.2845 27.9209Z" fill="#263238"/>
<path d="M24.3696 27.2551L24.3147 26.3577C24.3082 26.2431 24.3477 26.1305 24.4248 26.0442C24.5018 25.958 24.6102 25.9049 24.7266 25.8965L25.9762 25.8116L25.9409 25.3253C25.9364 25.2621 25.9448 25.1986 25.9657 25.1387C25.9866 25.0788 26.0195 25.0236 26.0625 24.9764C26.1055 24.9293 26.1577 24.8911 26.216 24.8642C26.2743 24.8372 26.3375 24.8221 26.4019 24.8197L28.7245 24.729C28.8453 24.7247 28.9633 24.7652 29.0552 24.8424C29.1471 24.9195 29.2062 25.0278 29.2208 25.1458L29.2718 25.5684L30.5273 25.5414C30.6376 25.5393 30.7447 25.5776 30.8278 25.649C30.9109 25.7203 30.9639 25.8196 30.9766 25.9274L31.0864 26.9193L24.3696 27.2551Z" fill="#455A64"/>
<path d="M27.6417 25.6688C27.5817 25.6774 27.5205 25.6683 27.4658 25.6426C27.4111 25.617 27.3654 25.5759 27.3344 25.5246C27.3035 25.4734 27.2887 25.4143 27.2919 25.3547C27.2952 25.2952 27.3163 25.238 27.3527 25.1903C27.3891 25.1426 27.439 25.1066 27.4962 25.0868C27.5534 25.0671 27.6152 25.0645 27.6739 25.0794C27.7326 25.0943 27.7854 25.1259 27.8258 25.1704C27.8662 25.2149 27.8922 25.2701 27.9006 25.3292C27.9118 25.4079 27.8909 25.4879 27.8423 25.5515C27.7938 25.6152 27.7217 25.6573 27.6417 25.6688Z" fill="#E0E0E0"/>
<path d="M27.6417 25.6688C27.6417 25.6514 27.7594 25.6399 27.8378 25.5009C27.8586 25.4626 27.8695 25.4199 27.8695 25.3764C27.8695 25.333 27.8586 25.2903 27.8378 25.252C27.8119 25.2072 27.7729 25.1711 27.7259 25.1484C27.6789 25.1257 27.626 25.1175 27.5742 25.1248C27.5223 25.1321 27.4739 25.1546 27.4352 25.1893C27.3965 25.224 27.3693 25.2694 27.3572 25.3195C27.3475 25.3616 27.3483 25.4053 27.3596 25.447C27.3709 25.4887 27.3923 25.5271 27.422 25.5588C27.5318 25.6727 27.6554 25.6514 27.6534 25.6688C27.6515 25.6862 27.6279 25.6881 27.575 25.6881C27.5022 25.687 27.4323 25.6595 27.3788 25.6109C27.3356 25.5723 27.3032 25.5235 27.2847 25.4691C27.2661 25.4148 27.2621 25.3566 27.2729 25.3002C27.2873 25.2301 27.3232 25.1661 27.3759 25.1167C27.4285 25.0674 27.4953 25.0351 27.5671 25.0243C27.6403 25.0151 27.7145 25.0288 27.7793 25.0634C27.8441 25.098 27.8961 25.1519 27.9281 25.2172C27.9545 25.2682 27.9672 25.3249 27.9648 25.3821C27.9624 25.4392 27.945 25.4948 27.9143 25.5434C27.8751 25.6073 27.8127 25.6541 27.7397 25.6746C27.6711 25.6804 27.6417 25.6746 27.6417 25.6688Z" fill="#263238"/>
<path d="M24.1733 39.4205C24.1439 39.4205 23.9497 37.3827 23.7359 34.8643C23.522 32.3459 23.373 30.3022 23.4024 30.3003C23.4318 30.2984 23.626 32.3362 23.8379 34.8566C24.0497 37.3769 24.1988 39.4186 24.1733 39.4205Z" fill="#263238"/>
<path d="M30.9942 26.5063C30.9942 26.5334 29.5073 26.6337 27.6593 26.7302C25.8114 26.8267 24.3245 26.8807 24.3245 26.8537C24.3245 26.8267 25.8134 26.7244 27.6593 26.6298C29.5053 26.5353 30.9923 26.4793 30.9942 26.5063Z" fill="#263238"/>
<path d="M62.0634 26.6346L64.3017 25.6832C65.7172 26.5402 67.4074 26.8454 69.04 26.5387C70.6726 26.2321 72.1296 25.3359 73.1246 24.0261C74.1196 22.7164 74.5806 21.0879 74.4171 19.4608C74.2536 17.8337 73.4773 16.3255 72.2408 15.2328C71.0044 14.1401 69.3972 13.5419 67.7351 13.5557C66.0731 13.5695 64.4764 14.1944 63.2589 15.3075C62.0414 16.4206 61.2912 17.9414 61.1556 19.571C61.0201 21.2007 61.509 22.8213 62.5264 24.1142L62.0634 26.6346Z" fill="white"/>
<path d="M62.0635 26.6338C62.0635 26.6338 62.0635 26.5817 62.089 26.4755C62.1145 26.3694 62.1361 26.2034 62.1714 25.995C62.246 25.5628 62.3578 24.9298 62.501 24.1058C62.5014 24.1027 62.5025 24.0999 62.5042 24.0973C62.5058 24.0947 62.5081 24.0925 62.5107 24.0909C62.5133 24.0893 62.5162 24.0882 62.5193 24.0877C62.5223 24.0873 62.5255 24.0875 62.5284 24.0884H62.5382L62.5069 24.1212C61.8034 23.2374 61.3439 22.1897 61.1729 21.0798C61.0037 20.0076 61.1075 18.9108 61.475 17.8876C61.8425 16.8645 62.4622 15.947 63.2786 15.2173C64.095 14.4876 65.0826 13.9685 66.153 13.7064C67.2234 13.4444 68.3432 13.4476 69.412 13.7157C70.4501 13.9705 71.411 14.4664 72.2141 15.1617C73.0172 15.8571 73.6392 16.7318 74.0279 17.7124C74.3981 18.6575 74.545 19.6731 74.4575 20.6823C74.3772 21.635 74.0817 22.5581 73.5924 23.384C72.7251 24.8602 71.3118 25.9497 69.6474 26.4254C69.4512 26.4698 69.2767 26.5219 69.0942 26.5585L68.5469 26.6396C68.3664 26.6627 68.1879 26.6608 68.0133 26.6724C67.8421 26.682 67.6705 26.682 67.4994 26.6724C66.3621 26.6219 65.257 26.2851 64.29 25.694H64.3097L62.6226 26.4022L62.1969 26.5778L62.0557 26.6338L64.2842 25.6689C64.2876 25.6675 64.2912 25.6667 64.2949 25.6667C64.2986 25.6667 64.3023 25.6675 64.3057 25.6689C65.2675 26.2452 66.3624 26.5713 67.4876 26.6164C67.6575 26.626 67.8278 26.626 67.9976 26.6164C68.1703 26.6048 68.3468 26.6048 68.5253 26.5817L69.0648 26.4987C69.2453 26.462 69.4257 26.4099 69.6121 26.3636C71.2527 25.8888 72.6444 24.8107 73.4982 23.3531C73.9836 22.5352 74.2759 21.6205 74.3535 20.6765C74.4385 19.6822 74.293 18.6819 73.9278 17.7509C73.5431 16.7775 72.9238 15.9107 72.1231 15.2248C71.3372 14.5429 70.3947 14.0588 69.3767 13.8142C68.045 13.4885 66.6434 13.5784 65.366 14.0715C64.0886 14.5645 62.9988 15.4363 62.2475 16.5659C61.4963 17.6955 61.1209 19.0271 61.1733 20.376C61.2258 21.7249 61.7035 23.0243 62.5402 24.0942C62.5424 24.0963 62.5441 24.0989 62.5453 24.1017C62.5465 24.1045 62.5471 24.1075 62.5471 24.1106C62.5471 24.1136 62.5465 24.1167 62.5453 24.1195C62.5441 24.1223 62.5424 24.1248 62.5402 24.127C62.536 24.1303 62.5308 24.1321 62.5255 24.1321C62.5201 24.1321 62.515 24.1303 62.5108 24.127L62.5481 24.1135C62.2401 25.7133 62.0949 26.4659 62.0635 26.6338Z" fill="#263238"/>
<path d="M64.4724 20.4411L65.3395 19.5881L67.0108 21.049L70.2888 17.9459L71.0931 18.7969L66.8853 22.6932L64.4724 20.4411Z" fill="#4CA9EE"/>
<line y1="2.2796" x2="100.49" y2="2.2796" stroke="#29E7CD" stroke-width="3.98718"/>
</svg>
