<svg width="351" height="116" viewBox="0 0 351 116" fill="none" xmlns="http://www.w3.org/2000/svg">
<line x1="7" y1="9.23599" x2="107.49" y2="9.23599" stroke="#29E7CD" stroke-width="3.98718"/>
<path d="M205.18 38.3215C205.18 41.7137 204.339 44.3209 202.657 46.1432C200.975 47.9655 198.564 48.8766 195.424 48.8766C192.284 48.8766 189.873 47.9655 188.191 46.1432C186.509 44.3209 185.668 41.7043 185.668 38.2934C185.668 34.8825 186.509 32.28 188.191 30.4857C189.883 28.6822 192.303 27.7804 195.452 27.7804C198.601 27.7804 201.008 28.6868 202.671 30.4997C204.344 32.3127 205.18 34.9199 205.18 38.3215ZM190.224 38.3215C190.224 40.611 190.658 42.3351 191.527 43.4939C192.396 44.6527 193.695 45.2321 195.424 45.2321C198.891 45.2321 200.625 42.9285 200.625 38.3215C200.625 33.7051 198.901 31.3969 195.452 31.3969C193.723 31.3969 192.42 31.9809 191.541 33.149C190.663 34.3078 190.224 36.032 190.224 38.3215ZM223.557 48.5962H219.282V39.4429C219.282 38.3121 219.081 37.4664 218.679 36.9057C218.277 36.3357 217.637 36.0506 216.759 36.0506C215.563 36.0506 214.698 36.4525 214.166 37.2561C213.633 38.0505 213.367 39.3728 213.367 41.2231V48.5962H209.091V32.9248H212.357L212.932 34.9293H213.17C213.647 34.1723 214.301 33.6023 215.133 33.2191C215.974 32.8266 216.927 32.6304 217.992 32.6304C219.815 32.6304 221.198 33.1257 222.141 34.1162C223.085 35.0975 223.557 36.5179 223.557 38.3775V48.5962ZM234.449 35.6722C233.542 35.6722 232.832 35.9619 232.318 36.5413C231.804 37.1113 231.51 37.9243 231.435 38.9803H237.434C237.416 37.9243 237.14 37.1113 236.607 36.5413C236.075 35.9619 235.355 35.6722 234.449 35.6722ZM235.051 48.8766C232.528 48.8766 230.557 48.1804 229.136 46.788C227.716 45.3956 227.005 43.4238 227.005 40.8726C227.005 38.2467 227.66 36.2189 228.968 34.7891C230.286 33.35 232.103 32.6304 234.421 32.6304C236.635 32.6304 238.36 33.2612 239.593 34.5227C240.827 35.7843 241.443 37.5271 241.443 39.7512V41.8258H231.337C231.384 43.0407 231.743 43.9892 232.416 44.6714C233.089 45.3535 234.033 45.6946 235.248 45.6946C236.192 45.6946 237.084 45.5965 237.925 45.4003C238.766 45.204 239.645 44.891 240.56 44.4611V47.7692C239.813 48.143 239.014 48.4187 238.163 48.5962C237.313 48.7831 236.276 48.8766 235.051 48.8766ZM243.532 42.6529V39.1485H251.059V42.6529H243.532ZM260.773 45.4704C261.521 45.4704 262.418 45.3068 263.465 44.9797V48.1617C262.399 48.6383 261.091 48.8766 259.54 48.8766C257.83 48.8766 256.582 48.4467 255.797 47.587C255.022 46.7179 254.634 45.419 254.634 43.6901V36.1348H252.587V34.3265L254.942 32.8967L256.176 29.5886H258.909V32.9248H263.297V36.1348H258.909V43.6901C258.909 44.2976 259.077 44.7461 259.414 45.0358C259.76 45.3255 260.213 45.4704 260.773 45.4704ZM270.053 40.7325C270.053 42.2837 270.305 43.4565 270.81 44.2508C271.324 45.0452 272.156 45.4423 273.305 45.4423C274.445 45.4423 275.263 45.0498 275.758 44.2649C276.263 43.4705 276.515 42.2931 276.515 40.7325C276.515 39.1812 276.263 38.0178 275.758 37.2421C275.253 36.4665 274.426 36.0787 273.277 36.0787C272.137 36.0787 271.315 36.4665 270.81 37.2421C270.305 38.0084 270.053 39.1719 270.053 40.7325ZM280.888 40.7325C280.888 43.2836 280.216 45.2788 278.87 46.7179C277.524 48.157 275.651 48.8766 273.249 48.8766C271.744 48.8766 270.417 48.5495 269.268 47.8954C268.119 47.2319 267.235 46.2834 266.619 45.0498C266.002 43.8163 265.694 42.3772 265.694 40.7325C265.694 38.172 266.362 36.1815 267.698 34.761C269.034 33.3406 270.913 32.6304 273.333 32.6304C274.838 32.6304 276.165 32.9575 277.314 33.6116C278.463 34.2658 279.347 35.2049 279.963 36.4291C280.58 37.6533 280.888 39.0878 280.888 40.7325ZM283.033 42.6529V39.1485H290.56V42.6529H283.033ZM312.61 38.3215C312.61 41.7137 311.769 44.3209 310.087 46.1432C308.405 47.9655 305.994 48.8766 302.854 48.8766C299.714 48.8766 297.303 47.9655 295.621 46.1432C293.939 44.3209 293.098 41.7043 293.098 38.2934C293.098 34.8825 293.939 32.28 295.621 30.4857C297.312 28.6822 299.733 27.7804 302.882 27.7804C306.031 27.7804 308.437 28.6868 310.101 30.4997C311.774 32.3127 312.61 34.9199 312.61 38.3215ZM297.653 38.3215C297.653 40.611 298.088 42.3351 298.957 43.4939C299.826 44.6527 301.125 45.2321 302.854 45.2321C306.321 45.2321 308.054 42.9285 308.054 38.3215C308.054 33.7051 306.33 31.3969 302.882 31.3969C301.153 31.3969 299.849 31.9809 298.971 33.149C298.093 34.3078 297.653 36.032 297.653 38.3215ZM330.987 48.5962H326.711V39.4429C326.711 38.3121 326.511 37.4664 326.109 36.9057C325.707 36.3357 325.067 36.0506 324.188 36.0506C322.992 36.0506 322.128 36.4525 321.595 37.2561C321.062 38.0505 320.796 39.3728 320.796 41.2231V48.5962H316.521V32.9248H319.787L320.362 34.9293H320.6C321.076 34.1723 321.731 33.6023 322.562 33.2191C323.403 32.8266 324.356 32.6304 325.422 32.6304C327.244 32.6304 328.627 33.1257 329.571 34.1162C330.515 35.0975 330.987 36.5179 330.987 38.3775V48.5962ZM341.878 35.6722C340.972 35.6722 340.262 35.9619 339.748 36.5413C339.234 37.1113 338.939 37.9243 338.865 38.9803H344.864C344.845 37.9243 344.57 37.1113 344.037 36.5413C343.504 35.9619 342.785 35.6722 341.878 35.6722ZM342.481 48.8766C339.958 48.8766 337.986 48.1804 336.566 46.788C335.145 45.3956 334.435 43.4238 334.435 40.8726C334.435 38.2467 335.089 36.2189 336.397 34.7891C337.715 33.35 339.533 32.6304 341.85 32.6304C344.065 32.6304 345.789 33.2612 347.023 34.5227C348.256 35.7843 348.873 37.5271 348.873 39.7512V41.8258H338.766C338.813 43.0407 339.173 43.9892 339.846 44.6714C340.519 45.3535 341.462 45.6946 342.677 45.6946C343.621 45.6946 344.514 45.5965 345.355 45.4003C346.196 45.204 347.074 44.891 347.99 44.4611V47.7692C347.242 48.143 346.443 48.4187 345.593 48.5962C344.743 48.7831 343.705 48.8766 342.481 48.8766ZM186.579 80.5962V60.1028H190.925V80.5962H186.579ZM210.213 80.5962H205.937V71.4429C205.937 70.3121 205.736 69.4664 205.335 68.9057C204.933 68.3357 204.293 68.0506 203.414 68.0506C202.218 68.0506 201.354 68.4525 200.821 69.2561C200.288 70.0505 200.022 71.3728 200.022 73.2231V80.5962H195.747V64.9248H199.013L199.587 66.9293H199.826C200.302 66.1723 200.956 65.6023 201.788 65.2191C202.629 64.8266 203.582 64.6304 204.648 64.6304C206.47 64.6304 207.853 65.1257 208.797 66.1162C209.741 67.0975 210.213 68.5179 210.213 70.3775V80.5962ZM221.216 77.4704C221.964 77.4704 222.861 77.3068 223.908 76.9797V80.1617C222.842 80.6383 221.534 80.8766 219.983 80.8766C218.273 80.8766 217.025 80.4467 216.24 79.587C215.464 78.7179 215.077 77.419 215.077 75.6901V68.1348H213.03V66.3265L215.385 64.8967L216.619 61.5886H219.352V64.9248H223.739V68.1348H219.352V75.6901C219.352 76.2976 219.52 76.7461 219.857 77.0358C220.202 77.3255 220.656 77.4704 221.216 77.4704ZM233.58 67.6722C232.673 67.6722 231.963 67.9619 231.449 68.5413C230.935 69.1113 230.641 69.9243 230.566 70.9803H236.565C236.547 69.9243 236.271 69.1113 235.738 68.5413C235.206 67.9619 234.486 67.6722 233.58 67.6722ZM234.182 80.8766C231.659 80.8766 229.687 80.1804 228.267 78.788C226.847 77.3956 226.136 75.4238 226.136 72.8726C226.136 70.2467 226.791 68.2189 228.099 66.7891C229.416 65.35 231.234 64.6304 233.552 64.6304C235.766 64.6304 237.491 65.2612 238.724 66.5227C239.958 67.7843 240.574 69.5271 240.574 71.7512V73.8258H230.468C230.514 75.0407 230.874 75.9892 231.547 76.6714C232.22 77.3535 233.164 77.6946 234.379 77.6946C235.322 77.6946 236.215 77.5965 237.056 77.4003C237.897 77.204 238.775 76.891 239.691 76.4611V79.7692C238.944 80.143 238.145 80.4187 237.294 80.5962C236.444 80.7831 235.407 80.8766 234.182 80.8766ZM252.798 64.6304C253.377 64.6304 253.858 64.6724 254.241 64.7566L253.919 68.7655C253.573 68.6721 253.153 68.6254 252.657 68.6254C251.293 68.6254 250.228 68.9758 249.461 69.6767C248.704 70.3775 248.326 71.3588 248.326 72.6203V80.5962H244.051V64.9248H247.289L247.919 67.56H248.13C248.616 66.6816 249.27 65.9761 250.092 65.4434C250.924 64.9014 251.826 64.6304 252.798 64.6304ZM267.039 80.5962L266.212 78.4656H266.1C265.381 79.3721 264.638 80.0028 263.871 80.3579C263.114 80.7037 262.124 80.8766 260.9 80.8766C259.395 80.8766 258.208 80.4467 257.339 79.587C256.479 78.7273 256.05 77.5031 256.05 75.9144C256.05 74.251 256.629 73.0268 257.788 72.2419C258.956 71.4475 260.713 71.0083 263.058 70.9242L265.778 70.8401V70.1533C265.778 68.5646 264.965 67.7703 263.339 67.7703C262.086 67.7703 260.615 68.1488 258.923 68.9057L257.507 66.0181C259.311 65.0743 261.311 64.6024 263.507 64.6024C265.609 64.6024 267.221 65.0603 268.343 65.9761C269.464 66.8919 270.025 68.2843 270.025 70.1533V80.5962H267.039ZM265.778 73.3352L264.124 73.3913C262.881 73.4287 261.956 73.6529 261.348 74.0641C260.741 74.4753 260.437 75.1014 260.437 75.9425C260.437 77.148 261.129 77.7507 262.512 77.7507C263.502 77.7507 264.292 77.4657 264.881 76.8956C265.479 76.3256 265.778 75.5687 265.778 74.6248V73.3352ZM280.804 80.8766C275.926 80.8766 273.487 78.1993 273.487 72.8446C273.487 70.1813 274.151 68.1488 275.478 66.747C276.805 65.3359 278.706 64.6304 281.183 64.6304C282.996 64.6304 284.622 64.9855 286.061 65.6957L284.799 69.0038C284.126 68.7328 283.5 68.5132 282.921 68.345C282.342 68.1675 281.762 68.0787 281.183 68.0787C278.959 68.0787 277.847 69.658 277.847 72.8166C277.847 75.8817 278.959 77.4143 281.183 77.4143C282.005 77.4143 282.767 77.3068 283.468 77.0919C284.169 76.8676 284.869 76.5218 285.57 76.0546V79.7131C284.879 80.1524 284.178 80.4561 283.468 80.6243C282.767 80.7925 281.879 80.8766 280.804 80.8766ZM295.817 77.4704C296.565 77.4704 297.462 77.3068 298.508 76.9797V80.1617C297.443 80.6383 296.135 80.8766 294.583 80.8766C292.873 80.8766 291.626 80.4467 290.841 79.587C290.065 78.7179 289.677 77.419 289.677 75.6901V68.1348H287.631V66.3265L289.986 64.8967L291.219 61.5886H293.953V64.9248H298.34V68.1348H293.953V75.6901C293.953 76.2976 294.121 76.7461 294.457 77.0358C294.803 77.3255 295.256 77.4704 295.817 77.4704ZM301.508 60.8737C301.508 59.4813 302.284 58.7851 303.835 58.7851C305.386 58.7851 306.162 59.4813 306.162 60.8737C306.162 61.5372 305.966 62.0559 305.573 62.4297C305.19 62.7941 304.611 62.9763 303.835 62.9763C302.284 62.9763 301.508 62.2755 301.508 60.8737ZM305.966 80.5962H301.69V64.9248H305.966V80.5962ZM313.871 72.7325C313.871 74.2837 314.124 75.4565 314.628 76.2508C315.142 77.0452 315.974 77.4423 317.124 77.4423C318.264 77.4423 319.081 77.0498 319.577 76.2649C320.081 75.4705 320.333 74.2931 320.333 72.7325C320.333 71.1812 320.081 70.0178 319.577 69.2421C319.072 68.4665 318.245 68.0787 317.095 68.0787C315.955 68.0787 315.133 68.4665 314.628 69.2421C314.124 70.0084 313.871 71.1719 313.871 72.7325ZM324.707 72.7325C324.707 75.2836 324.034 77.2788 322.688 78.7179C321.343 80.157 319.469 80.8766 317.067 80.8766C315.563 80.8766 314.236 80.5495 313.086 79.8954C311.937 79.2319 311.054 78.2834 310.437 77.0498C309.82 75.8163 309.512 74.3772 309.512 72.7325C309.512 70.172 310.18 68.1815 311.517 66.761C312.853 65.3406 314.731 64.6304 317.152 64.6304C318.656 64.6304 319.983 64.9575 321.132 65.6116C322.282 66.2658 323.165 67.2049 323.782 68.4291C324.399 69.6533 324.707 71.0878 324.707 72.7325ZM342.705 80.5962H338.43V71.4429C338.43 70.3121 338.229 69.4664 337.827 68.9057C337.425 68.3357 336.785 68.0506 335.907 68.0506C334.711 68.0506 333.846 68.4525 333.314 69.2561C332.781 70.0505 332.515 71.3728 332.515 73.2231V80.5962H328.239V64.9248H331.505L332.08 66.9293H332.318C332.795 66.1723 333.449 65.6023 334.281 65.2191C335.122 64.8266 336.075 64.6304 337.14 64.6304C338.963 64.6304 340.346 65.1257 341.29 66.1162C342.233 67.0975 342.705 68.5179 342.705 70.3775V80.5962Z" fill="black"/>
<path d="M33.8051 97.6187C41.2729 97.6187 47.3267 94.1243 47.3267 89.8138C47.3267 85.5032 41.2729 82.0089 33.8051 82.0089C26.3374 82.0089 20.2836 85.5032 20.2836 89.8138C20.2836 94.1243 26.3374 97.6187 33.8051 97.6187Z" fill="#E0E0E0"/>
<path d="M81.7122 97.6187C89.18 97.6187 95.2338 94.1243 95.2338 89.8138C95.2338 85.5032 89.18 82.0089 81.7122 82.0089C74.2445 82.0089 68.1907 85.5032 68.1907 89.8138C68.1907 94.1243 74.2445 97.6187 81.7122 97.6187Z" fill="#E0E0E0"/>
<path d="M57.8651 95.6808C65.3328 95.6808 71.3866 92.1864 71.3866 87.8759C71.3866 83.5653 65.3328 80.071 57.8651 80.071C50.3973 80.071 44.3435 83.5653 44.3435 87.8759C44.3435 92.1864 50.3973 95.6808 57.8651 95.6808Z" fill="#E0E0E0"/>
<path d="M63.6556 83.5977C60.4296 81.7476 55.1986 81.7476 51.9725 83.5977C50.3537 84.5227 49.5559 85.7484 49.5559 86.9694C49.5559 87.0966 49.5559 87.6377 49.5559 87.7834C49.579 88.986 50.3838 90.1816 51.9702 91.0973C55.1963 92.9613 60.4273 92.9613 63.6533 91.0973C65.2467 90.1723 66.0514 88.9744 66.0699 87.7672V86.9509C66.063 85.7368 65.2582 84.525 63.6556 83.5977Z" fill="#37474F"/>
<path d="M51.9726 90.3411C48.7489 88.4795 48.7489 85.4593 51.9726 83.5976C55.1963 81.736 60.4296 81.7476 63.6557 83.5976C66.8817 85.4477 66.8794 88.4795 63.6557 90.3411C60.4319 92.2027 55.1986 92.205 51.9726 90.3411Z" fill="#455A64"/>
<path d="M58.7622 86.3704V56.3302H56.8567V86.3704C56.851 86.4626 56.8743 86.5542 56.9232 86.6326C56.9721 86.7109 57.0442 86.772 57.1295 86.8075C57.3388 86.9135 57.5702 86.9688 57.8048 86.9688C58.0394 86.9688 58.2708 86.9135 58.4801 86.8075C58.5673 86.7738 58.6416 86.7134 58.6923 86.6349C58.743 86.5563 58.7675 86.4637 58.7622 86.3704Z" fill="#37474F"/>
<path d="M66.3521 46.7261C61.6368 44.0042 53.9915 44.0042 49.2761 46.7261C46.9173 48.0882 45.7402 49.8712 45.7402 51.6565V52.5353C45.7402 54.3183 46.9173 56.1036 49.2761 57.4634C53.9915 60.1876 61.6368 60.1876 66.3521 57.4634C68.7109 56.1036 69.888 54.3183 69.888 52.5353V51.6565C69.888 49.8712 68.7109 48.0882 66.3521 46.7261Z" fill="#455A64"/>
<path d="M66.3533 45.6626C61.638 42.9408 53.9927 42.9408 49.2774 45.6626C46.9186 47.0247 45.7415 48.8077 45.7415 50.593V51.4695C45.7415 53.2548 46.9186 55.0378 49.2774 56.3999C53.9927 59.1218 61.638 59.1218 66.3533 56.3999C68.7122 55.0378 69.8893 53.2548 69.8893 51.4695V50.593C69.8893 48.8077 68.7122 47.0247 66.3533 45.6626Z" fill="#4CA9EE"/>
<path opacity="0.4" d="M66.3533 45.6626C61.638 42.9408 53.9927 42.9408 49.2774 45.6626C46.9186 47.0247 45.7415 48.8077 45.7415 50.593V51.4695C45.7415 53.2548 46.9186 55.0378 49.2774 56.3999C53.9927 59.1218 61.638 59.1218 66.3533 56.3999C68.7122 55.0378 69.8893 53.2548 69.8893 51.4695V50.593C69.8893 48.8077 68.7122 47.0247 66.3533 45.6626Z" fill="black"/>
<path opacity="0.5" d="M57.8141 57.5651C64.4836 57.5651 69.8903 54.4435 69.8903 50.5927C69.8903 46.742 64.4836 43.6203 57.8141 43.6203C51.1446 43.6203 45.7379 46.742 45.7379 50.5927C45.7379 54.4435 51.1446 57.5651 57.8141 57.5651Z" fill="#4CA9EE"/>
<path d="M56.1952 49.2861C54.4377 48.2709 51.5909 48.2709 49.8334 49.2861V49.1035C48.9084 49.633 48.4782 50.3361 48.5198 51.0321C48.4782 51.7259 48.9153 52.4197 49.8334 52.9585C51.5909 53.9737 54.4377 53.9737 56.1952 52.9585C57.9528 51.9433 57.9597 50.2991 56.1952 49.2861Z" fill="#E0E0E0"/>
<path d="M56.1953 49.1035C57.9528 50.1164 57.9528 51.7629 56.1953 52.7758C54.4377 53.7887 51.591 53.791 49.8334 52.7758C48.0759 51.7606 48.0759 50.1164 49.8334 49.1035C51.591 48.0906 54.4447 48.0883 56.1953 49.1035Z" fill="#4CA9EE"/>
<path d="M56.1953 49.1035C57.9528 50.1164 57.9528 51.7629 56.1953 52.7758C54.4377 53.7887 51.591 53.791 49.8334 52.7758C48.0759 51.7606 48.0759 50.1164 49.8334 49.1035C51.591 48.0906 54.4447 48.0883 56.1953 49.1035Z" fill="#FAFAFA"/>
<path d="M50.8764 49.8596C49.6693 50.5534 49.6693 51.6865 50.8764 52.3849C52.0836 53.0833 54.04 53.0787 55.2472 52.3849C56.4543 51.6912 56.4543 50.558 55.2472 49.8596C54.04 49.1612 52.072 49.1635 50.8764 49.8596Z" fill="#E0E0E0"/>
<path d="M51.0129 49.9452C49.8889 50.5951 49.8889 51.6496 51.0129 52.2994C52.1368 52.9493 53.9614 52.9493 55.0876 52.2994C56.2138 51.6496 56.2138 50.5951 55.0876 49.9452C53.9614 49.2954 52.1391 49.2954 51.0129 49.9452Z" fill="#EBEBEB"/>
<path opacity="0.15" d="M50.1688 51.9618C50.1688 52.082 50.1804 52.2116 50.2937 52.2116L56.1907 52.1907C56.4359 52.1907 56.4706 52.0381 56.3549 51.6635C56.2393 51.2888 55.6034 50.1487 54.6251 49.9337L50.1688 51.9618Z" fill="black"/>
<path d="M50.1688 49.7455V52.0095C50.169 52.0277 50.1731 52.0457 50.1807 52.0623C50.1883 52.0789 50.1994 52.0937 50.2132 52.1057C50.2269 52.1177 50.2431 52.1267 50.2605 52.132C50.278 52.1374 50.2964 52.1389 50.3145 52.1367L55.5293 51.429C55.5937 51.4196 55.6525 51.3872 55.695 51.338C55.7374 51.2887 55.7607 51.2258 55.7606 51.1608V48.9661C55.7599 48.9465 55.7551 48.9273 55.7463 48.9097C55.7375 48.8921 55.725 48.8767 55.7097 48.8644L53.0364 46.8686C52.9859 46.83 52.9228 46.8116 52.8594 46.8171C52.7961 46.8227 52.7371 46.8518 52.6941 46.8987L50.2243 49.5975C50.189 49.6387 50.1694 49.6911 50.1688 49.7455Z" fill="#263238"/>
<path d="M54.2324 47.3142C53.857 47.0978 53.4612 46.9188 53.0507 46.78C52.9928 46.761 52.9307 46.759 52.8717 46.7741C52.8127 46.7893 52.7592 46.821 52.7177 46.8656L50.2155 49.6014C50.2119 49.6048 50.2095 49.6094 50.2087 49.6144C50.2079 49.6193 50.2087 49.6244 50.2111 49.6289C50.2134 49.6333 50.2172 49.6369 50.2217 49.639C50.2263 49.6411 50.2314 49.6417 50.2363 49.6407L55.6708 48.9053C55.7633 48.9053 55.7634 48.9562 55.7634 48.9562C55.7629 48.914 55.7543 48.8724 55.7379 48.8336C55.4087 48.1812 54.8818 47.6495 54.2324 47.3142Z" fill="#455A64"/>
<g opacity="0.7">
<path opacity="0.7" d="M50.3098 52.133L55.3974 51.4392V50.8079C55.3982 50.7766 55.392 50.7455 55.3794 50.7168C55.3668 50.6882 55.3479 50.6627 55.3243 50.6421C55.3007 50.6216 55.2728 50.6065 55.2427 50.598C55.2125 50.5894 55.1809 50.5877 55.15 50.5928L50.1687 51.2634V52.0058C50.1678 52.0239 50.171 52.0421 50.178 52.0588C50.1849 52.0756 50.1956 52.0907 50.2091 52.1028C50.2226 52.115 50.2386 52.124 50.256 52.1293C50.2735 52.1345 50.2918 52.1357 50.3098 52.133Z" fill="#4CA9EE"/>
<path opacity="0.7" d="M55.1504 50.2482C55.2183 50.2378 55.2804 50.2039 55.3256 50.1522C55.3709 50.1006 55.3965 50.0347 55.3979 49.966V49.5822C55.3987 49.5508 55.3925 49.5198 55.3799 49.4911C55.3672 49.4625 55.3484 49.437 55.3248 49.4164C55.3011 49.3959 55.2733 49.3808 55.2431 49.3723C55.213 49.3637 55.1813 49.362 55.1504 49.3671L50.1692 50.0377V50.9234L55.1504 50.2482Z" fill="#4CA9EE"/>
</g>
<path opacity="0.2" d="M53.3623 48.8398C53.9767 48.8398 54.4747 48.552 54.4747 48.1969C54.4747 47.8418 53.9767 47.554 53.3623 47.554C52.748 47.554 52.25 47.8418 52.25 48.1969C52.25 48.552 52.748 48.8398 53.3623 48.8398Z" fill="black"/>
<path d="M53.6353 47.0845C53.8523 47.1602 54.0525 47.2772 54.225 47.4291C54.3237 47.5201 54.3909 47.6403 54.4167 47.7722C54.4425 47.904 54.4255 48.0406 54.3683 48.1622C54.3144 48.2676 54.2327 48.3563 54.132 48.4187C54.0313 48.481 53.9155 48.5147 53.7971 48.516C53.8405 48.2863 53.8357 48.0501 53.7833 47.8222C53.6954 47.473 53.6353 47.0845 53.6353 47.0845Z" fill="#4CA9EE"/>
<path opacity="0.2" d="M53.6353 47.0845C53.8523 47.1602 54.0525 47.2772 54.225 47.4291C54.3237 47.5201 54.3909 47.6403 54.4167 47.7722C54.4425 47.904 54.4255 48.0406 54.3683 48.1622C54.3144 48.2676 54.2327 48.3563 54.132 48.4187C54.0313 48.481 53.9155 48.5147 53.7971 48.516C53.8405 48.2863 53.8357 48.0501 53.7833 47.8222C53.6954 47.473 53.6353 47.0845 53.6353 47.0845Z" fill="black"/>
<path d="M53.1889 47.066C53.1057 47.184 52.812 47.251 52.6154 47.3782C52.4555 47.4556 52.3313 47.5913 52.2685 47.7575C52.2351 47.8545 52.2375 47.9603 52.2753 48.0557C52.313 48.1511 52.3836 48.2299 52.4744 48.2778C52.7056 48.3819 53.1404 48.0257 53.1889 47.8962C53.2124 47.62 53.2124 47.3423 53.1889 47.066Z" fill="#9A4A4D"/>
<path d="M53.1889 47.066C53.1057 47.184 52.812 47.251 52.6154 47.3782C52.4555 47.4556 52.3313 47.5913 52.2685 47.7575C52.2351 47.8545 52.2375 47.9603 52.2753 48.0557C52.313 48.1511 52.3836 48.2299 52.4744 48.2778C52.7056 48.3819 53.1404 48.0257 53.1889 47.8962C53.2124 47.62 53.2124 47.3423 53.1889 47.066Z" fill="#4CA9EE"/>
<path opacity="0.3" d="M53.1889 47.066C53.1057 47.184 52.812 47.251 52.6154 47.3782C52.4555 47.4556 52.3313 47.5913 52.2685 47.7575C52.2351 47.8545 52.2375 47.9603 52.2753 48.0557C52.313 48.1511 52.3836 48.2299 52.4744 48.2778C52.7056 48.3819 53.1404 48.0257 53.1889 47.8962C53.2124 47.62 53.2124 47.3423 53.1889 47.066Z" fill="black"/>
<path d="M53.3184 46.8487C53.2639 46.8928 53.2217 46.9503 53.1958 47.0155C53.1698 47.0807 53.1611 47.1514 53.1704 47.221C53.1834 47.3593 53.1527 47.4981 53.0826 47.618C53.0124 47.7379 52.9065 47.8328 52.7796 47.8893C52.4258 48.079 52.3842 48.2663 52.5715 48.4305C52.6936 48.5274 52.849 48.5723 53.0039 48.5553C53.0039 48.5553 53.5266 48.4351 53.6353 48.042C53.744 47.6488 53.5381 47.0221 53.3184 46.8487Z" fill="#4CA9EE"/>
<path opacity="0.2" d="M53.3184 46.8487C53.2639 46.8928 53.2217 46.9503 53.1958 47.0155C53.1698 47.0807 53.1611 47.1514 53.1704 47.221C53.1834 47.3593 53.1527 47.4981 53.0826 47.618C53.0124 47.7379 52.9065 47.8328 52.7796 47.8893C52.4258 48.079 52.3842 48.2663 52.5715 48.4305C52.6936 48.5274 52.849 48.5723 53.0039 48.5553C53.0039 48.5553 53.5266 48.4351 53.6353 48.042C53.744 47.6488 53.5381 47.0221 53.3184 46.8487Z" fill="black"/>
<path d="M53.3623 48.6687C53.0224 48.6687 52.8836 48.5207 53.0432 48.3264C53.1218 48.2293 53.2629 48.19 53.3531 48.0951C53.4542 47.9955 53.5179 47.864 53.5334 47.7228C53.5635 47.3736 53.1426 47.0129 53.3877 46.7076C53.4155 46.8741 53.4849 46.9689 53.73 47.1701C53.8854 47.2966 53.9977 47.4682 54.0516 47.6612C54.1054 47.8542 54.0981 48.0591 54.0306 48.2478C53.9648 48.3695 53.8687 48.4721 53.7517 48.5458C53.6346 48.6196 53.5005 48.6619 53.3623 48.6687Z" fill="#4CA9EE"/>
<path opacity="0.1" d="M53.3623 48.6687C53.0224 48.6687 52.8836 48.5207 53.0432 48.3264C53.1218 48.2293 53.2629 48.19 53.3531 48.0951C53.4542 47.9955 53.5179 47.864 53.5334 47.7228C53.5635 47.3736 53.1426 47.0129 53.3877 46.7076C53.4155 46.8741 53.4849 46.9689 53.73 47.1701C53.8854 47.2966 53.9977 47.4682 54.0516 47.6612C54.1054 47.8542 54.0981 48.0591 54.0306 48.2478C53.9648 48.3695 53.8687 48.4721 53.7517 48.5458C53.6346 48.6196 53.5005 48.6619 53.3623 48.6687Z" fill="black"/>
<path opacity="0.2" d="M54.07 48.3195C54.1088 48.1936 54.1152 48.0599 54.0885 47.931C54.0621 48.057 53.9987 48.1722 53.9064 48.262C53.8142 48.3518 53.6972 48.4121 53.5705 48.4351C53.4583 48.4693 53.3406 48.4819 53.2236 48.4721C53.0895 48.4721 53.0132 48.4097 53.0201 48.3588L53.0363 48.3333L53.0595 48.3079L53.071 48.2963L53.1011 48.2732H53.115L53.1774 48.2339L53.2768 48.1691L53.293 48.1553C53.3026 48.1488 53.3111 48.141 53.3185 48.1321L53.3393 48.109C53.3508 48.0965 53.3616 48.0834 53.3717 48.0697L53.3878 48.0512C53.3968 48.0414 53.4046 48.0305 53.411 48.0188C53.4203 48.0063 53.4288 47.9931 53.4364 47.9795C53.4556 47.9466 53.4711 47.9117 53.4827 47.8755C53.484 47.8686 53.484 47.8615 53.4827 47.8546C53.4004 48.0155 53.2597 48.1387 53.0895 48.1992C52.9441 48.2629 52.7828 48.2806 52.627 48.2501C52.4813 48.2293 52.4767 48.1483 52.4767 48.1391C52.5494 48.052 52.6401 47.9818 52.7426 47.9333C52.7996 47.9038 52.8531 47.8681 52.9022 47.8269C52.8417 47.8653 52.7764 47.8956 52.7079 47.9171C52.597 47.9499 52.4809 47.9617 52.3657 47.9518C52.2362 47.924 52.2154 47.8616 52.2362 47.7714C52.2368 47.7814 52.2368 47.7914 52.2362 47.8014C52.2028 47.8985 52.2052 48.0042 52.2429 48.0997C52.2807 48.1951 52.3513 48.2738 52.442 48.3218C52.4605 48.382 52.4968 48.4352 52.5461 48.4744C52.6682 48.5713 52.8235 48.6162 52.9785 48.5993C53.0262 48.6435 53.083 48.6766 53.145 48.6962C53.207 48.7158 53.2726 48.7214 53.337 48.7126C53.4931 48.7025 53.6435 48.6497 53.7717 48.56C53.8987 48.5599 54.0229 48.5226 54.1289 48.4528C54.235 48.3829 54.3182 48.2835 54.3684 48.1668C54.4157 48.0716 54.4364 47.9653 54.4285 47.8593C54.4242 47.9638 54.3873 48.0643 54.323 48.1468C54.2587 48.2293 54.1703 48.2897 54.07 48.3195Z" fill="black"/>
<path d="M82.4175 94.839V65.1156H81.4416V94.839C81.4378 94.8874 81.4494 94.9359 81.4747 94.9774C81.5001 95.0189 81.5378 95.0514 81.5827 95.0702C81.69 95.1254 81.8089 95.1542 81.9296 95.1542C82.0502 95.1542 82.1692 95.1254 82.2765 95.0702C82.3213 95.0514 82.3591 95.0189 82.3844 94.9774C82.4097 94.9359 82.4213 94.8874 82.4175 94.839Z" fill="#37474F"/>
<path d="M89.3552 91.4997V63.0089H88.377V91.4997C88.373 91.5479 88.3843 91.5961 88.4092 91.6376C88.4341 91.6791 88.4713 91.7117 88.5158 91.7309C88.6235 91.7845 88.7423 91.8124 88.8626 91.8124C88.983 91.8124 89.1017 91.7845 89.2095 91.7309C89.2552 91.7128 89.294 91.6807 89.3202 91.6391C89.3464 91.5975 89.3586 91.5487 89.3552 91.4997Z" fill="#37474F"/>
<path d="M74.4647 91.4997V63.0089H75.4429V91.4997C75.4469 91.5479 75.4356 91.5961 75.4107 91.6376C75.3858 91.6791 75.3485 91.7117 75.3041 91.7309C75.1964 91.7845 75.0776 91.8124 74.9573 91.8124C74.8369 91.8124 74.7182 91.7845 74.6104 91.7309C74.5647 91.7128 74.5259 91.6807 74.4997 91.6391C74.4735 91.5975 74.4612 91.5487 74.4647 91.4997Z" fill="#37474F"/>
<path d="M88.3747 56.3325C84.8688 54.309 79.1869 54.309 75.681 56.3325C73.9281 57.3431 73.054 58.6705 73.054 59.9956V61.6144C73.054 62.9418 73.9281 64.2669 75.681 65.2798C79.1869 67.3033 84.8688 67.3033 88.3747 65.2798C90.1276 64.2669 91.0018 62.9418 91.0018 61.6144V59.9956C91.0018 58.6705 90.1276 57.3431 88.3747 56.3325Z" fill="#455A64"/>
<path d="M88.3747 55.5416C84.8688 53.5181 79.1869 53.5181 75.681 55.5416C73.9281 56.5522 73.054 57.8796 73.054 59.2047V60.8235C73.054 62.1509 73.9281 63.476 75.681 64.4889C79.1869 66.5124 84.8688 66.5124 88.3747 64.4889C90.1276 63.476 91.0018 62.1509 91.0018 60.8235V59.2047C91.0018 57.8796 90.1276 56.5522 88.3747 55.5416Z" fill="#4CA9EE"/>
<path opacity="0.4" d="M88.3747 55.5416C84.8688 53.5181 79.1869 53.5181 75.681 55.5416C73.9281 56.5522 73.054 57.8796 73.054 59.2047V60.8235C73.054 62.1509 73.9281 63.476 75.681 64.4889C79.1869 66.5124 84.8688 66.5124 88.3747 64.4889C90.1276 63.476 91.0018 62.1509 91.0018 60.8235V59.2047C91.0018 57.8796 90.1276 56.5522 88.3747 55.5416Z" fill="black"/>
<path opacity="0.5" d="M82.0268 64.3871C86.9836 64.3871 91.0019 62.0669 91.0019 59.2047C91.0019 56.3425 86.9836 54.0222 82.0268 54.0222C77.07 54.0222 73.0518 56.3425 73.0518 59.2047C73.0518 62.0669 77.07 64.3871 82.0268 64.3871Z" fill="#4CA9EE"/>
<path d="M81.932 88.5534C79.7744 88.5534 77.6191 88.0794 75.9772 87.1312C74.3422 86.1877 73.4333 84.9204 73.4333 83.5606C73.4333 82.2008 74.3352 80.9312 75.9772 79.9877C79.261 78.0914 84.603 78.0914 87.8892 79.9877C89.5218 80.9312 90.433 82.2008 90.433 83.5606C90.433 84.9204 89.5311 86.1877 87.8892 87.1312C86.2473 88.0747 84.0896 88.5534 81.932 88.5534ZM76.2084 86.7311C79.3651 88.5534 84.5013 88.5534 87.6579 86.7311C89.1426 85.8732 89.9705 84.747 89.9705 83.5606C89.9705 82.3743 89.1518 81.248 87.6579 80.3878C84.5013 78.5655 79.3651 78.5655 76.2084 80.3878C74.7214 81.2457 73.8959 82.372 73.8959 83.5606C73.8959 84.7493 74.7145 85.8732 76.2084 86.7311Z" fill="#37474F"/>
<path d="M82.8269 54.6651C82.6512 54.6651 82.4592 54.5819 82.443 54.4015C81.7007 46.0925 83.6132 38.5743 84.3532 36.9069C84.4007 36.8231 84.4776 36.7598 84.569 36.7295C84.6605 36.6992 84.7599 36.7039 84.8481 36.7428C84.8903 36.7613 84.9283 36.788 84.9601 36.8214C84.9918 36.8548 85.0166 36.8941 85.0329 36.9372C85.0493 36.9802 85.0569 37.0261 85.0553 37.0721C85.0538 37.1182 85.0431 37.1634 85.0238 37.2053C84.1936 39.0715 82.48 46.6683 83.1738 54.3899C83.1738 54.5402 83.0489 54.6512 82.8593 54.6697L82.8269 54.6651Z" fill="#455A64"/>
<path d="M93.7607 44.2355L84.4087 38.8356L84.0272 39.0669C83.5444 40.9507 83.186 42.8642 82.9541 44.7951C82.948 44.8405 82.9554 44.8868 82.9756 44.928C82.9958 44.9691 83.0278 45.0034 83.0674 45.0264L91.5985 49.9521L91.9801 49.7209C92.4773 47.6234 93.7607 44.2355 93.7607 44.2355Z" fill="#4CA9EE"/>
<path opacity="0.4" d="M93.7607 44.2355L84.4087 38.8356L84.0272 39.0669C83.5444 40.9507 83.186 42.8642 82.9541 44.7951C82.948 44.8405 82.9554 44.8868 82.9756 44.928C82.9958 44.9691 83.0278 45.0034 83.0674 45.0264L91.5985 49.9521L91.9801 49.7209C92.4773 47.6234 93.7607 44.2355 93.7607 44.2355Z" fill="black"/>
<path opacity="0.5" d="M84.0341 39.0576L84.4156 38.8356L93.7607 44.2308L93.3814 44.4528L84.0341 39.0576Z" fill="#4CA9EE"/>
<path d="M90.3427 59.1654C90.1508 59.1654 89.9958 59.096 89.9958 58.9665C89.9958 51.6657 92.8958 44.5731 93.7838 42.5751C93.8017 42.5325 93.8279 42.4939 93.8609 42.4616C93.8939 42.4293 93.933 42.4039 93.9759 42.3869C94.0188 42.3699 94.0647 42.3617 94.1109 42.3626C94.157 42.3636 94.2025 42.3738 94.2447 42.3925C94.2869 42.4113 94.3249 42.4383 94.3565 42.472C94.3881 42.5057 94.4127 42.5453 94.4288 42.5886C94.4449 42.6318 94.4521 42.6779 94.4502 42.724C94.4483 42.7701 94.4371 42.8154 94.4175 42.8572C93.5433 44.8252 90.6827 51.8022 90.6896 58.9665C90.6896 59.0359 90.5347 59.1654 90.3427 59.1654Z" fill="#455A64"/>
<path d="M92.6807 38.8519C92.498 38.6854 92.2783 38.5605 92.0979 38.3894C91.8419 38.1434 91.6786 37.8167 91.6354 37.4643C91.5892 37.0735 91.6909 36.6804 91.6655 36.2896C91.6442 36.0344 91.5691 35.7867 91.4451 35.5627C91.3211 35.3387 91.1511 35.1435 90.9463 34.9899C90.4953 34.6499 89.9288 34.6245 89.4524 34.3424C89.1562 34.1743 88.9188 33.9192 88.7725 33.6116C88.6284 33.2119 88.5901 32.7817 88.6615 32.3628C88.7642 31.4707 88.751 30.569 88.6222 29.6802C88.4391 28.6557 87.9874 27.6981 87.3133 26.9052C86.7572 26.2263 86.0481 25.6889 85.2441 25.3371C84.4401 24.9854 83.5641 24.8293 82.6881 24.8817L82.2094 24.9164C81.4277 24.9696 80.6666 25.1904 79.9778 25.5639L79.728 25.7073C79.7135 25.7186 79.6981 25.7287 79.6818 25.7373C79.5939 25.7905 79.5084 25.8483 79.4228 25.9085C79.3372 25.9686 79.254 26.0333 79.1707 26.1004C78.2249 26.8612 77.841 27.8926 77.5519 29.1067C77.0131 31.0585 76.7333 33.9076 77.6837 36.4006C78.2734 37.9477 79.4135 39.2381 80.5744 40.1885C83.5345 42.6214 88.8002 43.8886 91.9268 41.9345C93.0276 41.2431 93.7907 39.8602 92.6807 38.8519Z" fill="#455A64"/>
<path d="M81.1711 25.0944C78.5949 25.2447 76.2985 25.9547 75.6718 27.7631C75.0451 29.5715 76.6107 31.9257 77.5496 31.9257C78.884 31.9234 81.1711 25.0944 81.1711 25.0944Z" fill="#455A64"/>
<path d="M78.6273 87.1983L78.3428 87.1521C78.3428 86.2548 78.4122 85.4362 78.1995 85.0107L78.6273 83.9191V87.1983Z" fill="#263238"/>
<path d="M79.402 83.1351C79.3257 83.7479 78.9649 84.37 78.914 85.5795C78.8753 86.0945 78.8753 86.6116 78.914 87.1266L78.6157 87.1983V83.9191L79.402 83.1351Z" fill="#263238"/>
<path d="M72.3488 87.8806C72.3639 88.0464 72.4292 88.2037 72.5361 88.3315C72.6887 88.4518 73.172 88.8588 74.7515 88.794C76.331 88.7293 76.8883 88.3546 77.4387 87.869C77.9891 87.3833 78.1556 86.0999 78.2481 85.4917C78.4285 84.3169 78.9419 83.7087 79.4044 83.1236C79.4843 82.9297 79.5052 82.7165 79.4645 82.5108C79.4645 82.5108 78.1625 82.4113 77.5682 83.8451C76.9739 85.2789 76.4975 86.944 75.214 87.314C74.2739 87.572 73.3163 87.7614 72.3488 87.8806Z" fill="#37474F"/>
<path d="M73.1766 86.523C72.6863 86.93 72.3186 87.1081 72.351 87.4943C72.3834 87.8805 72.7904 88.0632 73.1164 88.1695C73.8842 88.417 74.7653 88.3384 75.5423 88.2158C76.3194 88.0932 77.1935 87.7533 77.5404 87.0133C77.6321 86.7964 77.6988 86.5699 77.7393 86.338C77.8619 85.569 78.0762 84.8175 78.3775 84.0994C78.4995 83.798 78.6506 83.5091 78.8285 83.2368C79.0389 82.9478 79.291 82.6333 79.3373 82.2656C79.3743 81.9603 79.1476 81.5232 78.8493 81.0515C78.5113 80.522 78.3547 79.8971 78.403 79.2708L78.6342 76.4957L75.1122 77.2612L75.5747 80.3785C75.695 81.1949 75.3851 82.0551 75.1931 82.8368C74.9789 83.7074 74.6605 84.5491 74.245 85.3436C74.1469 85.5482 74.0208 85.7381 73.8703 85.9079C73.6539 86.129 73.422 86.3345 73.1766 86.523Z" fill="#FFA8A7"/>
<path d="M79.2795 81.6296C79.0876 81.3244 78.854 81.0908 78.6944 80.7763C78.5377 80.972 78.4099 81.1893 78.3152 81.4215C77.9012 82.2031 77.7995 83.4404 77.3901 84.6591C77.0849 85.5841 76.5946 86.0466 75.9286 86.2941C75.5114 86.4422 75.0639 86.4835 74.6266 86.4143C73.8103 86.2848 74.0138 85.6997 74.0138 85.6997C73.8195 85.9564 72.9269 86.6248 72.4343 86.9531C72.1221 87.1613 72.1591 87.6145 72.3511 87.8782C72.5823 88.0794 73.3432 88.5719 75.3065 88.3291C77.0502 88.1117 77.4734 87.3185 77.6445 86.9601C77.8282 86.4345 77.9606 85.8924 78.04 85.3413C78.1491 84.7342 78.3677 84.152 78.6852 83.6231C78.7213 83.5609 78.7607 83.5007 78.8031 83.4427C78.9234 83.2716 79.0644 83.0842 79.224 82.8992C79.3489 82.7535 79.4553 82.6865 79.4853 82.5477C79.5133 82.3887 79.5095 82.2257 79.4742 82.0681C79.4389 81.9105 79.3727 81.7615 79.2795 81.6296Z" fill="#4CA9EE"/>
<path opacity="0.4" d="M79.2795 81.6296C79.0876 81.3244 78.854 81.0908 78.6944 80.7763C78.5377 80.972 78.4099 81.1893 78.3152 81.4215C77.9012 82.2031 77.7995 83.4404 77.3901 84.6591C77.0849 85.5841 76.5946 86.0466 75.9286 86.2941C75.5114 86.4422 75.0639 86.4835 74.6266 86.4143C73.8103 86.2848 74.0138 85.6997 74.0138 85.6997C73.8195 85.9564 72.9269 86.6248 72.4343 86.9531C72.1221 87.1613 72.1591 87.6145 72.3511 87.8782C72.5823 88.0794 73.3432 88.5719 75.3065 88.3291C77.0502 88.1117 77.4734 87.3185 77.6445 86.9601C77.8282 86.4345 77.9606 85.8924 78.04 85.3413C78.1491 84.7342 78.3677 84.152 78.6852 83.6231C78.7213 83.5609 78.7607 83.5007 78.8031 83.4427C78.9234 83.2716 79.0644 83.0842 79.224 82.8992C79.3489 82.7535 79.4553 82.6865 79.4853 82.5477C79.5133 82.3887 79.5095 82.2257 79.4742 82.0681C79.4389 81.9105 79.3727 81.7615 79.2795 81.6296Z" fill="black"/>
<path d="M73.3593 83.371L73.0725 83.3317C73.0471 82.4367 73.091 81.6158 72.8667 81.1972L73.2621 80.0941L73.3593 83.371Z" fill="#263238"/>
<path d="M74.0252 79.287C73.9674 79.8999 73.6228 80.5335 73.609 81.7453C73.5851 82.2606 73.5998 82.777 73.6529 83.2901L73.3592 83.371L73.2621 80.0941L74.0252 79.287Z" fill="#263238"/>
<path d="M67.113 84.2428C67.1329 84.4087 67.2031 84.5644 67.3142 84.6891C67.4692 84.8048 67.9641 85.1794 69.5389 85.073C71.1138 84.9666 71.6665 84.592 72.2007 84.0948C72.7349 83.5976 72.8667 82.3072 72.9407 81.6967C73.0864 80.5173 73.572 79.8929 74.0253 79.2962C74.1004 79.1008 74.1149 78.8872 74.0669 78.6834C74.0669 78.6834 72.7626 78.621 72.2169 80.071C71.6711 81.5209 71.2363 83.1998 69.9644 83.6115C69.0306 83.8912 68.0776 84.1022 67.113 84.2428Z" fill="#37474F"/>
<path d="M67.9015 82.8553C67.4228 83.2762 67.0598 83.4635 67.106 83.8474C67.1523 84.2312 67.5685 84.4047 67.8877 84.4995C68.6647 84.7308 69.5412 84.6221 70.3136 84.4787C71.0859 84.3353 71.9532 83.9607 72.2769 83.2183C72.363 82.9988 72.4227 82.7698 72.455 82.5361C72.5566 81.7643 72.7499 81.0074 73.0308 80.2814C73.1427 79.976 73.2845 79.6824 73.454 79.4049C73.6575 79.1089 73.9027 78.7875 73.935 78.4198C73.9651 78.1122 73.7246 77.6821 73.4147 77.2219V77.2103C73.0607 76.6922 72.8861 76.0725 72.9175 75.4458L73.0609 72.6546L69.5643 73.5218L70.1147 76.6229C70.2604 77.4369 69.9736 78.3065 69.8048 79.0927C69.6171 79.9731 69.3227 80.8274 68.9283 81.6366C68.8372 81.8435 68.7173 82.0366 68.5722 82.2101C68.364 82.4406 68.1399 82.6562 67.9015 82.8553Z" fill="#FFA8A7"/>
<path d="M73.8588 77.7839C73.6416 77.5165 73.4386 77.2378 73.2506 76.9491C73.0988 77.1483 72.9772 77.3688 72.8899 77.6035C72.499 78.3944 72.4273 79.6363 72.062 80.8712C71.7844 81.7962 71.3081 82.2911 70.6513 82.5478C70.2381 82.7081 69.7912 82.7622 69.3516 82.705C68.5307 82.5986 68.7157 82.0113 68.7157 82.0113C68.5284 82.2749 67.6588 82.971 67.1755 83.3109C66.8679 83.526 66.9165 83.9792 67.1177 84.2359C67.349 84.4302 68.1306 84.902 70.0847 84.6013C71.8215 84.3354 72.2215 83.5283 72.3834 83.1652C72.5516 82.6327 72.6677 82.0852 72.7303 81.5302C72.8212 80.9208 73.0226 80.333 73.3246 79.7958C73.3639 79.7288 73.4009 79.6663 73.4379 79.6108C73.5536 79.4374 73.69 79.2454 73.8449 79.0558C73.9652 78.9078 74.06 78.8384 74.0947 78.6973C74.1174 78.5371 74.1083 78.3739 74.0678 78.2171C74.0273 78.0604 73.9563 77.9131 73.8588 77.7839Z" fill="#4CA9EE"/>
<path opacity="0.4" d="M73.8588 77.7839C73.6416 77.5165 73.4386 77.2378 73.2506 76.9491C73.0988 77.1483 72.9772 77.3688 72.8899 77.6035C72.499 78.3944 72.4273 79.6363 72.062 80.8712C71.7844 81.7962 71.3081 82.2911 70.6513 82.5478C70.2381 82.7081 69.7912 82.7622 69.3516 82.705C68.5307 82.5986 68.7157 82.0113 68.7157 82.0113C68.5284 82.2749 67.6588 82.971 67.1755 83.3109C66.8679 83.526 66.9165 83.9792 67.1177 84.2359C67.349 84.4302 68.1306 84.902 70.0847 84.6013C71.8215 84.3354 72.2215 83.5283 72.3834 83.1652C72.5516 82.6327 72.6677 82.0852 72.7303 81.5302C72.8212 80.9208 73.0226 80.333 73.3246 79.7958C73.3639 79.7288 73.4009 79.6663 73.4379 79.6108C73.5536 79.4374 73.69 79.2454 73.8449 79.0558C73.9652 78.9078 74.06 78.8384 74.0947 78.6973C74.1174 78.5371 74.1083 78.3739 74.0678 78.2171C74.0273 78.0604 73.9563 77.9131 73.8588 77.7839Z" fill="black"/>
<path d="M88.6222 53.7632C88.3844 52.7845 88.0206 51.8408 87.54 50.9558C84.1891 52.5491 80.822 52.5029 77.4456 51.4183C77.5659 51.786 76.6455 52.6463 74.208 54.3321C72.4412 55.5508 69.6846 57.2945 68.3341 58.3675C67.6403 58.911 66.935 59.6117 67.2426 61.5774C67.6588 64.2391 69.5551 73.5634 69.5551 73.5634C71.8492 74.3797 73.024 73.0246 73.024 73.0246C73.024 73.0246 73.3848 69.4725 73.6761 66.6118C73.9675 63.7512 73.1535 62.1648 73.1535 62.1648C73.1535 62.1648 79.816 59.7805 82.4176 59.244C86.7745 58.3421 89.1958 57.794 88.6222 53.7632Z" fill="#37474F"/>
<path d="M77.2005 53.9113C77.2005 53.9113 78.218 56.1799 79.5616 56.7373L74.8486 61.5798L73.165 62.1695L74.7214 61.2144L78.3359 56.765C78.3359 56.765 77.1866 55.4746 77.2005 53.9113Z" fill="#263238"/>
<path d="M72.7557 66.3529C72.9329 67.2659 73.1607 68.1685 73.4379 69.0563C73.5211 68.2492 73.6067 67.4051 73.6877 66.6142C73.7761 65.79 73.7715 64.9584 73.6738 64.1351L73.2321 63.6472C72.7233 64.3178 72.4319 64.7179 72.7557 66.3529Z" fill="#263238"/>
<path d="M88.6314 53.8187C88.6327 53.8003 88.6327 53.7817 88.6314 53.7632C88.3936 52.7845 88.0298 51.8408 87.5491 50.9558C84.1982 52.5491 80.8311 52.5029 77.4548 51.4183C77.4039 51.8137 77.5034 52.5746 77.6861 53.4372C78.1648 55.9417 79.5523 56.7372 79.5523 56.7372C77.5334 58.7191 74.7907 61.5196 73.5396 63.0574C73.1951 63.4853 72.862 64.3663 73.0632 65.6013C73.5003 68.2607 75.1931 78.0012 75.1931 78.0012C77.4941 78.6187 78.4955 77.726 78.4955 77.726C78.4955 77.726 79.0297 73.9103 79.321 71.0497C79.4786 69.2602 79.1951 67.4593 78.4955 65.8048C78.4955 65.8048 82.4939 63.7026 84.9059 62.1602C88.6869 59.7482 89.4593 57.0956 88.6314 53.8187Z" fill="#37474F"/>
<path d="M79.8321 37.5961C77.9173 37.536 77.0894 38.2344 75.8846 40.6024C74.9457 42.4525 74.0137 44.4089 73.239 45.7572C71.3728 45.6161 67.8507 45.1305 66.5488 44.6286C66.3058 44.5348 66.1047 44.3567 65.9822 44.1268C65.7007 43.6073 65.3186 43.149 64.8583 42.7786C64.4813 42.4433 64.3958 42.0062 64.2085 42.0154C64.0211 42.0247 63.8015 42.3207 63.9009 42.7462C64.0414 43.0744 64.2109 43.3894 64.4073 43.6874C64.1021 43.7499 63.0429 43.2804 62.3792 42.5496C61.4981 41.5784 60.6517 42.0501 60.7604 43.6712C60.7951 44.2517 61.623 45.7248 63.8454 46.7839C64.6886 47.1513 65.5592 47.4521 66.4493 47.6835C68.7619 48.3611 71.0536 49.1219 72.7233 49.2908C74.0184 49.4226 74.7306 49.522 75.6695 48.4814C78.396 45.4149 79.4459 42.6167 80.6323 40.6186L79.8321 37.5961Z" fill="#FFA8A7"/>
<path d="M80.1189 37.5753C78.9973 37.5036 78.2018 37.647 77.5381 38.1372C76.8744 38.6275 76.613 39.097 75.9447 40.2787C75.2764 41.4604 73.1974 45.6878 73.1974 45.6878L70.6882 45.4565C70.8137 46.0271 70.8137 46.6181 70.6882 47.1886C70.6065 47.7522 70.3776 48.2843 70.0245 48.7311C70.0245 48.7311 71.6248 49.1936 72.7002 49.3555C74.2172 49.5867 74.7514 49.6885 75.6603 48.6108C76.5691 47.5332 79.92 43.3104 79.92 43.3104L80.1189 37.5753Z" fill="#37474F"/>
<path d="M87.2902 50.1579C87.0913 49.8411 86.8462 49.2745 86.9317 48.8675C87.0613 48.2686 87.3943 46.4971 87.3943 46.4971L86.7699 43.8608C86.6443 43.4352 86.547 43.0018 86.4785 42.5635C86.1617 41.4234 85.8795 39.3976 86.6034 38.2852L85.2459 37.9846C83.9637 37.6823 82.6474 37.5502 81.3307 37.5915L80.1143 37.5753C80.1143 37.5753 77.3069 40.7365 76.7172 42.1541C76.3795 42.9705 75.9424 44.4459 77.4826 46.1849C77.5242 47.1724 77.3554 48.7912 77.323 49.5775C77.2907 50.3637 77.219 51.3258 77.1195 52.0519C77.5821 53.0694 79.2494 54.7507 82.8686 54.635C86.6196 54.5148 88.4187 52.6416 88.4187 52.6416C88.163 51.7641 87.783 50.9277 87.2902 50.1579Z" fill="#4CA9EE"/>
<path opacity="0.1" d="M80.5537 46.0208C80.5537 46.0208 81.5157 47.1285 83.4722 46.7146C85.4286 46.3006 85.757 44.809 85.757 44.809C85.757 44.809 85.9489 46.7146 83.6109 47.1933C81.2729 47.672 80.5537 46.0208 80.5537 46.0208Z" fill="black"/>
<path d="M92.0863 49.3231C91.7302 47.6881 90.9925 44.8783 90.2502 41.9645C89.4477 38.8148 88.7054 38.787 86.7813 38.4309C85.3336 40.2046 86.7813 44.3488 86.7813 44.3488L88.4348 50.0724C87.3895 51.9224 86.5269 53.858 85.3151 55.3173C85.107 55.5693 84.7324 55.5485 84.4063 55.5948C83.5345 55.6873 83.2084 55.8723 82.4476 56.1544C81.8532 56.3741 81.467 56.314 81.4555 56.4712C81.4416 56.6724 81.5896 57.0818 82.1492 57.165C82.4912 57.1978 82.8361 57.1822 83.1737 57.1188C82.6466 57.5644 82.0596 57.9342 81.43 58.2172C79.9338 58.911 79.4458 60.1736 81.5156 60.5598C82.7644 60.7911 84.1565 60.502 86.0783 58.6705C86.9016 57.8902 87.6581 57.0424 88.34 56.1359C90.0397 53.7702 92.3083 50.6806 92.0863 49.3231Z" fill="#FFA8A7"/>
<path d="M86.6079 38.2853C87.6531 38.4842 88.5019 38.6576 88.932 38.9791C89.3621 39.3005 89.6258 39.5387 89.9958 40.5979C90.3658 41.657 91.98 48.1669 92.1002 48.7335C92.2205 49.3 92.4078 49.8019 91.8528 50.9026C91.2978 52.0034 89.7044 54.2073 89.7044 54.2073C89.7044 54.2073 88.9019 53.0348 87.0542 52.6001L88.1827 50.0909L86.1014 43.2411C86.1014 43.2411 85.1024 40.0475 86.6079 38.2853Z" fill="#37474F"/>
<path d="M86.9895 24.81L86.6102 26.2646C86.7045 26.2941 86.8038 26.3042 86.902 26.2943C87.0003 26.2844 87.0956 26.2546 87.182 26.2068C87.2685 26.1591 87.3444 26.0943 87.4051 26.0163C87.4658 25.9384 87.5101 25.849 87.5353 25.7535C87.5827 25.5562 87.5524 25.3483 87.4509 25.1727C87.3493 24.9971 87.1841 24.8672 86.9895 24.81Z" fill="#455A64"/>
<path d="M88.2383 26.1328L86.7352 26.1883C86.7339 26.2869 86.7526 26.3847 86.7902 26.4759C86.8278 26.5671 86.8836 26.6496 86.9541 26.7186C87.0246 26.7876 87.1083 26.8415 87.2003 26.8772C87.2923 26.9128 87.3905 26.9294 87.4891 26.926C87.6921 26.9158 87.8834 26.8277 88.023 26.6799C88.1627 26.5321 88.2398 26.3361 88.2383 26.1328Z" fill="#455A64"/>
<path d="M79.0691 27.4416C78.4493 27.8093 77.6815 29.368 77.7578 32.6357C77.8226 35.4107 78.7199 36.0906 79.1708 36.2872C79.6218 36.4838 80.4913 36.3635 81.3354 36.2248V37.8852C81.3354 37.8852 80.5607 38.5628 80.6416 39.3259C80.7225 40.0891 82.3298 40.2671 83.4167 39.5225C84.5036 38.7778 84.8204 38.1072 84.8204 38.1072V34.0163C84.8204 34.0163 85.2829 34.5065 86.1016 33.9469C86.279 33.8343 86.431 33.686 86.5479 33.5114C86.6649 33.3369 86.7441 33.1398 86.7807 32.9329C86.8172 32.726 86.8103 32.5137 86.7602 32.3097C86.7102 32.1056 86.6182 31.9142 86.4901 31.7476C86.1362 31.3291 85.2297 31.299 84.795 31.9488C84.795 31.9488 83.5254 32.0066 81.7308 31.0238C79.9363 30.041 79.3211 28.3204 79.0691 27.4416Z" fill="#FFA8A7"/>
<path d="M81.171 31.9396C81.1707 32.0074 81.1902 32.074 81.2273 32.1308C81.2644 32.1877 81.3174 32.2324 81.3796 32.2595C81.4419 32.2866 81.5107 32.2948 81.5776 32.2831C81.6445 32.2714 81.7065 32.2403 81.7559 32.1937C81.8053 32.1472 81.8399 32.0871 81.8555 32.021C81.8711 31.9549 81.8669 31.8857 81.8436 31.822C81.8202 31.7582 81.7787 31.7027 81.7241 31.6624C81.6694 31.622 81.6042 31.5986 81.5364 31.595C81.4897 31.5934 81.4432 31.6011 81.3996 31.6177C81.3559 31.6342 81.3159 31.6592 81.282 31.6912C81.248 31.7232 81.2207 31.7617 81.2017 31.8043C81.1826 31.8469 81.1722 31.8929 81.171 31.9396Z" fill="#263238"/>
<path d="M80.9398 34.1504L79.9385 34.4696C79.9565 34.5367 79.9879 34.5995 80.0308 34.6542C80.0737 34.7089 80.1272 34.7543 80.1881 34.7878C80.2491 34.8213 80.3161 34.8421 80.3853 34.849C80.4544 34.8559 80.5243 34.8488 80.5906 34.828C80.7254 34.7825 80.8371 34.6863 80.9023 34.5599C80.9675 34.4334 80.9809 34.2866 80.9398 34.1504Z" fill="#F28F8F"/>
<path d="M78.1486 30.714L78.9788 30.4966C78.9672 30.442 78.9446 30.3903 78.9124 30.3446C78.8801 30.299 78.839 30.2605 78.7914 30.2313C78.7438 30.202 78.6908 30.1828 78.6355 30.1748C78.5803 30.1667 78.524 30.17 78.47 30.1844C78.3604 30.2173 78.2669 30.2896 78.2075 30.3874C78.1481 30.4852 78.1271 30.6016 78.1486 30.714Z" fill="#263238"/>
<path d="M81.444 30.5151L82.2141 30.892C82.2413 30.8432 82.2583 30.7893 82.264 30.7337C82.2697 30.678 82.2639 30.6218 82.247 30.5685C82.2301 30.5152 82.2024 30.4659 82.1657 30.4237C82.129 30.3815 82.0841 30.3473 82.0337 30.3231C81.9291 30.2764 81.8108 30.2701 81.7019 30.3056C81.5929 30.3411 81.501 30.4157 81.444 30.5151Z" fill="#263238"/>
<path d="M78.2342 31.6875C78.2333 31.756 78.2527 31.8232 78.2897 31.8807C78.3268 31.9383 78.3799 31.9837 78.4426 32.0112C78.5052 32.0388 78.5746 32.0474 78.6421 32.0359C78.7095 32.0244 78.7722 31.9933 78.8221 31.9465C78.872 31.8997 78.9071 31.8392 78.923 31.7726C78.9389 31.706 78.9348 31.6363 78.9114 31.5719C78.8879 31.5076 78.846 31.4517 78.791 31.4109C78.736 31.3702 78.6702 31.3466 78.6019 31.343C78.5551 31.3414 78.5085 31.3491 78.4647 31.3656C78.4209 31.3821 78.3807 31.407 78.3466 31.439C78.3124 31.471 78.2849 31.5095 78.2656 31.5521C78.2464 31.5947 78.2356 31.6408 78.2342 31.6875Z" fill="#263238"/>
<path d="M80.1697 31.4887L80.1142 33.5862L79.0088 33.2439L80.1697 31.4887Z" fill="#F28F8F"/>
<path d="M81.3353 36.2248C82.228 36.1069 84.0595 35.5796 84.3416 34.8558C84.2261 35.2222 84.0019 35.5448 83.6988 35.7808C83.1507 36.2433 81.3307 36.7775 81.3307 36.7775L81.3353 36.2248Z" fill="#F28F8F"/>
<path d="M33.3171 94.8389V65.1155H34.2953V94.8389C34.2993 94.8871 34.288 94.9353 34.2631 94.9768C34.2382 95.0183 34.201 95.0509 34.1566 95.0701C34.0491 95.1248 33.9302 95.1532 33.8097 95.1532C33.6891 95.1532 33.5703 95.1248 33.4628 95.0701C33.4171 95.0521 33.3783 95.0199 33.3521 94.9783C33.3259 94.9368 33.3137 94.8879 33.3171 94.8389Z" fill="#37474F"/>
<path d="M26.3793 91.4996V63.0088H27.3552V91.4996C27.3592 91.5478 27.3479 91.596 27.323 91.6375C27.2981 91.679 27.2609 91.7116 27.2164 91.7308C27.1088 91.7848 26.99 91.8128 26.8696 91.8128C26.7491 91.8128 26.6304 91.7848 26.5227 91.7308C26.4774 91.7124 26.4391 91.6801 26.4134 91.6385C26.3876 91.597 26.3757 91.5483 26.3793 91.4996Z" fill="#37474F"/>
<path d="M41.2629 91.4996V63.0088H40.287V91.4996C40.2831 91.5478 40.2943 91.596 40.3192 91.6375C40.3441 91.679 40.3814 91.7116 40.4258 91.7308C40.5335 91.7848 40.6522 91.8128 40.7727 91.8128C40.8931 91.8128 41.0119 91.7848 41.1196 91.7308C41.1648 91.7124 41.2031 91.6801 41.2289 91.6385C41.2546 91.597 41.2665 91.5483 41.2629 91.4996Z" fill="#37474F"/>
<path d="M27.3622 56.3324C30.8657 54.3089 36.55 54.3089 40.0558 56.3324C41.8065 57.343 42.6829 58.6704 42.6806 59.9955V61.6143C42.6806 62.9417 41.8065 64.2668 40.0535 65.2797C36.55 67.3032 30.8657 67.3032 27.3622 65.2797C25.6093 64.2668 24.7351 62.9417 24.7351 61.6143V59.9955C24.7444 58.6704 25.6093 57.343 27.3622 56.3324Z" fill="#455A64"/>
<path d="M27.3622 55.5415C30.8657 53.518 36.55 53.518 40.0558 55.5415C41.8065 56.5521 42.6829 57.8795 42.6806 59.2046V60.8234C42.6806 62.1508 41.8065 63.4759 40.0535 64.4888C36.55 66.5123 30.8657 66.5123 27.3622 64.4888C25.6093 63.4759 24.7351 62.1508 24.7351 60.8234V59.2046C24.7444 57.8795 25.6093 56.5521 27.3622 55.5415Z" fill="#4CA9EE"/>
<path opacity="0.4" d="M27.3622 55.5415C30.8657 53.518 36.55 53.518 40.0558 55.5415C41.8065 56.5521 42.6829 57.8795 42.6806 59.2046V60.8234C42.6806 62.1508 41.8065 63.4759 40.0535 64.4888C36.55 66.5123 30.8657 66.5123 27.3622 64.4888C25.6093 63.4759 24.7351 62.1508 24.7351 60.8234V59.2046C24.7444 57.8795 25.6093 56.5521 27.3622 55.5415Z" fill="black"/>
<path opacity="0.5" d="M33.7078 64.3871C38.6646 64.3871 42.6829 62.0668 42.6829 59.2046C42.6829 56.3424 38.6646 54.0221 33.7078 54.0221C28.7511 54.0221 24.7328 56.3424 24.7328 59.2046C24.7328 62.0668 28.7511 64.3871 33.7078 64.3871Z" fill="#4CA9EE"/>
<path d="M33.8049 88.5534C31.6473 88.5534 29.4897 88.0793 27.8478 87.1311C26.2059 86.183 25.304 84.9203 25.304 83.5605C25.304 82.2007 26.2035 80.9311 27.8478 79.9876C31.1316 78.0913 36.4759 78.0913 39.7598 79.9876C41.3948 80.9311 42.3036 82.2007 42.3036 83.5605C42.3036 84.9203 41.404 86.1876 39.7598 87.1311C38.1179 88.0793 35.9602 88.5534 33.8049 88.5534ZM33.8049 79.021C31.7236 79.021 29.6585 79.4835 28.079 80.3877C26.5944 81.2457 25.7665 82.3719 25.7665 83.5605C25.7665 84.7492 26.5851 85.8731 28.079 86.7311C31.2357 88.5534 36.3719 88.5534 39.5285 86.7311C41.0132 85.8731 41.8411 84.7469 41.8411 83.5605C41.8411 82.3742 41.0225 81.248 39.5285 80.3877C37.9514 79.4765 35.877 79.021 33.8049 79.021Z" fill="#37474F"/>
<path d="M32.9077 54.6651C33.0858 54.6651 33.2754 54.5818 33.2916 54.4014C34.0339 46.0924 32.1238 38.5742 31.3814 36.9069C31.3348 36.8228 31.2583 36.7593 31.1671 36.7289C31.0759 36.6985 30.9766 36.7034 30.8889 36.7427C30.8467 36.7612 30.8086 36.7879 30.7769 36.8213C30.7451 36.8547 30.7204 36.894 30.704 36.9371C30.6877 36.9801 30.68 37.026 30.6816 37.0721C30.6832 37.1181 30.6939 37.1633 30.7131 37.2052C31.541 39.0714 33.2569 46.6682 32.5632 54.3899C32.5632 54.5402 32.6857 54.6512 32.8777 54.6697L32.9077 54.6651Z" fill="#455A64"/>
<path d="M21.9694 44.2354L31.3168 38.8402L31.6983 39.0715C32.18 40.9556 32.5384 42.869 32.7714 44.7997C32.7775 44.8451 32.77 44.8914 32.7499 44.9325C32.7297 44.9737 32.6977 45.008 32.658 45.0309L24.127 49.9567L23.7454 49.7255C23.2598 47.6233 21.9694 44.2354 21.9694 44.2354Z" fill="#4CA9EE"/>
<path opacity="0.4" d="M21.9694 44.2354L31.3168 38.8402L31.6983 39.0715C32.18 40.9556 32.5384 42.869 32.7714 44.7997C32.7775 44.8451 32.77 44.8914 32.7499 44.9325C32.7297 44.9737 32.6977 45.008 32.658 45.0309L24.127 49.9567L23.7454 49.7255C23.2598 47.6233 21.9694 44.2354 21.9694 44.2354Z" fill="black"/>
<path opacity="0.5" d="M31.7028 39.0575L31.3213 38.8355L21.9739 44.2307L22.3555 44.4528L31.7028 39.0575Z" fill="#4CA9EE"/>
<path d="M25.3919 59.1653C25.5839 59.1653 25.7388 59.0959 25.7388 58.9664C25.7388 51.6657 22.8412 44.573 21.9532 42.575C21.9129 42.497 21.8446 42.4371 21.7621 42.4075C21.6795 42.3779 21.5887 42.3806 21.5081 42.4152C21.4274 42.4498 21.3629 42.5137 21.3275 42.594C21.2921 42.6743 21.2884 42.765 21.3172 42.8479C22.1937 44.8159 25.052 51.7929 25.0451 58.9572C25.0451 59.0358 25.2069 59.1653 25.3919 59.1653Z" fill="#455A64"/>
<path d="M33.4744 24.7267L33.4443 24.7452C32.0938 25.6124 30.5559 25.8806 29.3464 27.0115C28.7909 27.5119 28.3565 28.1322 28.076 28.8253C27.7956 29.5184 27.6764 30.2663 27.7276 31.0122C27.8664 34.192 30.4333 35.8247 31.3005 36.7589C31.3422 36.8029 31.6359 36.7728 31.6937 36.7751L32.5725 36.8168C32.7852 36.8168 33.0535 36.9393 33.2662 36.8769C33.5345 36.7913 33.7287 36.4375 33.8929 36.227C35.1833 34.5088 37.3132 33.6971 38.6984 32.0644C39.1771 31.5002 39.6443 30.8943 39.8293 30.1797C40.0143 29.4651 39.8547 28.6095 39.2604 28.1701C39.4542 27.9076 39.5628 27.5921 39.5714 27.2659C39.5801 26.9398 39.4885 26.6189 39.3089 26.3465C39.1294 26.0742 38.8705 25.8635 38.5674 25.7429C38.2642 25.6224 37.9314 25.5978 37.6138 25.6725C37.8752 25.0851 37.5583 24.3497 37.0126 24.0098C36.7301 23.8547 36.4179 23.7611 36.0967 23.7352C35.7755 23.7093 35.4524 23.7516 35.1487 23.8595C34.554 24.0717 33.9908 24.3634 33.4744 24.7267Z" fill="#263238"/>
<path d="M31.2496 37.7603C30.6899 38.7316 29.3695 39.023 28.3034 38.4078C27.2373 37.7927 26.8303 36.5046 27.3922 35.531C27.9542 34.5574 29.2723 34.2706 30.3384 34.8858C31.4045 35.5009 31.8115 36.7798 31.2496 37.7603Z" fill="#263238"/>
<path d="M39.2742 69.5072C38.296 69.276 37.3617 69.9698 37.253 70.2149C37.105 70.5456 37.068 71.2463 37.3802 72.1459C37.642 73.0378 37.6927 73.9784 37.5282 74.8932C37.3709 75.6702 36.7859 77.5873 37.4727 78.6557C38.1595 79.7241 39.8246 80.7717 40.5946 79.4929C40.8444 79.0743 40.5947 77.5018 40.5345 76.3686C40.4096 74.1092 40.3634 71.873 40.3634 71.873L39.2742 69.5072Z" fill="#263238"/>
<path d="M38.7724 71.2462C38.8229 72.3418 38.7896 73.4396 38.6729 74.5301C38.5272 75.7187 38.6938 76.5304 39.0476 77.1063C39.4384 77.7399 40.5369 78.1908 40.5346 76.949C40.5346 76.0841 40.3634 71.8729 40.3634 71.8729L38.7724 71.2462Z" fill="#B16668"/>
<path opacity="0.15" d="M37.6254 69.8587C37.5006 70.5871 37.7526 72.3817 38.5713 74.1207C39.3714 75.8251 40.5254 78.0521 40.6757 79.2269C40.759 78.7042 40.641 77.7214 40.5693 76.8472C40.5693 76.8287 40.5693 76.8102 40.5693 76.7917C40.5693 76.7732 40.5693 76.69 40.5693 76.6391C40.5693 76.5882 40.5693 76.5928 40.5693 76.572C40.5693 76.5073 40.5693 76.4425 40.5578 76.3801C40.5185 75.6725 40.4884 74.9694 40.463 74.3358C40.4421 73.8293 40.4283 73.3668 40.4167 72.9829C40.4167 72.791 40.4167 72.6199 40.4005 72.4719C40.4005 72.3979 40.4005 72.3308 40.4005 72.2684C40.4005 72.0232 40.4005 71.8845 40.4005 71.8845L39.3113 69.5187C39.2465 69.5025 39.1841 69.4933 39.1217 69.484C38.594 69.4231 38.0622 69.5563 37.6254 69.8587Z" fill="black"/>
<path d="M44.6601 56.1475C41.929 54.0431 38.6174 52.0589 38.6174 52.0589L34.8965 55.9555L38.0855 59.1931L42.9881 62.5047C42.415 63.071 41.9489 63.7361 41.6122 64.4681C41.4272 64.8659 41.1312 65.6683 40.8143 66.5772L42.4539 72.2175C42.4539 72.2175 45.8812 67.3611 47.8191 64.0565C49.3569 61.4317 49.0101 60.2407 48.7626 59.8592C48.1012 58.8486 47.6387 58.4416 44.6601 56.1475Z" fill="#37474F"/>
<path d="M41.8572 61.7415C41.6028 61.3831 41.3346 61.0478 41.0663 60.7101C40.0511 59.4683 37.4078 56.4296 37.4078 56.4296L36.9453 56.714L39.0659 59.8591L41.8572 61.7415Z" fill="#263238"/>
<path d="M43.3559 70.9271C43.3559 68.9059 43.3212 66.0869 43.2472 65.0879C43.1771 64.3308 42.9536 63.5959 42.5904 62.9279C42.2506 63.3387 41.9567 63.7853 41.714 64.26L42.9697 71.4867L43.3559 70.9271Z" fill="#263238"/>
<path d="M40.7428 80.774C40.5115 80.7346 40.4445 81.144 40.2433 81.6527C40.0074 82.1368 39.9228 82.6808 40.0005 83.2137C40.13 83.8959 41.1568 84.1387 41.5823 85.0753C42.0078 86.0119 42.5744 87.6608 44.3573 88.3846C46.1403 89.1084 47.6782 88.7384 48.1245 88.2458C48.5708 87.7533 48.3558 87.1728 47.2781 86.2825C46.1403 85.3366 45.8189 85.0614 45.8189 85.0614L40.7428 80.774Z" fill="#263238"/>
<path d="M43.578 77.9273C43.7087 79.0588 43.9064 80.1816 44.1701 81.2897C44.5169 82.5293 45.1922 83.7619 45.9739 84.9413C46.145 85.198 46.5451 85.6859 46.6838 85.8917C46.7179 85.9334 46.7424 85.982 46.7555 86.0342C46.7686 86.0864 46.77 86.1409 46.7596 86.1937C46.7492 86.2465 46.7273 86.2963 46.6954 86.3397C46.6635 86.383 46.6224 86.4188 46.5751 86.4444C46.1126 86.7821 44.3736 86.6549 43.4971 85.8039C42.6206 84.9528 41.9361 83.2901 41.432 82.6333C41.2432 82.3882 41.0672 82.1335 40.9047 81.8702C40.7441 81.6318 40.6736 81.3441 40.7058 81.0585C40.7896 80.6901 40.8131 80.3105 40.7752 79.9346C40.715 79.4309 40.6247 78.9312 40.5046 78.4383L43.578 77.9273Z" fill="#B16668"/>
<path d="M27.7508 51.7005C27.1426 53.532 26.7355 54.1518 27.1194 56.1498C27.5033 58.1479 29.4783 60.0002 31.918 61.8757C33.9346 63.4275 36.9155 65.6753 37.5306 66.0383C38.1457 66.4014 38.1642 66.8154 37.9122 68.048C37.6601 69.2806 37.8289 71.3711 38.8835 74.0953C40.0004 76.9745 40.5716 78.9078 40.5716 78.9078C41.0994 79.0793 41.6605 79.1225 42.2084 79.0336C42.7562 78.9447 43.2749 78.7264 43.7213 78.3967C43.7213 78.3967 42.8402 65.8811 42.4957 64.1837C42.1511 62.4863 36.7143 56.4458 36.7143 56.4458C36.7143 56.4458 37.9006 53.8627 38.6244 52.052L27.7508 51.7005Z" fill="#37474F"/>
<path d="M38.6198 54.7923C38.6198 54.7923 38.0694 56.2006 36.9386 56.714L37.3826 57.2158C37.7504 56.9241 38.0512 56.5567 38.2647 56.1386C38.4781 55.7204 38.5992 55.2613 38.6198 54.7923Z" fill="#263238"/>
<path d="M35.9026 37.596C37.8197 37.5359 38.6476 38.2343 39.8501 40.6024C40.7913 42.4524 41.7233 44.4088 42.4957 45.7571C44.3642 45.616 47.884 45.1304 49.1882 44.6285C49.431 44.5353 49.6316 44.357 49.7525 44.1267C50.0348 43.6071 50.4177 43.1488 50.8787 42.7785C51.2534 42.4432 51.3412 42.0061 51.5263 42.0153C51.7113 42.0246 51.9356 42.3206 51.8361 42.7461C51.6938 43.0734 51.5244 43.3882 51.3297 43.6873C51.6349 43.7498 52.6941 43.2803 53.3555 42.5495C54.2389 41.5783 55.0853 42.05 54.9858 43.6711C54.9512 44.2516 54.1233 45.7247 51.8986 46.7838C51.0557 47.1519 50.185 47.4527 49.2946 47.6834C46.9821 48.361 44.6926 49.1218 43.0206 49.2907C41.7279 49.4225 41.0156 49.5219 40.0767 48.4813C37.341 45.4264 36.2888 42.6282 35.1024 40.6301L35.9026 37.596Z" fill="#B16668"/>
<path d="M35.9025 37.5961C36.8414 37.5036 37.4773 37.6516 38.0855 38.0331C38.6937 38.4147 39.2187 39.2172 39.4731 39.6519C39.5679 40.4174 39.1054 42.3646 37.3524 43.4723L35.9025 37.5961Z" fill="#455A64"/>
<path d="M28.4444 50.1579C28.6433 49.8411 28.8885 49.2745 28.8006 48.8675C28.6734 48.2686 28.3381 46.4972 28.3381 46.4972L27.9126 44.6841C27.9126 44.6841 29.0989 42.8341 29.2585 41.8535C29.418 40.873 29.4042 40.1769 28.9602 38.4194L30.9952 38.054C32.1064 37.7643 33.251 37.622 34.3993 37.6308L35.9025 37.5961C35.9025 37.5961 38.6775 40.5215 39.1031 41.8073C39.3759 42.6491 39.7066 44.1777 38.444 45.9976C38.4047 46.9851 38.3792 48.7982 38.4116 49.5844C38.444 50.3707 38.518 51.3327 38.6174 52.0589C38.1549 53.0764 36.4875 54.7576 32.8661 54.642C29.1174 54.5218 27.3159 52.6486 27.3159 52.6486C27.5698 51.7682 27.9499 50.9293 28.4444 50.1579Z" fill="#4CA9EE"/>
<path d="M37.1305 51.2912C36.941 51.281 36.7555 51.233 36.5848 51.1501C36.3535 51.0298 36.1685 50.7431 36.0274 50.269C35.9072 49.8666 35.743 48.9994 35.9766 48.5901C36.2749 48.0698 36.9409 48.1276 37.3826 48.1669L37.5352 48.1784L37.4867 48.8722L37.3225 48.8607C37.075 48.8375 36.6588 48.8028 36.5824 48.9347C36.4622 49.1983 36.7004 50.3638 36.9131 50.5303C37.1202 50.6056 37.3452 50.6161 37.5583 50.5604L37.7364 51.238C37.5382 51.2859 37.334 51.3038 37.1305 51.2912Z" fill="#E6E6E6"/>
<path d="M37.438 47.4407C37.5028 47.2279 37.7317 47.0337 38.1318 46.8949C39.1842 46.5867 40.3125 46.6688 41.3092 47.1262C41.6769 47.3158 41.8781 47.5401 41.9151 47.7598H41.9267C41.9776 49.1913 41.6099 50.8193 41.041 51.6912C41.0366 51.697 41.0327 51.7032 41.0294 51.7097V51.7212C40.9182 51.8804 40.7654 52.006 40.5877 52.0843C40.2008 52.248 39.7806 52.3181 39.3615 52.2887C38.9424 52.2594 38.5361 52.1315 38.1757 51.9155C38.0126 51.8122 37.8794 51.6678 37.7895 51.4969V51.483V51.4622C37.3478 50.5164 37.2091 48.8537 37.4565 47.4453L37.438 47.4407Z" fill="#F5F5F5"/>
<path d="M38.125 46.8949C37.2207 47.2141 37.1768 47.8338 38.0278 48.2825C39.0259 48.7376 40.1542 48.8196 41.2076 48.5137C42.1118 48.1923 42.1534 47.5748 41.3024 47.1262C40.3057 46.6688 39.1774 46.5867 38.125 46.8949Z" fill="#FAFAFA"/>
<path d="M38.414 47.1562C37.6901 47.3551 37.6601 47.7598 38.3515 48.0581C39.1711 48.3648 40.0621 48.4267 40.9162 48.2362C41.6423 48.035 41.67 47.6326 40.9786 47.3343C40.1593 47.0264 39.2679 46.9646 38.414 47.1562Z" fill="#E6E6E6"/>
<path d="M38.3884 47.7043C38.2591 47.738 38.1352 47.7902 38.0208 47.8593C38.1243 47.9434 38.2396 48.0119 38.363 48.0628C39.1826 48.3694 40.0736 48.4313 40.9276 48.2408C41.0574 48.2082 41.1813 48.1559 41.2953 48.0859C41.1918 48.0023 41.0765 47.9345 40.9531 47.8847C40.1338 47.5773 39.2427 47.5146 38.3884 47.7043Z" fill="#37474F"/>
<path d="M26.132 53.5158C29.3973 53.8973 37.3687 53.3215 37.3687 53.3215C38.5389 53.2475 40.264 53.0902 41.0688 52.2531C41.6331 51.675 41.9383 50.6343 42.017 50.2111C42.2158 49.1751 40.8121 50.3684 39.6512 50.4146C38.8511 50.4081 38.0619 50.2274 37.3386 49.885C37.2993 49.5457 37.2792 49.2045 37.2785 48.8629C36.7513 48.8629 36.335 50.4377 35.9049 50.7291C35.3822 51.0806 27.5796 49.5867 27.5796 49.5867L28.6897 45.0656C28.8384 44.2855 29.0487 43.5184 29.3187 42.7716C29.7951 41.4118 29.7118 40.3873 28.9579 38.4193C28.9579 38.4193 26.7679 38.5835 26.1296 39.9109C25.4914 41.2383 25.1283 43.1485 24.6172 45.6923C24.1062 48.2362 23.7801 51.5478 23.9235 52.1352C24.1154 53.0486 24.8693 53.3678 26.132 53.5158Z" fill="#B16668"/>
<path d="M28.9602 38.4193C27.8039 38.4193 26.3447 38.8356 25.9955 39.8578C25.765 40.5503 25.5735 41.2552 25.422 41.9691C26.3655 42.168 27.8317 43.0144 28.692 45.0656C28.692 45.0656 28.9371 44.3858 29.3857 43.0422C30.1466 40.6024 29.351 38.9744 28.9602 38.4193Z" fill="#455A64"/>
<path opacity="0.1" d="M35.1811 46.0207C35.1811 46.0207 34.2214 47.1285 32.2649 46.7145C30.3085 46.3006 29.9801 44.8089 29.9801 44.8089C29.9801 44.8089 29.7859 46.7145 32.1262 47.1932C34.4295 47.6696 35.1811 46.0207 35.1811 46.0207Z" fill="black"/>
<path d="M36.6681 27.4415C37.2878 27.8092 38.0556 29.3679 37.977 32.6356C37.9146 35.4106 37.0173 36.0905 36.5663 36.2871C36.1154 36.4837 35.2459 36.3634 34.3995 36.2247V37.8851C34.3995 37.8851 35.5673 39.2426 35.4956 40.0057C35.4239 40.7689 33.8074 40.9469 32.7205 40.2023C32.0126 39.692 31.405 39.0554 30.9283 38.3245V34.0162C30.9283 34.0162 30.4658 34.5064 29.6471 33.9468C29.4688 33.8351 29.3158 33.6873 29.198 33.5129C29.0802 33.3385 29.0003 33.1414 28.9632 32.9343C28.9262 32.7271 28.9329 32.5145 28.983 32.3101C29.0331 32.1058 29.1254 31.9141 29.254 31.7475C29.6078 31.329 30.5143 31.2989 30.9491 31.9487C30.9491 31.9487 32.0846 31.8493 33.8791 30.8641C35.2249 30.1371 36.2278 28.9064 36.6681 27.4415Z" fill="#B16668"/>
<path d="M30.949 32.9455V31.4886H31.874V32.0159C31.8746 32.1377 31.8511 32.2585 31.8049 32.3713C31.7587 32.484 31.6907 32.5866 31.6047 32.6729C31.5188 32.7593 31.4166 32.8279 31.304 32.8747C31.1915 32.9214 31.0708 32.9455 30.949 32.9455Z" fill="#263238"/>
<path d="M34.5751 31.9396C34.5759 32.0081 34.5565 32.0754 34.5194 32.133C34.4823 32.1907 34.429 32.2361 34.3662 32.2636C34.3034 32.2912 34.2339 32.2996 34.1664 32.2879C34.0988 32.2762 34.0362 32.2449 33.9863 32.1979C33.9365 32.1509 33.9015 32.0902 33.8859 32.0234C33.8703 31.9567 33.8746 31.8868 33.8985 31.8225C33.9223 31.7582 33.9645 31.7024 34.0198 31.6619C34.0752 31.6215 34.1412 31.5982 34.2097 31.595C34.3038 31.5925 34.395 31.6274 34.4635 31.6919C34.5319 31.7565 34.5721 31.8455 34.5751 31.9396Z" fill="#263238"/>
<path d="M34.7971 34.2336L35.8609 34.5712C35.8418 34.6427 35.8084 34.7096 35.7628 34.7678C35.7172 34.8261 35.6603 34.8745 35.5955 34.9101C35.5306 34.9458 35.4593 34.9679 35.3856 34.9753C35.312 34.9826 35.2377 34.975 35.1671 34.9528C35.0243 34.9041 34.906 34.8019 34.837 34.6678C34.768 34.5337 34.7537 34.378 34.7971 34.2336Z" fill="#9A4A4D"/>
<path d="M37.6623 30.8711L36.9685 30.3809C36.998 30.3333 37.0369 30.2923 37.0828 30.2604C37.1287 30.2285 37.1807 30.2063 37.2355 30.1953C37.2903 30.1842 37.3469 30.1845 37.4016 30.1962C37.4563 30.2078 37.508 30.2305 37.5536 30.2629C37.6462 30.3311 37.7091 30.4322 37.7293 30.5453C37.7495 30.6585 37.7255 30.7751 37.6623 30.8711Z" fill="#263238"/>
<path d="M37.5005 31.6875C37.5043 31.7341 37.4987 31.7809 37.4842 31.8253C37.4697 31.8697 37.4464 31.9108 37.4159 31.9461C37.3853 31.9814 37.348 32.0102 37.3061 32.031C37.2643 32.0517 37.2187 32.0639 37.1721 32.0668C37.0999 32.0736 37.0273 32.0587 36.9637 32.0239C36.9001 31.9892 36.8483 31.9361 36.8151 31.8717C36.7819 31.8072 36.7687 31.7343 36.7773 31.6623C36.7859 31.5903 36.8159 31.5225 36.8634 31.4677C36.9108 31.4129 36.9736 31.3735 37.0437 31.3547C37.1137 31.3359 37.1877 31.3385 37.2563 31.3621C37.3248 31.3858 37.3847 31.4294 37.4282 31.4874C37.4718 31.5454 37.4969 31.6151 37.5005 31.6875Z" fill="#263238"/>
<path d="M35.5671 31.4886L35.6226 33.5861L36.7257 33.2438L35.5671 31.4886Z" fill="#9A4A4D"/>
<path d="M34.3993 36.2247C33.5089 36.1068 31.6751 35.5795 31.3929 34.8557C31.5073 35.2227 31.7317 35.5456 32.0358 35.7807C32.5839 36.2432 34.4016 36.7774 34.4016 36.7774L34.3993 36.2247Z" fill="#9A4A4D"/>
</svg>
