<svg width="369" height="101" viewBox="0 0 369 101" fill="none" xmlns="http://www.w3.org/2000/svg">
<line y1="2.50653" x2="100.49" y2="2.50653" stroke="#29E7CD" stroke-width="3.98718"/>
<path d="M183.925 22.1506H185.354C186.691 22.1506 187.691 21.889 188.354 21.3657C189.018 20.833 189.349 20.062 189.349 19.0528C189.349 18.0342 189.069 17.2819 188.508 16.796C187.957 16.31 187.088 16.0671 185.901 16.0671H183.925V22.1506ZM193.737 18.8986C193.737 21.104 193.045 22.7908 191.662 23.9589C190.289 25.127 188.331 25.7111 185.789 25.7111H183.925V33.0001H179.579V12.5066H186.125C188.611 12.5066 190.499 13.044 191.788 14.1186C193.087 15.184 193.737 16.7773 193.737 18.8986ZM203.759 20.0761C202.853 20.0761 202.143 20.3657 201.629 20.9451C201.115 21.5152 200.82 22.3282 200.746 23.3842H206.745C206.726 22.3282 206.451 21.5152 205.918 20.9451C205.385 20.3657 204.666 20.0761 203.759 20.0761ZM204.362 33.2805C201.839 33.2805 199.867 32.5843 198.447 31.1919C197.026 29.7995 196.316 27.8277 196.316 25.2765C196.316 22.6506 196.97 20.6227 198.278 19.193C199.596 17.7538 201.414 17.0343 203.731 17.0343C205.946 17.0343 207.67 17.6651 208.904 18.9266C210.137 20.1882 210.754 21.931 210.754 24.1551V26.2297H200.647C200.694 27.4445 201.054 28.3931 201.727 29.0752C202.4 29.7574 203.343 30.0985 204.558 30.0985C205.502 30.0985 206.395 30.0004 207.236 29.8041C208.077 29.6079 208.955 29.2948 209.871 28.865V32.1731C209.123 32.5469 208.324 32.8226 207.474 33.0001C206.623 33.187 205.586 33.2805 204.362 33.2805ZM222.977 17.0343C223.557 17.0343 224.038 17.0763 224.421 17.1604L224.099 21.1694C223.753 21.076 223.332 21.0292 222.837 21.0292C221.473 21.0292 220.407 21.3797 219.641 22.0805C218.884 22.7814 218.506 23.7626 218.506 25.0242V33.0001H214.23V17.3286H217.468L218.099 19.9639H218.309C218.795 19.0855 219.449 18.3799 220.272 17.8473C221.103 17.3053 222.005 17.0343 222.977 17.0343ZM238.2 28.3463C238.2 29.9537 237.639 31.1779 236.518 32.0189C235.406 32.8599 233.738 33.2805 231.514 33.2805C230.374 33.2805 229.402 33.201 228.598 33.0422C227.794 32.8927 227.042 32.6684 226.341 32.3693V28.8369C227.136 29.2107 228.028 29.5238 229.019 29.7761C230.019 30.0284 230.897 30.1546 231.654 30.1546C233.205 30.1546 233.981 29.706 233.981 28.8089C233.981 28.4725 233.878 28.2015 233.672 27.9959C233.467 27.781 233.112 27.5427 232.607 27.281C232.103 27.01 231.43 26.697 230.589 26.3418C229.383 25.8372 228.495 25.37 227.925 24.9401C227.365 24.5102 226.953 24.0196 226.692 23.4683C226.439 22.9076 226.313 22.2207 226.313 21.4077C226.313 20.0153 226.851 18.9406 227.925 18.1837C229.009 17.4174 230.542 17.0343 232.523 17.0343C234.411 17.0343 236.247 17.4455 238.032 18.2678L236.742 21.3516C235.957 21.0152 235.224 20.7395 234.542 20.5246C233.859 20.3097 233.163 20.2022 232.453 20.2022C231.191 20.2022 230.561 20.5433 230.561 21.2255C230.561 21.6086 230.762 21.9404 231.163 22.2207C231.575 22.5011 232.467 22.9169 233.841 23.4683C235.065 23.9636 235.962 24.4261 236.532 24.856C237.102 25.2859 237.523 25.7811 237.794 26.3418C238.065 26.9025 238.2 27.5707 238.2 28.3463ZM244.942 25.1363C244.942 26.6876 245.195 27.8604 245.699 28.6547C246.213 29.449 247.045 29.8462 248.195 29.8462C249.335 29.8462 250.152 29.4537 250.648 28.6687C251.152 27.8744 251.405 26.697 251.405 25.1363C251.405 23.5851 251.152 22.4216 250.648 21.646C250.143 20.8704 249.316 20.4826 248.166 20.4826C247.026 20.4826 246.204 20.8704 245.699 21.646C245.195 22.4123 244.942 23.5757 244.942 25.1363ZM255.778 25.1363C255.778 27.6875 255.105 29.6827 253.759 31.1218C252.414 32.5609 250.54 33.2805 248.138 33.2805C246.634 33.2805 245.307 32.9534 244.157 32.2993C243.008 31.6358 242.125 30.6872 241.508 29.4537C240.891 28.2202 240.583 26.7811 240.583 25.1363C240.583 22.5758 241.251 20.5854 242.588 19.1649C243.924 17.7445 245.802 17.0343 248.223 17.0343C249.727 17.0343 251.054 17.3613 252.203 18.0155C253.353 18.6696 254.236 19.6088 254.853 20.833C255.47 22.0572 255.778 23.4916 255.778 25.1363ZM273.776 33.0001H269.501V23.8467C269.501 22.716 269.3 21.8703 268.898 21.3096C268.496 20.7395 267.856 20.4545 266.978 20.4545C265.782 20.4545 264.917 20.8564 264.385 21.66C263.852 22.4543 263.586 23.7767 263.586 25.627V33.0001H259.31V17.3286H262.576L263.151 19.3331H263.389C263.866 18.5762 264.52 18.0061 265.352 17.623C266.193 17.2305 267.146 17.0343 268.211 17.0343C270.034 17.0343 271.417 17.5296 272.361 18.5201C273.304 19.5013 273.776 20.9218 273.776 22.7814V33.0001ZM288.13 33.0001L287.303 30.8695H287.191C286.471 31.7759 285.729 32.4067 284.962 32.7618C284.205 33.1076 283.215 33.2805 281.991 33.2805C280.486 33.2805 279.299 32.8506 278.43 31.9909C277.57 31.1311 277.14 29.9069 277.14 28.3183C277.14 26.6549 277.72 25.4307 278.879 24.6457C280.047 23.8514 281.804 23.4122 284.149 23.3281L286.869 23.244V22.5571C286.869 20.9685 286.056 20.1742 284.43 20.1742C283.177 20.1742 281.706 20.5526 280.014 21.3096L278.598 18.422C280.402 17.4782 282.402 17.0062 284.598 17.0062C286.7 17.0062 288.312 17.4641 289.434 18.3799C290.555 19.2958 291.116 20.6881 291.116 22.5571V33.0001H288.13ZM286.869 25.7391L285.215 25.7952C283.972 25.8325 283.047 26.0568 282.439 26.468C281.832 26.8792 281.528 27.5053 281.528 28.3463C281.528 29.5518 282.219 30.1546 283.603 30.1546C284.593 30.1546 285.383 29.8696 285.971 29.2995C286.57 28.7295 286.869 27.9725 286.869 27.0287V25.7391ZM299.807 33.0001H295.531V11.189H299.807V33.0001ZM304.124 13.2776C304.124 11.8852 304.9 11.189 306.451 11.189C308.002 11.189 308.778 11.8852 308.778 13.2776C308.778 13.9411 308.582 14.4597 308.189 14.8335C307.806 15.198 307.227 15.3802 306.451 15.3802C304.9 15.3802 304.124 14.6793 304.124 13.2776ZM308.582 33.0001H304.306V17.3286H308.582V33.0001ZM324.015 28.3463C324.015 29.9537 323.454 31.1779 322.333 32.0189C321.221 32.8599 319.553 33.2805 317.328 33.2805C316.188 33.2805 315.217 33.201 314.413 33.0422C313.609 32.8927 312.857 32.6684 312.156 32.3693V28.8369C312.95 29.2107 313.843 29.5238 314.833 29.7761C315.833 30.0284 316.712 30.1546 317.469 30.1546C319.02 30.1546 319.796 29.706 319.796 28.8089C319.796 28.4725 319.693 28.2015 319.487 27.9959C319.282 27.781 318.926 27.5427 318.422 27.281C317.917 27.01 317.244 26.697 316.403 26.3418C315.198 25.8372 314.31 25.37 313.74 24.9401C313.179 24.5102 312.768 24.0196 312.506 23.4683C312.254 22.9076 312.128 22.2207 312.128 21.4077C312.128 20.0153 312.665 18.9406 313.74 18.1837C314.824 17.4174 316.357 17.0343 318.338 17.0343C320.225 17.0343 322.062 17.4455 323.847 18.2678L322.557 21.3516C321.772 21.0152 321.038 20.7395 320.356 20.5246C319.674 20.3097 318.978 20.2022 318.268 20.2022C317.006 20.2022 316.375 20.5433 316.375 21.2255C316.375 21.6086 316.576 21.9404 316.978 22.2207C317.389 22.5011 318.282 22.9169 319.655 23.4683C320.88 23.9636 321.777 24.4261 322.347 24.856C322.917 25.2859 323.337 25.7811 323.608 26.3418C323.879 26.9025 324.015 27.5707 324.015 28.3463ZM333.841 20.0761C332.935 20.0761 332.224 20.3657 331.71 20.9451C331.196 21.5152 330.902 22.3282 330.827 23.3842H336.827C336.808 22.3282 336.532 21.5152 336 20.9451C335.467 20.3657 334.747 20.0761 333.841 20.0761ZM334.444 33.2805C331.921 33.2805 329.949 32.5843 328.528 31.1919C327.108 29.7995 326.398 27.8277 326.398 25.2765C326.398 22.6506 327.052 20.6227 328.36 19.193C329.678 17.7538 331.495 17.0343 333.813 17.0343C336.028 17.0343 337.752 17.6651 338.985 18.9266C340.219 20.1882 340.836 21.931 340.836 24.1551V26.2297H330.729C330.776 27.4445 331.136 28.3931 331.808 29.0752C332.481 29.7574 333.425 30.0985 334.64 30.0985C335.584 30.0985 336.476 30.0004 337.317 29.8041C338.158 29.6079 339.037 29.2948 339.953 28.865V32.1731C339.205 32.5469 338.406 32.8226 337.556 33.0001C336.705 33.187 335.668 33.2805 334.444 33.2805ZM349.274 33.2805C347.433 33.2805 345.985 32.5656 344.929 31.1358C343.882 29.706 343.359 27.7249 343.359 25.1924C343.359 22.6226 343.891 20.6227 344.957 19.193C346.031 17.7538 347.508 17.0343 349.386 17.0343C351.358 17.0343 352.863 17.8006 353.9 19.3331H354.04C353.825 18.165 353.718 17.123 353.718 16.2072V11.189H358.007V33.0001H354.727L353.9 30.9676H353.718C352.746 32.5095 351.265 33.2805 349.274 33.2805ZM350.774 29.8742C351.867 29.8742 352.666 29.5565 353.171 28.9211C353.685 28.2856 353.965 27.2063 354.012 25.683V25.2204C354.012 23.5384 353.75 22.3329 353.227 21.604C352.713 20.875 351.872 20.5106 350.704 20.5106C349.751 20.5106 349.008 20.9171 348.475 21.7301C347.952 22.5338 347.69 23.7066 347.69 25.2485C347.69 26.7904 347.957 27.9492 348.489 28.7248C349.022 29.4911 349.783 29.8742 350.774 29.8742ZM188.284 54.8288C186.649 54.8288 185.382 55.4455 184.485 56.6791C183.588 57.9033 183.14 59.6134 183.14 61.8095C183.14 66.3791 184.854 68.664 188.284 68.664C189.723 68.664 191.466 68.3042 193.513 67.5846V71.2292C191.83 71.93 189.952 72.2805 187.878 72.2805C184.896 72.2805 182.616 71.3787 181.037 69.5751C179.458 67.7622 178.668 65.1643 178.668 61.7814C178.668 59.6508 179.056 57.7865 179.832 56.1885C180.607 54.5811 181.719 53.3523 183.168 52.5019C184.625 51.6421 186.331 51.2123 188.284 51.2123C190.275 51.2123 192.274 51.6935 194.283 52.6561L192.882 56.1885C192.115 55.824 191.345 55.5063 190.569 55.2353C189.793 54.9643 189.032 54.8288 188.284 54.8288ZM200.956 64.1363C200.956 65.6876 201.208 66.8604 201.713 67.6547C202.227 68.449 203.058 68.8462 204.208 68.8462C205.348 68.8462 206.166 68.4537 206.661 67.6687C207.166 66.8744 207.418 65.697 207.418 64.1363C207.418 62.5851 207.166 61.4216 206.661 60.646C206.156 59.8704 205.329 59.4826 204.18 59.4826C203.04 59.4826 202.217 59.8704 201.713 60.646C201.208 61.4123 200.956 62.5757 200.956 64.1363ZM211.791 64.1363C211.791 66.6875 211.118 68.6827 209.773 70.1218C208.427 71.5609 206.553 72.2805 204.152 72.2805C202.647 72.2805 201.32 71.9534 200.171 71.2993C199.021 70.6358 198.138 69.6872 197.522 68.4537C196.905 67.2202 196.596 65.7811 196.596 64.1363C196.596 61.5758 197.265 59.5854 198.601 58.1649C199.937 56.7445 201.816 56.0343 204.236 56.0343C205.74 56.0343 207.067 56.3613 208.217 57.0155C209.366 57.6696 210.249 58.6088 210.866 59.833C211.483 61.0572 211.791 62.4916 211.791 64.1363ZM225.276 72.0001L224.449 69.8695H224.337C223.617 70.7759 222.874 71.4067 222.108 71.7618C221.351 72.1076 220.361 72.2805 219.136 72.2805C217.632 72.2805 216.445 71.8506 215.576 70.9909C214.716 70.1311 214.286 68.9069 214.286 67.3183C214.286 65.6549 214.866 64.4307 216.025 63.6457C217.193 62.8514 218.949 62.4122 221.295 62.3281L224.014 62.244V61.5571C224.014 59.9685 223.201 59.1742 221.575 59.1742C220.323 59.1742 218.851 59.5526 217.16 60.3096L215.744 57.422C217.548 56.4782 219.548 56.0062 221.744 56.0062C223.846 56.0062 225.458 56.4641 226.58 57.3799C227.701 58.2958 228.262 59.6881 228.262 61.5571V72.0001H225.276ZM224.014 64.7391L222.36 64.7952C221.118 64.8325 220.192 65.0568 219.585 65.468C218.978 65.8792 218.674 66.5053 218.674 67.3463C218.674 68.5518 219.365 69.1546 220.748 69.1546C221.739 69.1546 222.529 68.8696 223.117 68.2995C223.715 67.7295 224.014 66.9725 224.014 66.0287V64.7391ZM239.041 72.2805C234.163 72.2805 231.724 69.6031 231.724 64.2485C231.724 61.5852 232.388 59.5526 233.715 58.1509C235.041 56.7398 236.943 56.0343 239.42 56.0343C241.233 56.0343 242.859 56.3894 244.298 57.0996L243.036 60.4077C242.363 60.1367 241.737 59.9171 241.158 59.7489C240.578 59.5713 239.999 59.4826 239.42 59.4826C237.196 59.4826 236.083 61.0619 236.083 64.2204C236.083 67.2856 237.196 68.8182 239.42 68.8182C240.242 68.8182 241.004 68.7107 241.704 68.4958C242.405 68.2715 243.106 67.9257 243.807 67.4585V71.117C243.116 71.5562 242.415 71.8599 241.704 72.0282C241.004 72.1964 240.116 72.2805 239.041 72.2805ZM261.918 72.0001H257.642V62.8467C257.642 60.5853 256.801 59.4545 255.119 59.4545C253.923 59.4545 253.059 59.861 252.526 60.674C251.993 61.4871 251.727 62.8047 251.727 64.627V72.0001H247.452V50.189H251.727V54.6325C251.727 54.9783 251.694 55.7913 251.629 57.0716L251.531 58.3331H251.755C252.708 56.8006 254.222 56.0343 256.297 56.0343C258.138 56.0343 259.535 56.5296 260.488 57.5201C261.441 58.5107 261.918 59.9311 261.918 61.7814V72.0001ZM266.137 52.2776C266.137 50.8852 266.912 50.189 268.464 50.189C270.015 50.189 270.791 50.8852 270.791 52.2776C270.791 52.9411 270.594 53.4597 270.202 53.8335C269.819 54.198 269.239 54.3802 268.464 54.3802C266.912 54.3802 266.137 53.6793 266.137 52.2776ZM270.594 72.0001H266.319V56.3286H270.594V72.0001ZM289.56 72.0001H285.285V62.8467C285.285 61.716 285.084 60.8703 284.682 60.3096C284.28 59.7395 283.64 59.4545 282.761 59.4545C281.565 59.4545 280.701 59.8564 280.168 60.66C279.636 61.4543 279.369 62.7767 279.369 64.627V72.0001H275.094V56.3286H278.36L278.935 58.3331H279.173C279.65 57.5762 280.304 57.0061 281.135 56.623C281.977 56.2305 282.93 56.0343 283.995 56.0343C285.817 56.0343 287.2 56.5296 288.144 57.5201C289.088 58.5013 289.56 59.9218 289.56 61.7814V72.0001ZM307.6 56.3286V58.5013L305.147 59.1321C305.596 59.833 305.82 60.618 305.82 61.4871C305.82 63.1691 305.231 64.4821 304.054 65.4259C302.886 66.3604 301.26 66.8277 299.176 66.8277L298.405 66.7856L297.774 66.7156C297.335 67.052 297.115 67.4258 297.115 67.8369C297.115 68.4537 297.9 68.7621 299.47 68.7621H302.134C303.853 68.7621 305.161 69.1312 306.058 69.8695C306.965 70.6077 307.418 71.6917 307.418 73.1215C307.418 74.9531 306.652 76.3736 305.119 77.3828C303.596 78.3921 301.405 78.8967 298.545 78.8967C296.358 78.8967 294.686 78.5136 293.527 77.7473C292.377 76.9903 291.803 75.925 291.803 74.5513C291.803 73.6075 292.097 72.8178 292.686 72.1823C293.275 71.5469 294.139 71.0937 295.279 70.8227C294.84 70.6358 294.457 70.332 294.13 69.9115C293.803 69.4817 293.639 69.0284 293.639 68.5518C293.639 67.9538 293.812 67.4585 294.158 67.066C294.503 66.6642 295.003 66.2717 295.658 65.8885C294.835 65.5334 294.181 64.9634 293.695 64.1784C293.218 63.3934 292.98 62.4683 292.98 61.4029C292.98 59.6928 293.536 58.3705 294.648 57.436C295.76 56.5015 297.349 56.0343 299.414 56.0343C299.853 56.0343 300.372 56.0763 300.97 56.1604C301.578 56.2352 301.965 56.2913 302.134 56.3286H307.6ZM295.503 74.2149C295.503 74.8036 295.784 75.2662 296.344 75.6026C296.914 75.939 297.709 76.1072 298.727 76.1072C300.26 76.1072 301.461 75.897 302.33 75.4764C303.199 75.0559 303.633 74.4812 303.633 73.7523C303.633 73.1636 303.376 72.7571 302.862 72.5328C302.349 72.3085 301.554 72.1964 300.48 72.1964H298.265C297.48 72.1964 296.821 72.3786 296.288 72.743C295.765 73.1168 295.503 73.6075 295.503 74.2149ZM297.059 61.459C297.059 62.3094 297.251 62.9822 297.634 63.4775C298.026 63.9728 298.62 64.2204 299.414 64.2204C300.218 64.2204 300.807 63.9728 301.18 63.4775C301.554 62.9822 301.741 62.3094 301.741 61.459C301.741 59.5713 300.965 58.6275 299.414 58.6275C297.844 58.6275 297.059 59.5713 297.059 61.459Z" fill="black"/>
<path d="M74.936 29.1351C73.9699 30.7089 72.1631 34.4479 71.6102 35.2399C70.723 34.2109 68.9386 31.9545 68.5416 31.4988C68.0392 30.9195 66.4675 29.9898 66.4675 29.9898L65.9327 32.3495C65.9327 32.3495 69.3882 37.7738 70.4253 38.8068C71.0836 39.465 71.8431 39.8823 73.3886 38.2457C74.8307 36.7205 78.2497 32.1692 78.2497 32.1692L78.351 26.7511C76.6942 26.6336 76.1858 27.1035 74.936 29.1351Z" fill="#FFA8A7"/>
<path d="M71.6101 35.2399C71.9808 35.645 72.4102 36.2425 72.5277 36.597C72.4709 35.9665 72.2331 35.3658 71.843 34.8672L71.6101 35.2399Z" fill="#F28F8F"/>
<path d="M65.7403 27.377L64.3549 26.5668V34.1907C64.3217 34.3784 64.2235 34.5484 64.0774 34.6708L65.4628 35.4708C65.6089 35.3484 65.7072 35.1785 65.7403 34.9908V27.377Z" fill="#37474F"/>
<path d="M64.3548 29.6536C64.3548 29.6536 63.9639 29.7549 63.8282 30.3666C63.6925 30.9783 63.6399 32.145 63.9963 32.5217C64.3528 32.8984 64.8369 33.0544 65.1509 32.9106C65.7403 32.6392 65.5337 31.4381 65.0516 31.1707C64.2819 30.7413 64.3629 30.2511 64.3629 30.2511L64.3548 29.6536Z" fill="#FFA8A7"/>
<path d="M67.4235 27.3627L66.8402 28.1061V33.3136L67.4701 34.3264L65.4709 35.4789C65.6222 35.3609 65.7217 35.1888 65.7484 34.9988V28.3431L67.4235 27.3627Z" fill="#455A64"/>
<path d="M67.4741 34.3183V34.6383L65.4628 35.7989V35.4789L67.4741 34.3183Z" fill="#4CA9EE"/>
<path d="M65.4629 35.7989L64.0795 34.9988V34.6788L65.4629 35.4788V35.7989Z" fill="#4CA9EE"/>
<path opacity="0.1" d="M65.4629 35.7989L64.0795 34.9988V34.6788L65.4629 35.4788V35.7989Z" fill="black"/>
<path d="M65.8052 24.0126C66.0401 23.8708 66.3662 23.8891 66.7288 24.0977H66.743C67.1202 24.3436 67.4341 24.675 67.6593 25.0649C67.8845 25.4548 68.0147 25.8923 68.0393 26.3419V26.3581C68.0393 26.7855 67.8833 27.0833 67.6342 27.2109L66.585 27.8185L64.835 24.5656L65.8052 24.0126Z" fill="#4CA9EE"/>
<path opacity="0.8" d="M65.8052 24.0126C66.0401 23.8708 66.3662 23.8891 66.7288 24.0977H66.743C67.1202 24.3436 67.4341 24.675 67.6593 25.0649C67.8845 25.4548 68.0147 25.8923 68.0393 26.3419V26.3581C68.0393 26.7855 67.8833 27.0833 67.6342 27.2109L66.585 27.8185L64.835 24.5656L65.8052 24.0126Z" fill="#FAFAFA"/>
<path opacity="0.2" d="M67.6342 27.219L66.585 27.8266L66.0057 26.7491L67.9178 25.6432C67.9944 25.8677 68.0354 26.1028 68.0393 26.3399V26.3561C68.0393 26.7937 67.8834 27.0914 67.6342 27.219Z" fill="#4CA9EE"/>
<path d="M63.5406 24.8086C63.808 24.6567 64.1645 24.6628 64.5534 24.8572C64.5967 24.8768 64.6386 24.8991 64.679 24.9241C64.7296 24.9524 64.7782 24.9828 64.8289 25.0173C64.9115 25.0732 64.9906 25.134 65.0658 25.1996C65.2113 25.3237 65.3467 25.4592 65.4709 25.6046C65.8066 26.0159 66.056 26.4905 66.2042 27.0002C66.2726 27.2394 66.3087 27.4867 66.3115 27.7355C66.3115 28.2418 66.1373 28.6003 65.8558 28.7766L66.8584 28.1993C67.0437 28.079 67.1952 27.9133 67.2984 27.718C67.4015 27.5226 67.453 27.3041 67.4478 27.0833C67.4457 26.8451 67.413 26.6082 67.3506 26.3784C67.2036 25.8594 66.9505 25.3766 66.6072 24.9605C66.4852 24.8131 66.3495 24.6775 66.2021 24.5554C66.1269 24.4893 66.0478 24.4277 65.9652 24.3711C65.9165 24.3387 65.8659 24.3063 65.8173 24.278C65.7687 24.2496 65.7322 24.2314 65.6897 24.2111C65.5117 24.1274 65.3169 24.0857 65.1202 24.0892C64.9235 24.0927 64.7303 24.1413 64.5554 24.2314L64.5271 24.2476L64.4926 24.2699L63.5406 24.8086Z" fill="#4CA9EE"/>
<path opacity="0.1" d="M66.8625 28.2033C67.0479 28.0831 67.1993 27.9174 67.3025 27.722C67.4057 27.5267 67.4571 27.3081 67.452 27.0873C67.4498 26.8491 67.4171 26.6122 67.3547 26.3824L66.2103 27.0063C66.2788 27.2454 66.3149 27.4927 66.3177 27.7415C66.3177 28.2479 66.1435 28.6064 65.8619 28.7826L66.8625 28.2033Z" fill="black"/>
<path d="M63.0627 25.8618C63.0627 26.8989 63.7899 28.1608 64.6831 28.6793C65.1348 28.9406 65.544 28.9629 65.8377 28.7887H65.8539C66.1354 28.6125 66.3096 28.2539 66.3096 27.7476C66.2799 27.1839 66.1177 26.6352 65.8362 26.146C65.5546 25.6569 65.1617 25.241 64.6892 24.9321C64.2416 24.6729 63.8345 24.6486 63.5408 24.8167C63.2471 24.9848 63.0627 25.3433 63.0627 25.8618Z" fill="#4CA9EE"/>
<path opacity="0.2" d="M63.0627 25.8618C63.0627 26.8989 63.7899 28.1608 64.6831 28.6793C65.1348 28.9406 65.544 28.9629 65.8377 28.7887H65.8539C66.1354 28.6125 66.3096 28.2539 66.3096 27.7476C66.2799 27.1839 66.1177 26.6352 65.8362 26.146C65.5546 25.6569 65.1617 25.241 64.6892 24.9321C64.2416 24.6729 63.8345 24.6486 63.5408 24.8167C63.2471 24.9848 63.0627 25.3433 63.0627 25.8618Z" fill="black"/>
<path d="M58.0779 25.5945C58.0779 25.5945 59.7165 26.4351 61.1161 28.8637C61.3694 29.2983 61.5914 29.7505 61.7805 30.2167C62.4853 31.9424 62.4266 33.1314 62.4266 33.1314C62.9147 31.9343 63.5244 30.7008 64.5372 29.7447C64.9346 29.3755 65.351 29.0273 65.7849 28.7016C66.0522 28.5477 66.2082 28.2074 66.2082 27.7415C66.2033 27.4154 66.1416 27.0925 66.0259 26.7875C65.9513 26.5812 65.8584 26.3819 65.7484 26.192C65.4827 25.7118 65.0994 25.3068 64.6344 25.0152C64.2293 24.7823 63.8606 24.7499 63.5913 24.9038C63.0932 25.1174 62.5841 25.304 62.0661 25.4629C60.7353 25.8619 59.358 25.7687 58.0779 25.5945Z" fill="#4CA9EE"/>
<path opacity="0.8" d="M58.0779 25.5945C58.0779 25.5945 59.7165 26.4351 61.1161 28.8637C61.3694 29.2983 61.5914 29.7505 61.7805 30.2167C62.4853 31.9424 62.4266 33.1314 62.4266 33.1314C62.9147 31.9343 63.5244 30.7008 64.5372 29.7447C64.9346 29.3755 65.351 29.0273 65.7849 28.7016C66.0522 28.5477 66.2082 28.2074 66.2082 27.7415C66.2033 27.4154 66.1416 27.0925 66.0259 26.7875C65.9513 26.5812 65.8584 26.3819 65.7484 26.192C65.4827 25.7118 65.0994 25.3068 64.6344 25.0152C64.2293 24.7823 63.8606 24.7499 63.5913 24.9038C63.0932 25.1174 62.5841 25.304 62.0661 25.4629C60.7353 25.8619 59.358 25.7687 58.0779 25.5945Z" fill="#FAFAFA"/>
<path opacity="0.2" d="M61.7825 30.2167C62.4873 31.9424 62.4286 33.1314 62.4286 33.1314C62.9167 31.9343 63.5264 30.7008 64.5392 29.7447C64.9365 29.3755 65.353 29.0273 65.7869 28.7016C66.0542 28.5477 66.2102 28.2074 66.2102 27.7415C66.2053 27.4154 66.1436 27.0925 66.0279 26.7875C64.7842 27.4073 62.7729 28.5558 61.7825 30.2167Z" fill="#4CA9EE"/>
<path d="M54.9871 27.938C55.0206 29.1114 55.3242 30.2612 55.8742 31.2983C56.5852 32.6979 57.6567 33.9476 58.8557 34.6403C60.9947 35.8759 62.7264 34.8753 62.7264 32.4123C62.7201 31.8208 62.6343 31.2329 62.4712 30.6643C62.0382 29.1625 61.2312 27.7952 60.1257 26.6903C59.9738 26.5424 59.8199 26.4006 59.6599 26.271L59.4573 26.111C59.3614 26.0381 59.2642 25.9706 59.1656 25.9085C59.0671 25.8463 58.9638 25.7788 58.8557 25.7059C56.7189 24.4663 54.9871 25.4669 54.9871 27.938Z" fill="#4CA9EE"/>
<path opacity="0.1" d="M55.8743 31.2942C56.5852 32.6938 57.6567 33.9436 58.8558 34.6363C60.9947 35.8718 62.7265 34.8712 62.7265 32.4082C62.7201 31.8168 62.6343 31.2288 62.4713 30.6602C62.3275 30.9782 61.8069 31.434 61.576 31.116C61.718 31.6211 61.7929 32.1428 61.7988 32.6675C61.7988 33.3764 61.6408 33.9476 61.3431 34.3223C61.2198 34.479 61.0612 34.6043 60.8803 34.6881C60.6994 34.7718 60.5012 34.8117 60.302 34.8044C59.7986 34.7787 59.3103 34.6239 58.8841 34.3547C57.8714 33.7653 56.9235 32.708 56.251 31.5069C56.251 31.5008 56.1173 31.6143 55.8743 31.2942Z" fill="black"/>
<path d="M55.2504 28.0717C55.2504 29.1614 55.6332 30.3929 56.251 31.5009C56.9153 32.702 57.8551 33.7593 58.8841 34.3487C59.3103 34.6178 59.7985 34.7727 60.3019 34.7984C60.5012 34.8057 60.6993 34.7658 60.8802 34.682C61.0611 34.5983 61.2197 34.4729 61.343 34.3163C61.6408 33.9416 61.7988 33.3704 61.7988 32.6615C61.7929 32.1368 61.718 31.6151 61.576 31.1099C61.5213 30.9074 61.4565 30.7048 61.3835 30.5023C61.254 30.1479 61.1018 29.8021 60.9278 29.4673C60.8913 29.3984 60.8549 29.3295 60.8164 29.2647C60.7536 29.1513 60.6888 29.0379 60.6139 28.9265C60.3868 28.5498 60.1316 28.191 59.8502 27.853C59.6687 27.6359 59.4753 27.429 59.271 27.2332C59.1271 27.0954 58.9813 26.9658 58.8314 26.8463C58.7686 26.7957 58.7038 26.747 58.641 26.7005C58.5782 26.6539 58.4851 26.5891 58.4081 26.5384C58.3311 26.4878 58.2542 26.4412 58.1772 26.3966C57.751 26.1277 57.2627 25.9728 56.7594 25.947C55.8114 25.9369 55.2504 26.7369 55.2504 28.0717Z" fill="#4CA9EE"/>
<path opacity="0.3" d="M55.2504 28.0717C55.2504 29.1614 55.6332 30.3929 56.251 31.5009C56.9153 32.702 57.8551 33.7593 58.8841 34.3487C59.3103 34.6178 59.7985 34.7727 60.3019 34.7984C60.5012 34.8057 60.6993 34.7658 60.8802 34.682C61.0611 34.5983 61.2197 34.4729 61.343 34.3163C61.6408 33.9416 61.7988 33.3704 61.7988 32.6615C61.7929 32.1368 61.718 31.6151 61.576 31.1099C61.5213 30.9074 61.4565 30.7048 61.3835 30.5023C61.254 30.1479 61.1018 29.8021 60.9278 29.4673C60.8913 29.3984 60.8549 29.3295 60.8164 29.2647C60.7536 29.1513 60.6888 29.0379 60.6139 28.9265C60.3868 28.5498 60.1316 28.191 59.8502 27.853C59.6687 27.6359 59.4753 27.429 59.271 27.2332C59.1271 27.0954 58.9813 26.9658 58.8314 26.8463C58.7686 26.7957 58.7038 26.747 58.641 26.7005C58.5782 26.6539 58.4851 26.5891 58.4081 26.5384C58.3311 26.4878 58.2542 26.4412 58.1772 26.3966C57.751 26.1277 57.2627 25.9728 56.7594 25.947C55.8114 25.9369 55.2504 26.7369 55.2504 28.0717Z" fill="black"/>
<path d="M58.5397 28.6793L59.8968 31.2132C60.2796 31.0714 60.9257 30.8425 61.4503 30.7068C61.428 30.64 61.4057 30.5752 61.3814 30.5043C61.2514 30.1494 61.0992 29.803 60.9257 29.4672L60.8143 29.2647C60.7515 29.1512 60.6867 29.0378 60.6117 28.9264C60.3852 28.5501 60.1299 28.1919 59.8481 27.8549V27.8428L59.7246 27.699C59.3585 28.0592 58.9621 28.3871 58.5397 28.6793Z" fill="#4CA9EE"/>
<g opacity="0.6">
<path opacity="0.6" d="M58.5397 28.6793L59.8968 31.2132C60.2796 31.0714 60.9257 30.8425 61.4503 30.7068C61.428 30.64 61.4057 30.5752 61.3814 30.5043C61.2514 30.1494 61.0992 29.803 60.9257 29.4672L60.8143 29.2647C60.7515 29.1512 60.6867 29.0378 60.6117 28.9264C60.3852 28.5501 60.1299 28.1919 59.8481 27.8549V27.8428L59.7246 27.699C59.3585 28.0592 58.9621 28.3871 58.5397 28.6793Z" fill="#FAFAFA"/>
</g>
<path d="M59.7833 31.2072C60.0912 31.2072 60.2735 30.9601 60.2735 30.5448V30.5327C60.2541 30.1769 60.1513 29.8307 59.9732 29.5221C59.7951 29.2135 59.5469 28.9511 59.2486 28.7563C59.1192 28.6757 58.9714 28.6297 58.8192 28.6227C58.5133 28.6227 58.329 28.8718 58.329 29.287V29.2992C58.3489 29.6548 58.4522 30.0007 58.6306 30.3089C58.809 30.6172 59.0575 30.8791 59.3559 31.0735H59.366C59.495 31.1529 59.6421 31.1982 59.7934 31.2051L59.7833 31.2072Z" fill="#4CA9EE"/>
<g opacity="0.8">
<path opacity="0.8" d="M59.7833 31.2072C60.0912 31.2072 60.2735 30.9601 60.2735 30.5448V30.5327C60.2541 30.1769 60.1513 29.8307 59.9732 29.5221C59.7951 29.2135 59.5469 28.9511 59.2486 28.7563C59.1192 28.6757 58.9714 28.6297 58.8192 28.6227C58.5133 28.6227 58.329 28.8718 58.329 29.287V29.2992C58.3489 29.6548 58.4522 30.0007 58.6306 30.3089C58.809 30.6172 59.0575 30.8791 59.3559 31.0735H59.366C59.495 31.1529 59.6421 31.1982 59.7934 31.2051L59.7833 31.2072Z" fill="#FAFAFA"/>
</g>
<path d="M58.319 24.0673C58.3592 24.0675 58.3991 24.0598 58.4363 24.0445C58.4736 24.0292 58.5074 24.0067 58.5358 23.9783C58.5643 23.9498 58.5868 23.916 58.6021 23.8788C58.6174 23.8415 58.6251 23.8016 58.6248 23.7614V20.8103C58.6298 20.7674 58.6256 20.724 58.6126 20.6829C58.5996 20.6418 58.578 20.6039 58.5493 20.5717C58.5206 20.5395 58.4855 20.5137 58.4461 20.4961C58.4068 20.4784 58.3641 20.4693 58.321 20.4693C58.2779 20.4693 58.2352 20.4784 58.1959 20.4961C58.1565 20.5137 58.1213 20.5395 58.0926 20.5717C58.0639 20.6039 58.0424 20.6418 58.0294 20.6829C58.0164 20.724 58.0122 20.7674 58.0172 20.8103V23.7614C58.0169 23.8013 58.0245 23.8409 58.0395 23.8778C58.0545 23.9148 58.0767 23.9484 58.1047 23.9768C58.1327 24.0052 58.1661 24.0278 58.2028 24.0434C58.2396 24.0589 58.2791 24.067 58.319 24.0673Z" fill="#E0E0E0"/>
<path d="M61.0148 24.7884C61.0687 24.7884 61.1216 24.7741 61.1682 24.7471C61.2148 24.7201 61.2534 24.6812 61.2802 24.6345L62.7547 22.0783C62.7775 22.0435 62.793 22.0044 62.8002 21.9634C62.8074 21.9225 62.8061 21.8805 62.7965 21.84C62.7869 21.7995 62.7691 21.7614 62.7443 21.7281C62.7195 21.6947 62.6881 21.6667 62.6521 21.6459C62.6161 21.6251 62.5762 21.6118 62.5349 21.6069C62.4936 21.602 62.4517 21.6056 62.4118 21.6175C62.372 21.6293 62.3349 21.6492 62.303 21.6758C62.271 21.7025 62.2449 21.7353 62.2261 21.7724L60.7495 24.3286C60.7293 24.3634 60.7162 24.4018 60.711 24.4417C60.7057 24.4816 60.7085 24.5221 60.719 24.5609C60.7296 24.5998 60.7477 24.6361 60.7724 24.6678C60.7971 24.6996 60.8279 24.7261 60.8629 24.7459C60.9087 24.7737 60.9613 24.7884 61.0148 24.7884Z" fill="#E0E0E0"/>
<path d="M63.802 39.0154C63.8553 39.0157 63.9077 39.0017 63.9539 38.9749C63.9887 38.955 64.0193 38.9283 64.0438 38.8965C64.0683 38.8647 64.0863 38.8283 64.0966 38.7895C64.107 38.7507 64.1095 38.7103 64.1042 38.6705C64.0988 38.6307 64.0856 38.5923 64.0653 38.5577L62.5887 36.0015C62.5699 35.9644 62.5437 35.9315 62.5118 35.9049C62.4799 35.8782 62.4428 35.8584 62.4029 35.8465C62.3631 35.8347 62.3212 35.8311 62.2799 35.836C62.2386 35.8409 62.1987 35.8541 62.1627 35.875C62.1267 35.8958 62.0953 35.9237 62.0705 35.9571C62.0457 35.9905 62.0279 36.0286 62.0183 36.0691C62.0087 36.1095 62.0074 36.1515 62.0146 36.1925C62.0218 36.2335 62.0372 36.2726 62.06 36.3073L63.5366 38.8635C63.5638 38.9098 63.6026 38.9481 63.6491 38.9747C63.6956 39.0014 63.7483 39.0154 63.802 39.0154Z" fill="#E0E0E0"/>
<path d="M58.319 39.4124C58.4001 39.4124 58.4779 39.3802 58.5352 39.3228C58.5926 39.2655 58.6248 39.1877 58.6248 39.1066V36.1534C58.6298 36.1106 58.6256 36.0672 58.6126 36.026C58.5996 35.9849 58.578 35.947 58.5493 35.9148C58.5206 35.8826 58.4855 35.8568 58.4461 35.8392C58.4068 35.8215 58.3641 35.8124 58.321 35.8124C58.2779 35.8124 58.2352 35.8215 58.1959 35.8392C58.1565 35.8568 58.1213 35.8826 58.0926 35.9148C58.0639 35.947 58.0424 35.9849 58.0294 36.026C58.0164 36.0672 58.0122 36.1106 58.0172 36.1534V39.1066C58.0172 39.187 58.0488 39.2642 58.1053 39.3214C58.1618 39.3787 58.2385 39.4114 58.319 39.4124Z" fill="#E0E0E0"/>
<path d="M54.1566 36.6476C54.2102 36.6476 54.2629 36.6336 54.3095 36.6069C54.356 36.5803 54.3948 36.5419 54.4219 36.4957L55.8985 33.9375C55.9391 33.8671 55.95 33.7835 55.9289 33.7051C55.9079 33.6267 55.8565 33.5598 55.7861 33.5192C55.7157 33.4787 55.6321 33.4677 55.5537 33.4888C55.4753 33.5099 55.4084 33.5613 55.3678 33.6317L53.8933 36.1899C53.8529 36.26 53.8419 36.3433 53.8628 36.4215C53.8837 36.4997 53.9347 36.5665 54.0047 36.6071C54.051 36.6334 54.1033 36.6474 54.1566 36.6476Z" fill="#E0E0E0"/>
<path d="M51.1102 33.6094C51.1636 33.6096 51.216 33.5957 51.2621 33.5689L53.8183 32.0923C53.8565 32.0743 53.8905 32.0485 53.9182 32.0167C53.946 31.9848 53.9668 31.9476 53.9794 31.9073C53.9921 31.867 53.9962 31.8245 53.9916 31.7826C53.987 31.7406 53.9738 31.7 53.9528 31.6634C53.9317 31.6268 53.9033 31.5949 53.8694 31.5698C53.8354 31.5447 53.7966 31.5269 53.7555 31.5176C53.7143 31.5082 53.6716 31.5075 53.6302 31.5154C53.5887 31.5233 53.5493 31.5398 53.5145 31.5637L50.9563 33.0402C50.8987 33.0743 50.8538 33.1263 50.8286 33.1883C50.8034 33.2503 50.7992 33.3188 50.8166 33.3834C50.8341 33.448 50.8723 33.5051 50.9253 33.5459C50.9783 33.5867 51.0433 33.609 51.1102 33.6094Z" fill="#E0E0E0"/>
<path d="M49.9942 29.4409H52.9473C53.0219 29.4323 53.0906 29.3966 53.1405 29.3406C53.1905 29.2846 53.218 29.2121 53.218 29.1371C53.218 29.0621 53.1905 28.9897 53.1405 28.9337C53.0906 28.8776 53.0219 28.8419 52.9473 28.8333H49.9942C49.9513 28.8283 49.9079 28.8325 49.8668 28.8455C49.8257 28.8585 49.7878 28.8801 49.7556 28.9088C49.7234 28.9375 49.6976 28.9726 49.68 29.012C49.6623 29.0513 49.6532 29.094 49.6532 29.1371C49.6532 29.1802 49.6623 29.2229 49.68 29.2622C49.6976 29.3016 49.7234 29.3368 49.7556 29.3655C49.7878 29.3942 49.8257 29.4157 49.8668 29.4287C49.9079 29.4417 49.9513 29.4459 49.9942 29.4409Z" fill="#E0E0E0"/>
<path d="M53.6664 26.7551C53.7338 26.7551 53.7993 26.7328 53.8527 26.6917C53.9061 26.6506 53.9445 26.593 53.9618 26.5279C53.9791 26.4627 53.9744 26.3937 53.9485 26.3315C53.9225 26.2693 53.8768 26.2174 53.8183 26.1839L51.2622 24.7073C51.1918 24.6668 51.1082 24.6558 51.0297 24.6769C50.9513 24.698 50.8845 24.7494 50.8439 24.8198C50.8033 24.8901 50.7924 24.9737 50.8135 25.0522C50.8346 25.1306 50.8859 25.1975 50.9563 25.238L53.5206 26.7227C53.5656 26.746 53.6158 26.7571 53.6664 26.7551Z" fill="#E0E0E0"/>
<path d="M55.6331 24.7883C55.6867 24.7884 55.7393 24.7737 55.785 24.7458C55.8201 24.726 55.8508 24.6995 55.8755 24.6678C55.9002 24.636 55.9184 24.5997 55.9289 24.5609C55.9395 24.5221 55.9422 24.4815 55.937 24.4417C55.9318 24.4018 55.9187 24.3633 55.8985 24.3286L54.4219 21.7724C54.379 21.707 54.3128 21.6605 54.2367 21.6425C54.1607 21.6244 54.0806 21.6362 54.0129 21.6753C53.9453 21.7144 53.8951 21.778 53.8729 21.853C53.8506 21.9279 53.8579 22.0085 53.8932 22.0782L55.3678 24.6344C55.3945 24.6812 55.4332 24.72 55.4798 24.747C55.5263 24.7741 55.5793 24.7883 55.6331 24.7883Z" fill="#E0E0E0"/>
<path d="M68.5436 31.4989C67.9359 30.7717 67.9116 30.3099 67.4498 29.9575C66.988 29.605 66.5323 29.5929 65.8598 29.7995C65.3534 29.9575 64.7559 29.8967 64.5534 30.0912C64.4946 30.1317 64.5939 30.4558 64.8349 30.5692C65.1266 30.7029 65.5904 30.6603 65.9327 30.6543C66.7145 30.6421 66.0907 31.4199 66.8584 32.1815C67.1885 32.7324 68.5436 31.4989 68.5436 31.4989Z" fill="#FFA8A7"/>
<path d="M82.8113 25.5925C83.0928 24.6972 84.1481 23.6055 84.9158 22.6089C85.7766 21.4787 86.5503 19.1757 84.8894 17.6668C84.8894 17.6668 85.0029 15.0458 82.3333 14.5576C79.9553 14.1242 77.8974 15.3192 75.396 14.9749C74.1807 14.8088 73.6115 16.2084 74.9382 17.5493C74.9382 17.5493 74.0207 18.5073 74.5331 19.6274C75.0456 20.7475 76.6599 20.5673 76.6599 20.5673L82.8113 25.5925Z" fill="#263238"/>
<path d="M84.2574 17.4055C84.3262 17.3045 84.4118 17.2161 84.5105 17.1442C84.7664 16.9806 85.0585 16.8825 85.3613 16.8586C85.9043 16.7823 86.4576 16.8329 86.9777 17.0065C87.4979 17.1801 87.9707 17.472 88.359 17.8592C89.08 18.6187 89.3717 19.7044 89.4021 20.7516C89.4325 21.7987 89.2421 22.8378 89.1287 23.8789C89.0331 24.604 89.0277 25.338 89.1125 26.0644C89.1996 26.6721 89.4082 27.4336 89.8214 27.9157C90.0908 28.2317 90.5242 28.4869 90.5141 28.9406C90.504 29.3943 90.0948 29.6313 89.6776 29.6981C88.4785 29.8885 87.1761 29.3092 86.4368 28.3735C86.3963 28.3228 86.3598 28.2722 86.3234 28.2216C85.6752 27.3101 85.6489 26.2751 85.6549 25.2016C85.6549 24.0389 85.979 22.9128 86.1795 21.7765C86.2882 21.2027 86.3566 20.6219 86.3841 20.0386C86.3943 19.6679 86.3983 19.2102 86.1694 18.8942C86.0481 18.7244 85.8832 18.5906 85.6921 18.5068C85.501 18.4231 85.2908 18.3924 85.0838 18.4182C84.9097 18.4695 84.7264 18.4819 84.547 18.4547C84.4281 18.4177 84.3228 18.3465 84.2442 18.2499C84.1657 18.1534 84.1174 18.0357 84.1055 17.9118C84.0959 17.7305 84.1496 17.5516 84.2574 17.4055Z" fill="#263238"/>
<path d="M83.437 69.0554L87.7331 68.9784C87.6683 71.8465 87.2125 75.0286 87.1376 77.7184C87.1234 78.2248 87.1518 81.6539 86.9593 82.6971C86.6737 84.2628 84.8143 84.0501 84.7151 83.1143C84.6158 82.1785 84.8346 78.1742 84.8305 77.761C84.8467 76.0352 84.0366 73.1226 83.6152 70.0256C83.593 69.8818 83.4552 69.2134 83.437 69.0554Z" fill="#FFA8A7"/>
<path d="M84.0163 83.7746C83.9779 84.6942 84.0589 85.314 84.3283 85.8831C84.5977 86.4523 85.1952 86.6832 85.8312 86.588C86.4672 86.4928 87.3037 86.1545 87.561 85.3828C87.8182 84.6111 87.8364 84.0663 87.7797 83.2034L84.0163 83.7746Z" fill="#263238"/>
<path d="M87.1437 77.3984C87.3969 77.445 87.3462 78.6806 87.3726 79.9242C87.3969 81.259 87.7351 81.8424 87.7675 82.9382C87.806 84.1899 87.6845 84.7348 87.1781 85.4376C86.6717 86.1404 85.0655 86.7197 84.4174 85.5733C83.8887 84.6396 83.9616 83.6714 84.1419 82.4439C84.3283 81.1739 84.468 80.2827 84.5146 79.3105C84.5571 78.3808 84.5835 77.4876 84.8164 77.3984C84.8164 77.5362 84.8164 77.7104 84.8164 77.8461C84.8164 77.9494 84.7961 78.4537 84.9379 78.4719C84.9619 78.3573 84.9748 78.2407 84.9764 78.1236C84.9717 78.0173 85.0071 77.9132 85.0757 77.8319C85.1615 77.7675 85.2661 77.7333 85.3734 77.7347C85.6297 77.7063 85.8873 77.6921 86.1451 77.6921C86.2727 77.6921 86.4003 77.6921 86.5279 77.7144C86.6381 77.7234 86.7462 77.7501 86.848 77.7934C86.8777 77.8063 86.9044 77.8254 86.926 77.8495C86.9477 77.8737 86.9639 77.9022 86.9735 77.9332C86.9816 77.9801 86.9816 78.028 86.9735 78.075C86.9614 78.1603 86.9614 78.2469 86.9735 78.3322C86.9735 78.3686 86.9999 78.4173 87.0363 78.4112C87.0728 78.4051 87.0829 78.3707 87.087 78.3403C87.1011 78.1924 87.087 78.081 87.1052 77.9068C87.1052 77.8278 87.1052 77.7164 87.1052 77.6354C87.1052 77.5544 87.1437 77.4774 87.1437 77.3984Z" fill="#455A64"/>
<path d="M87.7512 82.5816C87.7512 82.7618 87.7917 83.9569 87.4494 84.1371C87.1071 84.3174 86.9795 83.3857 86.9795 83.3857C86.9795 83.3857 86.1896 83.0535 84.954 83.4525C84.9945 83.6551 84.7515 84.2627 84.4355 84.0966C84.1195 83.9305 84.1337 82.5674 84.1337 82.5492C83.9656 83.726 83.9129 84.6678 84.4254 85.5732C85.0735 86.7196 86.6777 86.1404 87.1861 85.4375C87.6945 84.7347 87.814 84.1898 87.7755 82.9381C87.7715 82.8125 87.7634 82.695 87.7512 82.5816Z" fill="#37474F"/>
<path d="M86.8783 83.4547C86.8398 83.9023 87.2955 83.7949 87.3786 83.167C87.4616 82.5391 87.2651 81.0079 87.3786 79.9263C87.3543 78.6826 87.4029 77.4471 87.1497 77.4005C87.1488 77.4153 87.1488 77.4302 87.1497 77.445L87.1213 78.075C87.1213 78.1661 87.1213 78.2471 87.1092 78.3423C87.0221 79.2538 86.9735 81.0261 86.9694 81.8667C86.968 82.3973 86.9375 82.9274 86.8783 83.4547Z" fill="#263238"/>
<path d="M85.0898 83.4546C85.0317 82.9267 85.0033 82.3958 85.0047 81.8646C85.0047 81.0301 84.95 79.2801 84.867 78.3626C84.8358 78.1923 84.8229 78.0191 84.8285 77.8461C84.8285 77.7185 84.8285 77.5605 84.8285 77.4268C84.8274 77.4174 84.8274 77.4079 84.8285 77.3984C84.6604 77.4612 84.6016 77.9534 84.5652 78.5732C84.5652 78.9338 84.5652 79.3834 84.5996 79.9242C84.711 81.0079 84.5146 82.5472 84.5996 83.165C84.6847 83.7828 85.1303 83.9023 85.0898 83.4546Z" fill="#263238"/>
<path d="M75.4992 74.7267C75.5316 73.8395 74.9361 65.5918 74.9361 65.5918L79.0012 68.1682C78.1282 73.3818 77.9419 74.6112 77.9257 75.4599C77.9449 75.5312 77.9531 75.605 77.95 75.6787C77.95 76.6914 76.8015 77.2383 75.9103 77.9067C75.1534 78.5009 74.3462 79.0281 73.498 79.4825C72.8498 79.8066 71.5353 79.837 71.3712 79.4198C72.4569 78.5913 74.0347 77.3517 74.8996 76.4058C75.3108 75.9663 75.4668 75.6199 75.4992 74.7267Z" fill="#FFA8A7"/>
<path d="M69.5219 80.5238C69.4652 80.5238 69.4004 81.0787 69.7022 81.334C70.0526 81.6337 71.0572 82.1442 72.4102 81.976C73.7633 81.8079 74.4965 81.419 75.0434 80.9633C75.5903 80.5076 76.3437 79.8716 76.9554 79.7358C77.5246 79.6103 78.1424 79.353 78.3247 79.1768C78.507 79.0006 78.4806 78.2188 78.4806 78.2188L69.5219 80.5238Z" fill="#263238"/>
<path d="M77.9358 75.221C77.9853 75.224 78.0322 75.2436 78.069 75.2767C78.1058 75.3098 78.1302 75.3544 78.1384 75.4033C78.1789 75.618 78.2255 76.2459 78.3146 76.5983C78.4536 77.2207 78.4986 77.8604 78.4483 78.4962C78.3734 78.9013 77.4457 79.1747 76.8542 79.4016C76.1563 79.707 75.5088 80.1168 74.9341 80.6169C74.2981 81.1415 72.9612 81.6863 72.0802 81.6802C71.035 81.6802 69.8521 81.3359 69.5929 80.8518C69.2586 80.2442 69.5199 79.9059 71.0674 79.1889C71.3591 79.0532 72.388 78.4435 72.7384 78.2227C73.6884 77.6272 74.6282 76.7948 75.0637 75.7375C75.0989 75.6078 75.1776 75.4941 75.2865 75.4154C75.3809 75.3745 75.4859 75.3645 75.5863 75.3871C75.8447 75.4239 76.096 75.4997 76.3317 75.6119C76.5342 75.7111 76.834 75.8266 76.8299 76.0919C76.8244 76.1849 76.8046 76.2764 76.7712 76.3633C76.753 76.418 76.7388 76.4889 76.7854 76.5213C76.832 76.5537 76.8907 76.5213 76.9312 76.4808C77.0831 76.3258 77.222 76.1584 77.3464 75.9805C77.4187 75.8887 77.5009 75.8051 77.5915 75.7314C77.6837 75.6799 77.7723 75.6224 77.8569 75.5592C77.9541 75.462 77.9298 75.3445 77.9358 75.221Z" fill="#455A64"/>
<path d="M74.9361 80.6129C75.2075 80.3901 75.4931 80.1754 75.7807 79.9829C75.7807 79.9829 73.9578 81.0909 73.2266 80.5906C72.7526 80.2665 72.9774 79.8736 72.9896 79.748C73.0017 79.6224 71.831 79.0836 71.3692 79.0289C71.2416 79.0998 71.1342 79.1586 71.0674 79.1889C69.5199 79.906 69.2586 80.2523 69.5929 80.8519C69.8602 81.336 70.7129 81.7127 72.0619 81.7127C72.945 81.7086 74.3001 81.1375 74.9361 80.6129Z" fill="#37474F"/>
<path d="M73.1152 79.3854C72.1531 79.7702 72.5643 79.9505 72.8336 79.993C73.103 80.0356 74.7234 79.0856 75.7098 78.3038C76.7408 77.4936 77.389 76.5983 77.7718 76.2985C77.9156 76.1871 78.0695 76.0494 78.2052 75.9218C78.1809 75.7192 78.1586 75.5167 78.1404 75.4154C78.1322 75.3666 78.1078 75.322 78.071 75.2889C78.0342 75.2558 77.9873 75.2361 77.9379 75.2331C77.9379 75.3567 77.9561 75.4742 77.8609 75.5673C77.7764 75.6305 77.6877 75.688 77.5955 75.7395C77.5049 75.8133 77.4227 75.8968 77.3505 75.9886C77.2261 76.1665 77.0872 76.3339 76.9352 76.4889C76.0926 77.5442 74.0773 78.9924 73.1152 79.3854Z" fill="#263238"/>
<path d="M72.9024 79.839C72.8882 79.8389 72.8742 79.8357 72.8613 79.8298C72.8484 79.8239 72.8369 79.8153 72.8275 79.8046C72.6203 79.5947 72.3714 79.4305 72.0968 79.3227C71.8222 79.2149 71.5281 79.1659 71.2334 79.1788C71.2209 79.1801 71.2083 79.1789 71.1962 79.1754C71.1842 79.1718 71.1729 79.1659 71.1631 79.158C71.1534 79.1501 71.1452 79.1404 71.1392 79.1293C71.1332 79.1183 71.1294 79.1062 71.1281 79.0937C71.1268 79.0812 71.1279 79.0685 71.1315 79.0565C71.135 79.0444 71.1409 79.0332 71.1488 79.0234C71.1567 79.0136 71.1665 79.0055 71.1775 78.9995C71.1886 78.9935 71.2007 78.9897 71.2132 78.9884C71.5394 78.9727 71.8651 79.0266 72.1689 79.1464C72.4727 79.2661 72.7476 79.4491 72.9753 79.6831C72.9835 79.6926 72.9898 79.7036 72.9936 79.7155C72.9974 79.7274 72.9988 79.74 72.9977 79.7525C72.9966 79.765 72.9929 79.7771 72.987 79.7882C72.9811 79.7992 72.973 79.8089 72.9632 79.8168C72.9459 79.8306 72.9246 79.8385 72.9024 79.839Z" fill="#EBEBEB"/>
<path d="M73.741 79.3226C73.7271 79.3225 73.7134 79.3193 73.7008 79.3133C73.6882 79.3074 73.6771 79.2988 73.6681 79.2882C73.4603 79.079 73.2113 78.9153 72.9369 78.8076C72.6625 78.6998 72.3686 78.6504 72.074 78.6623C72.0615 78.6638 72.0489 78.6628 72.0367 78.6594C72.0246 78.6559 72.0133 78.6501 72.0035 78.6423C71.9936 78.6345 71.9853 78.6249 71.9792 78.6139C71.9731 78.6029 71.9692 78.5908 71.9677 78.5783C71.9662 78.5658 71.9672 78.5531 71.9707 78.541C71.9741 78.5289 71.9799 78.5176 71.9877 78.5077C71.9955 78.4978 72.0052 78.4896 72.0162 78.4835C72.0272 78.4773 72.0392 78.4734 72.0517 78.4719C72.3783 78.456 72.7044 78.5097 73.0086 78.6295C73.3128 78.7493 73.588 78.9324 73.816 79.1667C73.8318 79.1863 73.8391 79.2114 73.8365 79.2365C73.8338 79.2615 73.8213 79.2845 73.8018 79.3004C73.7851 79.3153 73.7634 79.3233 73.741 79.3226Z" fill="#EBEBEB"/>
<path d="M74.5857 78.8324C74.5714 78.8329 74.5572 78.8301 74.5441 78.8241C74.5311 78.8181 74.5197 78.8092 74.5108 78.7979C74.3032 78.5885 74.0542 78.4247 73.7797 78.3169C73.5053 78.2092 73.2113 78.1598 72.9167 78.1721C72.8915 78.1744 72.8665 78.1668 72.8468 78.1509C72.8271 78.135 72.8144 78.1121 72.8114 78.087C72.81 78.0746 72.8111 78.062 72.8146 78.0501C72.8182 78.0381 72.8241 78.027 72.832 78.0173C72.84 78.0077 72.8498 77.9998 72.8608 77.994C72.8719 77.9882 72.884 77.9847 72.8965 77.9837C73.2227 77.9674 73.5487 78.021 73.8526 78.1408C74.1565 78.2606 74.4313 78.4439 74.6586 78.6784C74.6744 78.6981 74.6818 78.7231 74.6792 78.7482C74.6765 78.7733 74.664 78.7962 74.6445 78.8121C74.6279 78.8255 74.6071 78.8327 74.5857 78.8324Z" fill="#EBEBEB"/>
<path d="M75.3593 78.2754C75.3448 78.2756 75.3305 78.2724 75.3175 78.266C75.3045 78.2597 75.2931 78.2504 75.2843 78.2389C75.0773 78.0288 74.8284 77.8645 74.5538 77.7567C74.2792 77.6489 73.985 77.6 73.6903 77.6131C73.6779 77.6148 73.6652 77.614 73.6532 77.6107C73.6411 77.6074 73.6298 77.6017 73.62 77.5939C73.6101 77.5862 73.602 77.5765 73.596 77.5655C73.5899 77.5546 73.5862 77.5425 73.5849 77.53C73.5835 77.5175 73.5846 77.5049 73.5882 77.4928C73.5917 77.4807 73.5976 77.4694 73.6055 77.4596C73.6134 77.4498 73.6232 77.4417 73.6343 77.4357C73.6453 77.4297 73.6575 77.426 73.67 77.4247C73.9963 77.4086 74.3222 77.4622 74.6261 77.582C74.9299 77.7018 75.2047 77.885 75.4322 78.1194C75.448 78.1391 75.4554 78.1642 75.4527 78.1892C75.4501 78.2143 75.4376 78.2373 75.418 78.2531C75.4016 78.2671 75.3808 78.275 75.3593 78.2754Z" fill="#EBEBEB"/>
<path d="M76.1211 77.7164C76.1066 77.7166 76.0923 77.7134 76.0793 77.7071C76.0663 77.7007 76.055 77.6915 76.0461 77.68C75.714 77.2627 74.9261 76.9771 74.2901 77.046C74.2767 77.0484 74.263 77.0478 74.2499 77.0443C74.2368 77.0408 74.2246 77.0345 74.2142 77.0258C74.2038 77.0172 74.1954 77.0063 74.1896 76.9941C74.1838 76.9818 74.1808 76.9684 74.1807 76.9549C74.1778 76.9299 74.1849 76.9048 74.2005 76.8851C74.2161 76.8654 74.2388 76.8526 74.2637 76.8495C74.9706 76.7726 75.8152 77.0825 76.19 77.5544C76.205 77.5745 76.2118 77.5996 76.2087 77.6245C76.2057 77.6494 76.1932 77.6722 76.1738 77.6881C76.1592 77.7023 76.141 77.7122 76.1211 77.7164Z" fill="#EBEBEB"/>
<path d="M84.3261 38.6063C84.9074 39.8439 86.5399 41.8815 87.0625 43.2649C88.134 46.1168 87.6235 48.1828 87.3137 51.934C86.9815 55.9526 86.6635 59.1305 86.6635 59.1305C86.7242 59.8435 87.7167 61.2371 87.8443 64.3968C87.9638 67.3479 87.6418 71.0992 87.6418 71.0992C87.6418 71.0992 85.4137 72.3347 83.765 71.087C83.765 71.087 82.175 63.4955 81.7091 59.801C81.304 56.5764 80.8382 53.9737 80.8382 53.9737L79.5783 59.9711C79.5783 59.9711 79.6674 61.5915 79.8011 62.9648C80.0037 65.1381 78.7884 69.4038 78.7884 69.4038C78.7884 69.4038 76.4854 70.0925 75.0797 68.8448C75.0797 68.8448 74.5328 62.6184 74.5916 59.5275C74.6564 56.0133 75.2701 44.2311 75.7015 39.2078L84.3261 38.6063Z" fill="#4CA9EE"/>
<path opacity="0.3" d="M84.3261 38.6063C84.9074 39.8439 86.5399 41.8815 87.0625 43.2649C88.134 46.1168 87.6235 48.1828 87.3137 51.934C86.9815 55.9526 86.6635 59.1305 86.6635 59.1305C86.7242 59.8435 87.7167 61.2371 87.8443 64.3968C87.9638 67.3479 87.6418 71.0992 87.6418 71.0992C87.6418 71.0992 85.4137 72.3347 83.765 71.087C83.765 71.087 82.175 63.4955 81.7091 59.801C81.304 56.5764 80.8382 53.9737 80.8382 53.9737L79.5783 59.9711C79.5783 59.9711 79.6674 61.5915 79.8011 62.9648C80.0037 65.1381 78.7884 69.4038 78.7884 69.4038C78.7884 69.4038 76.4854 70.0925 75.0797 68.8448C75.0797 68.8448 74.5328 62.6184 74.5916 59.5275C74.6564 56.0133 75.2701 44.2311 75.7015 39.2078L84.3261 38.6063Z" fill="black"/>
<path opacity="0.2" d="M80.8382 53.9797L79.9774 46.9553C79.9774 46.9553 78.2963 46.7366 76.8683 45.0635C76.8683 45.0635 77.1539 46.6697 79.2158 47.4678L80.3521 53.7286L79.5784 59.9813L80.8382 53.9797Z" fill="black"/>
<path d="M84.9156 83.487C84.8969 83.4871 84.8786 83.4816 84.863 83.4711C84.8475 83.4606 84.8355 83.4457 84.8285 83.4283C84.8191 83.4046 84.8194 83.3782 84.8292 83.3547C84.8391 83.3312 84.8577 83.3125 84.8812 83.3027C85.5692 83.0591 86.32 83.0591 87.008 83.3027C87.0312 83.3119 87.0498 83.3298 87.0599 83.3526C87.07 83.3754 87.0708 83.4013 87.062 83.4246C87.0533 83.448 87.0357 83.467 87.0131 83.4775C86.9905 83.488 86.9646 83.4892 86.9411 83.4809C86.2972 83.256 85.596 83.256 84.9521 83.4809L84.9156 83.487Z" fill="#EBEBEB"/>
<path d="M84.8062 82.4965C84.784 82.4963 84.7626 82.4883 84.7456 82.4739C84.7287 82.4595 84.7173 82.4397 84.7135 82.4178C84.7096 82.396 84.7136 82.3734 84.7246 82.3541C84.7356 82.3349 84.753 82.32 84.7738 82.3122C85.5395 82.069 86.3617 82.069 87.1274 82.3122C87.1507 82.3213 87.1697 82.3389 87.1806 82.3615C87.1915 82.384 87.1935 82.4098 87.1861 82.4337C87.1823 82.4458 87.176 82.4569 87.1678 82.4665C87.1595 82.4761 87.1494 82.484 87.1381 82.4896C87.1268 82.4953 87.1145 82.4986 87.1019 82.4995C87.0892 82.5003 87.0766 82.4986 87.0646 82.4945C86.3389 82.2698 85.5622 82.2698 84.8366 82.4945C84.8266 82.4969 84.8164 82.4976 84.8062 82.4965Z" fill="#EBEBEB"/>
<path d="M87.0971 81.5587C87.0837 81.5618 87.0699 81.5618 87.0566 81.5587C86.0276 81.0888 84.8711 81.5425 84.8589 81.5466C84.8472 81.5523 84.8344 81.5555 84.8213 81.556C84.8083 81.5566 84.7953 81.5544 84.7831 81.5497C84.7709 81.545 84.7598 81.5379 84.7505 81.5287C84.7412 81.5195 84.7339 81.5086 84.729 81.4965C84.7242 81.4843 84.7218 81.4714 84.7222 81.4583C84.7226 81.4453 84.7256 81.4324 84.7311 81.4206C84.7367 81.4088 84.7446 81.3982 84.7544 81.3896C84.7641 81.3809 84.7756 81.3744 84.788 81.3704C84.8386 81.3501 86.0296 80.8822 87.1355 81.3845C87.1555 81.3934 87.1719 81.4088 87.1818 81.4282C87.1918 81.4477 87.1948 81.4699 87.1903 81.4913C87.1858 81.5127 87.174 81.5318 87.1571 81.5456C87.1401 81.5594 87.1189 81.5669 87.0971 81.5668V81.5587Z" fill="#EBEBEB"/>
<path d="M87.1173 80.6837C87.104 80.6866 87.0902 80.6866 87.0768 80.6837C86.727 80.5272 86.3488 80.4442 85.9656 80.4397C85.5823 80.4351 85.2023 80.5092 84.8488 80.6574C84.8364 80.664 84.8226 80.6677 84.8086 80.6683C84.7945 80.669 84.7805 80.6665 84.7676 80.6611C84.7546 80.6557 84.743 80.6474 84.7335 80.637C84.7241 80.6265 84.7171 80.6141 84.7131 80.6007C84.7073 80.5894 84.7039 80.5771 84.703 80.5645C84.7021 80.5519 84.7038 80.5392 84.708 80.5273C84.7121 80.5154 84.7187 80.5044 84.7272 80.4951C84.7358 80.4857 84.7461 80.4782 84.7577 80.4731C85.1362 80.3105 85.5445 80.2288 85.9565 80.2333C86.3684 80.2379 86.7749 80.3285 87.1498 80.4994C87.1613 80.5046 87.1716 80.5121 87.1802 80.5214C87.1888 80.5306 87.1955 80.5415 87.1998 80.5534C87.2042 80.5653 87.2061 80.5779 87.2055 80.5906C87.2049 80.6032 87.2018 80.6156 87.1963 80.627C87.1897 80.6428 87.1788 80.6565 87.1648 80.6665C87.1509 80.6765 87.1345 80.6824 87.1173 80.6837Z" fill="#EBEBEB"/>
<path d="M87.1436 79.7014C87.1288 79.7018 87.1141 79.6983 87.1011 79.6912C86.0478 79.1707 84.8629 79.6912 84.8507 79.6912C84.8393 79.6966 84.827 79.6995 84.8144 79.7C84.8018 79.7004 84.7893 79.6983 84.7776 79.6937C84.7658 79.6892 84.7551 79.6823 84.7461 79.6735C84.7371 79.6648 84.73 79.6542 84.7252 79.6426C84.7155 79.6194 84.7151 79.5934 84.7242 79.57C84.7333 79.5466 84.751 79.5276 84.7738 79.517C84.8244 79.4947 86.0498 78.958 87.1861 79.517C87.2087 79.5283 87.2258 79.5481 87.2338 79.572C87.2418 79.596 87.2399 79.6221 87.2287 79.6446C87.2216 79.6614 87.2097 79.6756 87.1946 79.6857C87.1795 79.6958 87.1618 79.7012 87.1436 79.7014Z" fill="#EBEBEB"/>
<path d="M82.6166 26.9252C83.4451 26.9819 84.9541 27.1156 84.9541 27.1156C85.823 27.5997 86.0438 27.9987 86.2038 29.1533C86.2727 29.6434 85.8736 30.9559 85.5293 32.8174L84.7515 36.3154L84.3262 38.6103C83.3013 39.5076 81.8308 40.0281 79.0923 40.0544C77.9124 40.0645 76.7489 39.7768 75.7097 39.2179C75.6712 37.5813 75.4343 35.9488 75.4019 34.9927C74.1096 33.9334 73.6761 32.1834 74.3891 31.043C76.0277 28.3917 77.6177 26.7227 78.673 26.8098L82.6166 26.9252Z" fill="#FFA8A7"/>
<path d="M75.2662 35.0069L75.5457 36.7569C75.5457 36.7569 76.836 37.5833 79.8479 37.4618C84.0386 37.2937 84.7799 36.1878 84.7799 36.1878C85.1 34.9725 85.3876 33.6701 85.6306 32.2907C85.1352 32.1572 84.6953 31.8692 84.3747 31.4685C84.0542 31.0678 83.8697 30.5754 83.8482 30.0627C83.8045 29.5269 83.8719 28.9879 84.0462 28.4794C84.2205 27.9709 84.4979 27.5039 84.861 27.1075L82.8071 26.9799C82.8071 26.9799 78.9364 26.7186 78.351 26.749C77.7657 26.7794 76.8198 27.4397 75.7078 28.8758C74.5958 30.3118 72.8559 32.8255 75.2662 35.0069Z" fill="#455A64"/>
<path d="M93.133 34.9158C91.462 32.8903 89.6005 30.7899 88.4015 29.3457C86.54 27.1035 86.1734 27.1663 84.865 27.1035C84.1824 27.622 84.1581 29.1877 85.0675 32.0579C86.4165 33.1921 89.8578 36.7023 89.8578 36.7023C89.7059 37.0669 88.2516 39.7223 87.3138 40.8485C87.1477 41.051 86.617 41.0693 86.3598 41.1077C85.7051 41.2106 85.0661 41.3957 84.4578 41.6587C83.994 41.8612 83.6861 41.8187 83.6821 41.9443C83.6923 42.0883 83.7567 42.2231 83.8623 42.3215C83.9679 42.42 84.1069 42.4748 84.2512 42.4749C84.474 42.5013 85.0473 42.3615 85.4524 42.2967C85.2184 42.5065 84.9567 42.683 84.6746 42.8213C84.4133 42.9692 83.2912 43.5201 82.8516 43.7328C82.2723 44.0082 82.4182 45.0615 84.0527 45.4099C84.8872 45.5881 85.977 45.4909 87.6622 44.0994C88.1544 43.6943 88.8774 42.8476 89.4648 42.1711C90.99 40.3846 91.9137 39.2321 92.736 38.0958C94.0971 36.2081 93.6839 35.5863 93.133 34.9158Z" fill="#FFA8A7"/>
<path opacity="0.1" d="M77.5612 34.7476C77.5612 34.7476 79.0782 35.9244 80.8019 35.3107C81.2874 35.1565 81.7249 34.8798 82.0722 34.5073C82.4196 34.1348 82.665 33.679 82.7849 33.184C82.7849 33.184 82.9692 35.1629 80.7857 35.8373C78.6853 36.4875 77.5612 34.7476 77.5612 34.7476Z" fill="black"/>
<path d="M75.4971 21.4909C75.5619 24.361 76.4936 25.0719 76.9615 25.2745C77.4294 25.477 78.3287 25.3555 79.2037 25.2097V26.9253C79.2037 26.9253 77.3808 28.4829 77.4557 29.2708C77.5307 30.0587 79.6291 30.1681 80.7633 29.3943C81.5918 28.8312 82.408 27.6706 82.6653 27.3688C82.7617 27.2561 82.8136 27.1121 82.8111 26.9637V22.9128C82.9981 22.9989 83.206 23.0286 83.4096 22.9984C83.6132 22.9682 83.8036 22.8793 83.9575 22.7426C84.7353 22.0762 84.7859 21.021 84.2188 20.4559C83.9454 20.1824 83.2324 20.1034 82.7827 20.7779C82.5802 21.663 82.1994 21.8372 81.9725 21.5618C80.9193 20.2229 80.5851 20.8427 79.0457 19.9232C77.2694 18.8618 76.9635 17.7275 76.6151 16.6135C75.9913 17.0004 75.4181 18.1043 75.4971 21.4909Z" fill="#FFA8A7"/>
<path d="M78.6893 21.1202C78.686 21.1643 78.6915 21.2085 78.7054 21.2505C78.7193 21.2924 78.7414 21.3312 78.7704 21.3645C78.7994 21.3979 78.8348 21.4251 78.8744 21.4447C78.914 21.4643 78.9571 21.4759 79.0012 21.4787C79.0903 21.4809 79.1766 21.4479 79.2414 21.3868C79.3063 21.3258 79.3444 21.2416 79.3476 21.1526C79.3525 21.1078 79.3483 21.0625 79.3351 21.0194C79.3218 20.9764 79.2999 20.9364 79.2707 20.9022C79.2415 20.8679 79.2056 20.8399 79.1652 20.82C79.1247 20.8001 79.0807 20.7887 79.0357 20.7865C78.9907 20.7843 78.9457 20.7913 78.9035 20.8072C78.8613 20.823 78.8228 20.8473 78.7904 20.8785C78.7579 20.9098 78.7322 20.9473 78.7148 20.9889C78.6974 21.0305 78.6888 21.0751 78.6893 21.1202Z" fill="#263238"/>
<path d="M76.0035 21.1202C76.0002 21.1643 76.0057 21.2085 76.0196 21.2505C76.0335 21.2924 76.0556 21.3312 76.0846 21.3645C76.1136 21.3979 76.149 21.4251 76.1886 21.4447C76.2282 21.4643 76.2713 21.4759 76.3154 21.4787C76.4045 21.4809 76.4908 21.4479 76.5556 21.3868C76.6205 21.3258 76.6586 21.2416 76.6618 21.1526C76.6667 21.1078 76.6625 21.0625 76.6493 21.0194C76.6361 20.9764 76.6142 20.9364 76.5849 20.9022C76.5557 20.8679 76.5198 20.8399 76.4794 20.82C76.4389 20.8001 76.3949 20.7887 76.3499 20.7865C76.3049 20.7843 76.2599 20.7913 76.2177 20.8072C76.1755 20.823 76.137 20.8473 76.1046 20.8785C76.0721 20.9098 76.0464 20.9473 76.029 20.9889C76.0117 21.0305 76.003 21.0751 76.0035 21.1202Z" fill="#263238"/>
<path d="M77.8183 20.466L77.7535 22.8804L76.4835 22.4874L77.8183 20.466Z" fill="#F28F8F"/>
<path d="M79.2057 25.2097C80.1273 25.0882 82.0272 24.5434 82.3229 23.7919C82.2039 24.1718 81.9713 24.5062 81.6565 24.75C81.0894 25.2361 79.2057 25.785 79.2057 25.785V25.2097Z" fill="#F28F8F"/>
<path d="M79.0558 19.5018L79.8984 20.0143C79.965 19.8987 79.9843 19.7618 79.9522 19.6323C79.9201 19.5028 79.8391 19.3907 79.7262 19.3196C79.6706 19.286 79.6088 19.264 79.5445 19.255C79.4801 19.246 79.4147 19.2501 79.352 19.2672C79.2893 19.2842 79.2307 19.3138 79.1798 19.3541C79.1289 19.3945 79.0867 19.4447 79.0558 19.5018Z" fill="#263238"/>
<path d="M79.2159 22.9108L78.0918 23.4819C78.1743 23.6315 78.3112 23.7436 78.4741 23.7949C78.6371 23.8462 78.8135 23.8328 78.9668 23.7574C79.0404 23.7199 79.1055 23.6677 79.1583 23.6041C79.211 23.5406 79.2502 23.4669 79.2735 23.3877C79.2969 23.3084 79.3038 23.2253 79.2939 23.1433C79.284 23.0613 79.2574 22.9822 79.2159 22.9108Z" fill="#B16668"/>
<path d="M78.6791 23.7392C78.6794 23.7712 78.6828 23.803 78.6892 23.8344C78.7778 23.8342 78.8654 23.8147 78.9457 23.7772C79.026 23.7396 79.0971 23.685 79.154 23.617C79.2109 23.5491 79.2523 23.4695 79.2752 23.3839C79.2982 23.2983 79.3021 23.2087 79.2867 23.1214C79.1246 23.1241 78.9701 23.1903 78.8564 23.3059C78.7428 23.4215 78.6791 23.5771 78.6791 23.7392Z" fill="#F28F8F"/>
<path d="M75.73 19.7672L76.6678 19.431C76.6494 19.3699 76.6189 19.3131 76.5782 19.264C76.5374 19.2149 76.4872 19.1746 76.4305 19.1453C76.3738 19.116 76.3118 19.0984 76.2482 19.0935C76.1846 19.0887 76.1206 19.0967 76.0602 19.117C75.9312 19.161 75.8246 19.2536 75.7629 19.375C75.7013 19.4965 75.6894 19.6372 75.73 19.7672Z" fill="#263238"/>
<path d="M4.5564 72.1828L52.0439 99.6018L74.1623 86.8311L26.6747 59.4121L4.5564 72.1828Z" fill="#4CA9EE"/>
<path opacity="0.7" d="M4.5564 72.1828L52.0439 99.6018L74.1623 86.8311L26.6747 59.4121L4.5564 72.1828Z" fill="white"/>
<path opacity="0.1" d="M54.4219 89.5757C55.461 90.155 56.2307 91.1333 57.3953 91.4635C58.5843 91.797 59.8505 91.7257 60.9946 91.2609C61.4908 91.0584 61.979 90.7546 62.2099 90.2765C62.4408 89.7985 62.3375 89.118 61.8615 88.8749C61.7342 88.8266 61.6115 88.7669 61.4949 88.6967C61.4382 88.6596 61.3975 88.6027 61.3806 88.5371C61.3637 88.4715 61.372 88.402 61.4038 88.3422C61.5071 88.2085 61.7177 88.2733 61.8716 88.3422C62.5791 88.6556 63.3522 88.7917 64.1241 88.7387C64.896 88.6858 65.6434 88.4454 66.3014 88.0384C66.6781 87.7994 67.0447 87.4672 67.1116 87.0256C67.1311 86.8199 67.1004 86.6125 67.0221 86.4213C66.9437 86.2301 66.8202 86.0607 66.6619 85.9278C66.0543 85.3627 65.1712 85.2067 64.3934 84.992L61.7602 84.2689C60.3687 83.8861 59.038 83.1225 57.7093 82.527C55.7263 81.6338 53.6927 80.7041 52.1736 79.1526C51.1447 78.0993 50.3507 76.7625 49.0625 76.0556C47.3124 75.0975 45.1391 75.448 43.2534 74.9537C41.2684 74.4352 39.3057 73.8944 37.3653 73.1754C33.3029 71.6709 29.4057 69.7535 25.7349 67.4534C26.7179 65.5188 27.4009 63.446 27.7604 61.306C26.4702 60.8543 25.2204 61.9704 23.9484 62.4686C22.9519 62.8596 21.9554 62.8433 20.9608 62.6914L16.7337 65.122C16.9099 65.7438 17.1914 66.3373 17.3838 66.9652C17.6775 67.9071 17.7099 69.0758 16.9787 69.732C16.5554 70.1108 15.966 70.2364 15.413 70.3397L13.0817 70.7995C12.4173 70.9311 11.6517 71.1418 11.3924 71.7676C11.0765 72.5333 11.7489 73.3495 12.4558 73.781C13.7704 74.5912 15.3401 74.8484 16.7883 75.3791C20.1871 76.6187 22.8486 79.2944 26.0144 81.0505C28.2152 82.2657 30.639 83.0236 33.1401 83.2785C35.7226 83.5398 38.3557 83.2623 40.9018 83.7585C42.9029 84.1494 44.9527 84.6963 46.9033 85.2857C47.7273 85.5245 48.5268 85.8405 49.2913 86.2296C49.9759 86.5861 50.6059 86.8271 51.1143 87.4591C51.4768 87.9168 51.7989 88.4293 52.2911 88.7392C52.7833 89.0491 53.3848 89.118 53.9277 89.3266C54.0982 89.3975 54.2634 89.4808 54.4219 89.5757Z" fill="#4CA9EE"/>
<path opacity="0.05" d="M54.4219 89.5757C55.461 90.155 56.2307 91.1333 57.3953 91.4635C58.5843 91.797 59.8505 91.7257 60.9946 91.2609C61.4908 91.0584 61.979 90.7546 62.2099 90.2765C62.4408 89.7985 62.3375 89.118 61.8615 88.8749C61.7342 88.8266 61.6115 88.7669 61.4949 88.6967C61.4382 88.6596 61.3975 88.6027 61.3806 88.5371C61.3637 88.4715 61.372 88.402 61.4038 88.3422C61.5071 88.2085 61.7177 88.2733 61.8716 88.3422C62.5791 88.6556 63.3522 88.7917 64.1241 88.7387C64.896 88.6858 65.6434 88.4454 66.3014 88.0384C66.6781 87.7994 67.0447 87.4672 67.1116 87.0256C67.1311 86.8199 67.1004 86.6125 67.0221 86.4213C66.9437 86.2301 66.8202 86.0607 66.6619 85.9278C66.0543 85.3627 65.1712 85.2067 64.3934 84.992L61.7602 84.2689C60.3687 83.8861 59.038 83.1225 57.7093 82.527C55.7263 81.6338 53.6927 80.7041 52.1736 79.1526C51.1447 78.0993 50.3507 76.7625 49.0625 76.0556C47.3124 75.0975 45.1391 75.448 43.2534 74.9537C41.2684 74.4352 39.3057 73.8944 37.3653 73.1754C33.3029 71.6709 29.4057 69.7535 25.7349 67.4534C26.7179 65.5188 27.4009 63.446 27.7604 61.306C26.4702 60.8543 25.2204 61.9704 23.9484 62.4686C22.9519 62.8596 21.9554 62.8433 20.9608 62.6914L16.7337 65.122C16.9099 65.7438 17.1914 66.3373 17.3838 66.9652C17.6775 67.9071 17.7099 69.0758 16.9787 69.732C16.5554 70.1108 15.966 70.2364 15.413 70.3397L13.0817 70.7995C12.4173 70.9311 11.6517 71.1418 11.3924 71.7676C11.0765 72.5333 11.7489 73.3495 12.4558 73.781C13.7704 74.5912 15.3401 74.8484 16.7883 75.3791C20.1871 76.6187 22.8486 79.2944 26.0144 81.0505C28.2152 82.2657 30.639 83.0236 33.1401 83.2785C35.7226 83.5398 38.3557 83.2623 40.9018 83.7585C42.9029 84.1494 44.9527 84.6963 46.9033 85.2857C47.7273 85.5245 48.5268 85.8405 49.2913 86.2296C49.9759 86.5861 50.6059 86.8271 51.1143 87.4591C51.4768 87.9168 51.7989 88.4293 52.2911 88.7392C52.7833 89.0491 53.3848 89.118 53.9277 89.3266C54.0982 89.3975 54.2634 89.4808 54.4219 89.5757Z" fill="black"/>
<path d="M4.5564 72.1828V72.6142L52.044 100.031V99.6018L4.5564 72.1828Z" fill="#4CA9EE"/>
<path opacity="0.5" d="M4.5564 72.1828V72.6142L52.044 100.031V99.6018L4.5564 72.1828Z" fill="white"/>
<path d="M52.0439 99.6019L74.1623 86.8312V87.2626L52.0439 100.031V99.6019Z" fill="#4CA9EE"/>
<path opacity="0.4" d="M52.0439 99.6019L74.1623 86.8312V87.2626L52.0439 100.031V99.6019Z" fill="white"/>
<path d="M14.6312 74.1596C13.9546 74.3683 13.238 74.4127 12.5409 74.2892C11.4248 74.0867 10.0151 73.3636 10.1103 72.0247C10.1183 71.8702 10.1605 71.7194 10.2338 71.5832C10.485 71.1416 11.0704 71.0606 11.5605 70.9209C12.0279 70.7846 12.4637 70.5574 12.8429 70.2522C13.2221 69.947 13.5373 69.5699 13.7703 69.1425C14.2706 68.2108 14.3415 67.117 14.2808 66.0536C14.2433 65.7166 14.2501 65.3761 14.301 65.0409C14.3619 64.7768 14.4696 64.5257 14.619 64.2995C15.1052 63.5441 15.8348 62.9774 16.687 62.6933C16.8309 62.6292 16.9861 62.5942 17.1436 62.5904C17.3011 62.5866 17.4578 62.614 17.6046 62.6711C17.699 62.7225 17.7768 62.7997 17.8292 62.8936C17.8815 62.9876 17.9062 63.0944 17.9003 63.2017C17.874 63.4428 17.6127 63.5947 17.4628 63.7648C17.0745 64.1759 16.8417 64.7095 16.8045 65.2738C16.8045 65.8288 17.0334 66.3534 17.2299 66.8719C17.8375 68.5065 18.0401 70.4084 17.2299 71.962C16.6885 73.0095 15.7541 73.7997 14.6312 74.1596Z" fill="#263238"/>
<path d="M30.7783 66.797C30.7783 66.797 32.1435 56.9694 31.8741 53.4288C31.7364 51.6059 30.8026 51.0387 29.4597 51.142C28.1168 51.2453 20.3228 55.6265 20.3228 55.6265L21.4084 58.2596L27.7968 56.2604C27.7968 56.2604 27.1466 60.0319 26.9967 60.7489C26.8468 61.4659 26.5329 62.4301 26.2817 63.2949C26.1438 63.6996 26.0461 64.1168 25.9901 64.5406C25.9982 65.1706 30.7783 66.797 30.7783 66.797Z" fill="#B16668"/>
<path d="M27.7969 56.2604C28.6881 56.0862 29.5773 55.5616 29.8568 55.1423C29.7121 55.6145 29.3936 56.0141 28.9656 56.2604C28.5594 56.5224 28.1294 56.7455 27.6814 56.9268L27.7969 56.2604Z" fill="#9A4A4D"/>
<path d="M29.3138 76.0677C27.0189 75.1461 24.2176 74.2893 22.656 73.388C21.0943 72.4866 21.0072 72.2537 19.2572 71.2308C17.5072 70.2079 19.715 66.2866 19.715 66.2866C19.715 66.2866 22.9841 65.1564 24.5275 64.5467C25.5059 64.3198 26.6401 63.9391 27.7683 63.9897C28.8965 64.0403 31.0658 64.016 31.878 64.7634C32.6903 65.5108 32.6599 67.0522 32.6599 67.0522L35.2809 69.6854L29.3138 76.0677Z" fill="#B16668"/>
<path d="M33.3568 67.7531L32.6581 67.0522C32.5843 66.9442 32.5384 66.8197 32.5244 66.6897C32.0727 66.554 31.0559 66.4648 28.6294 67.8948C25.4372 69.7785 24.6189 74.2974 24.6189 74.2974C25.0078 74.4534 25.6316 74.7025 26.057 74.8524C26.4074 72.752 27.7989 70.6151 29.6178 69.3289C30.7397 68.547 32.0137 68.0101 33.3568 67.7531Z" fill="#4CA9EE"/>
<path opacity="0.4" d="M33.3568 67.7531L32.6581 67.0522C32.5843 66.9442 32.5384 66.8197 32.5244 66.6897C32.0727 66.554 31.0559 66.4648 28.6294 67.8948C25.4372 69.7785 24.6189 74.2974 24.6189 74.2974C25.0078 74.4534 25.6316 74.7025 26.057 74.8524C26.4074 72.752 27.7989 70.6151 29.6178 69.3289C30.7397 68.547 32.0137 68.0101 33.3568 67.7531Z" fill="black"/>
<path d="M21.5786 69.0554C22.0708 70.7427 21.852 71.7027 21.5442 72.7499L22.6561 73.394C23.4715 73.8417 24.3232 74.2198 25.2022 74.5242C25.2022 73.078 26.5613 70.5989 27.9589 69.3653C29.8689 67.6801 32.658 67.0482 32.658 67.0482C32.658 67.0482 32.6884 65.5068 31.8762 64.7594C31.0639 64.012 29.2126 63.9289 28.1513 63.9269C27.4598 63.9283 26.7689 63.9655 26.0812 64.0383C25.4885 64.1844 24.9081 64.3767 24.3454 64.6135C24.3454 64.6135 26.6767 64.8728 25.3581 65.5473C23.5352 66.4709 20.9325 65.8612 20.9325 65.8612C20.5088 65.941 20.0993 66.083 19.7172 66.2825C19.7172 66.2825 20.9689 66.9611 21.5786 69.0554Z" fill="#4CA9EE"/>
<path opacity="0.3" d="M21.5786 69.0554C22.0708 70.7427 21.852 71.7027 21.5442 72.7499L22.6561 73.394C23.4715 73.8417 24.3232 74.2198 25.2022 74.5242C25.2022 73.078 26.5613 70.5989 27.9589 69.3653C29.8689 67.6801 32.658 67.0482 32.658 67.0482C32.658 67.0482 32.6884 65.5068 31.8762 64.7594C31.0639 64.012 29.2126 63.9289 28.1513 63.9269C27.4598 63.9283 26.7689 63.9655 26.0812 64.0383C25.4885 64.1844 24.9081 64.3767 24.3454 64.6135C24.3454 64.6135 26.6767 64.8728 25.3581 65.5473C23.5352 66.4709 20.9325 65.8612 20.9325 65.8612C20.5088 65.941 20.0993 66.083 19.7172 66.2825C19.7172 66.2825 20.9689 66.9611 21.5786 69.0554Z" fill="black"/>
<path d="M65.1954 84.279C62.9127 82.9604 61.9121 82.5208 60.1925 80.1672C58.9124 76.9953 57.7295 71.7574 56.8119 70.2606C56.1071 69.1121 55.9106 68.4761 53.6907 68.4984C49.1819 68.543 38.0336 71.7007 38.0336 71.7007L33.7011 73.5581L32.9476 74.9091C33.7335 75.7456 35.1574 74.6741 36.5935 75.4256C38.0296 76.177 38.4347 77.684 40.5371 77.5078C44.7441 77.1513 47.2395 76.0575 49.4189 75.2797C51.2418 74.6255 53.4922 73.9409 53.4922 73.9409C53.6947 75.1116 53.9783 76.0049 54.8634 77.3437C56.0382 79.118 56.3197 79.436 57.1907 80.9045C57.239 81.0527 57.3153 81.1902 57.4155 81.3096C57.6383 81.7269 57.608 82.4479 57.6424 82.9462C57.7761 84.7691 58.5255 83.5093 61.1262 85.7515C61.7339 86.2761 62.3051 86.7136 63.1193 86.8939C63.8424 87.0539 64.7599 86.8939 65.4749 86.7318C66.1373 86.5738 66.3378 86.3045 66.751 85.7191C67.1217 85.1904 65.797 84.6253 65.1954 84.279Z" fill="#B16668"/>
<path d="M28.757 75.849C28.757 75.849 28.9858 72.8492 31.3698 71.081C33.5108 69.493 34.5802 69.1892 35.1231 69.3674C35.6659 69.5456 37.6569 69.7988 39.012 69.7016C40.0247 69.6267 48.2482 68.2412 53.6218 68.2838C55.7466 68.304 56.492 68.8469 57.1624 70.7143C57.845 72.6062 58.9246 76.4444 58.9246 76.4444C58.9246 76.4444 58.0172 78.1641 55.4002 78.1398C54.8398 77.5364 54.3709 76.8539 54.0087 76.1143C53.6971 75.4768 53.4919 74.7926 53.4011 74.0888C53.4011 74.0888 45.4571 78.5003 41.1286 79.0735C36.8002 79.6467 28.757 75.849 28.757 75.849Z" fill="#455A64"/>
<path d="M53.778 71.9418C53.3977 72.4007 53.1176 72.934 52.9556 73.5075L52.8867 73.2624C52.5546 72.0876 52.1738 71.1357 51.5216 70.5321C50.8694 69.9285 50.2678 69.7381 48.777 69.815C47.2863 69.892 38.5969 71.3787 38.5969 71.3787C38.4065 70.7164 38.0581 70.5422 38.0581 70.5422C38.2931 71.0729 38.1898 71.7575 37.8232 72.0471L36.2393 78.4841C37.9873 78.9864 39.7535 79.2498 41.1389 79.0654C44.9873 78.555 51.7241 74.9962 53.144 74.2286L53.4113 74.0807C53.3648 73.309 53.778 71.9418 53.778 71.9418Z" fill="#37474F"/>
<path d="M57.604 83.485C57.4501 83.5721 57.6546 84.2547 57.7741 84.4188C58.0524 84.6967 58.4034 84.8904 58.7869 84.9778C59.3723 85.1236 59.8867 85.4376 60.4924 85.9642C61.1576 86.5293 61.9249 86.9618 62.7528 87.2382C63.8095 87.592 64.9618 87.526 65.9713 87.0539C67.0954 86.505 67.0569 85.9399 66.9435 85.5206L57.604 83.485Z" fill="#37474F"/>
<path d="M60.1863 80.151L60.0749 79.8674C60.2775 79.7438 60.8993 80.6229 61.7237 81.5324C62.3462 82.2341 63.0617 82.8474 63.8504 83.3553C65.5275 84.285 66.1352 84.4389 66.7286 84.9392C67.4922 85.5793 66.6213 86.4826 65.1872 86.904C63.6945 87.3415 62.4771 86.7804 61.5535 86.2193C60.9054 85.8264 59.9635 85.0567 59.4875 84.7347C59.0115 84.4126 57.9401 84.1837 57.5856 83.7401C57.383 83.4971 57.4438 82.857 57.3952 82.296C57.3506 81.7815 57.0367 80.8882 57.2129 80.8781L57.4398 81.2933C58.728 81.6316 60.2045 80.8538 60.1863 80.151Z" fill="#4CA9EE"/>
<path opacity="0.2" d="M60.1863 80.151L60.0749 79.8674C60.2775 79.7438 60.8993 80.6229 61.7237 81.5324C62.3462 82.2341 63.0617 82.8474 63.8504 83.3553C65.5275 84.285 66.1352 84.4389 66.7286 84.9392C67.4922 85.5793 66.6213 86.4826 65.1872 86.904C63.6945 87.3415 62.4771 86.7804 61.5535 86.2193C60.9054 85.8264 59.9635 85.0567 59.4875 84.7347C59.0115 84.4126 57.9401 84.1837 57.5856 83.7401C57.383 83.4971 57.4438 82.857 57.3952 82.296C57.3506 81.7815 57.0367 80.8882 57.2129 80.8781L57.4398 81.2933C58.728 81.6316 60.2045 80.8538 60.1863 80.151Z" fill="black"/>
<path opacity="0.2" d="M64.5757 83.9448C63.953 83.6452 63.3693 83.2704 62.8378 82.8287C61.7724 81.9861 60.4943 80.3333 60.1804 80.1571C60.1804 80.1571 60.1804 80.1571 60.1804 80.1693C60.1804 80.6372 59.5282 81.1314 58.7119 81.3056C59.4269 81.1759 60.7374 82.8692 61.3612 83.489C62.2039 84.3296 62.7791 84.8056 63.1639 84.8279C63.6845 84.3519 64.1807 84.044 64.5757 83.9448Z" fill="black"/>
<path d="M62.37 84.7509C62.3492 84.7513 62.3291 84.7441 62.3133 84.7306C62.303 84.7233 62.2944 84.7139 62.2879 84.703C62.2814 84.6922 62.2772 84.6802 62.2755 84.6677C62.2738 84.6552 62.2747 84.6425 62.278 84.6303C62.2814 84.6182 62.2872 84.6068 62.295 84.597C62.8865 83.8273 63.5103 83.4829 64.2213 83.5437C64.2347 83.5433 64.2481 83.5457 64.2605 83.5508C64.273 83.5559 64.2842 83.5636 64.2935 83.5734C64.3027 83.5831 64.3098 83.5947 64.3142 83.6074C64.3187 83.6201 64.3204 83.6336 64.3192 83.647C64.3181 83.6604 64.3141 83.6734 64.3075 83.6852C64.301 83.6969 64.292 83.7072 64.2812 83.7152C64.2705 83.7232 64.2581 83.7289 64.245 83.7318C64.2318 83.7347 64.2182 83.7348 64.2051 83.7321C63.5691 83.6774 62.9898 83.9994 62.4449 84.7144C62.4361 84.7259 62.4248 84.7352 62.4118 84.7415C62.3987 84.7478 62.3844 84.7511 62.37 84.7509Z" fill="#37474F"/>
<path d="M61.594 84.1797C61.5727 84.1798 61.552 84.1727 61.5353 84.1594C61.5254 84.1517 61.5172 84.1421 61.511 84.1312C61.5049 84.1204 61.501 84.1084 61.4995 84.0959C61.498 84.0835 61.4989 84.0709 61.5023 84.0589C61.5056 84.0468 61.5113 84.0356 61.5191 84.0257C62.1085 83.2561 62.7343 82.9097 63.4453 82.9725C63.4575 82.9735 63.4695 82.977 63.4804 82.9826C63.4913 82.9883 63.501 82.996 63.5089 83.0054C63.5168 83.0148 63.5228 83.0257 63.5265 83.0375C63.5302 83.0492 63.5315 83.0615 63.5304 83.0738C63.5283 83.0987 63.5165 83.1218 63.4976 83.1381C63.4786 83.1544 63.454 83.1626 63.4291 83.1609C62.7931 83.1062 62.2138 83.4282 61.6689 84.1432C61.6601 84.1547 61.6488 84.164 61.6358 84.1703C61.6228 84.1766 61.6085 84.1798 61.594 84.1797Z" fill="#37474F"/>
<path d="M60.8124 83.6086C60.7911 83.6087 60.7703 83.6016 60.7537 83.5883C60.7438 83.5806 60.7356 83.571 60.7294 83.5601C60.7233 83.5492 60.7194 83.5373 60.7179 83.5248C60.7164 83.5124 60.7173 83.4998 60.7207 83.4878C60.724 83.4757 60.7297 83.4645 60.7374 83.4546C61.3269 82.685 61.9527 82.3386 62.6637 82.4014C62.6866 82.4062 62.707 82.4193 62.7209 82.4382C62.7348 82.4571 62.7412 82.4804 62.7389 82.5037C62.7367 82.5271 62.7259 82.5487 62.7086 82.5646C62.6914 82.5805 62.6689 82.5894 62.6454 82.5898C62.0115 82.5371 61.4302 82.8571 60.8873 83.5721C60.8785 83.5836 60.8672 83.5929 60.8542 83.5992C60.8412 83.6055 60.8269 83.6087 60.8124 83.6086Z" fill="#37474F"/>
<path d="M60.1156 82.9705C60.0943 82.9707 60.0736 82.9635 60.0569 82.9502C60.047 82.9425 60.0388 82.933 60.0327 82.9221C60.0265 82.9112 60.0226 82.8992 60.0211 82.8868C60.0196 82.8743 60.0205 82.8618 60.0239 82.8497C60.0273 82.8377 60.033 82.8264 60.0407 82.8166C60.6321 82.0469 61.256 81.7025 61.9669 81.7633C61.9918 81.7654 62.0149 81.7771 62.0312 81.7961C62.0475 81.815 62.0557 81.8396 62.054 81.8646C62.0514 81.8896 62.0392 81.9128 62.02 81.929C62.0007 81.9452 61.9758 81.9534 61.9507 81.9517C61.3127 81.897 60.7354 82.219 60.1906 82.934C60.1818 82.9455 60.1704 82.9548 60.1574 82.9611C60.1444 82.9674 60.1301 82.9707 60.1156 82.9705Z" fill="#37474F"/>
<path d="M59.5363 82.2069C59.5156 82.2073 59.4954 82.2001 59.4796 82.1867C59.4695 82.1795 59.4609 82.1703 59.4544 82.1596C59.4479 82.149 59.4437 82.1371 59.442 82.1248C59.4403 82.1125 59.4412 82.0999 59.4445 82.0879C59.4478 82.0759 59.4536 82.0647 59.4614 82.055C60.0528 81.2833 60.6767 80.937 61.3876 80.9997C61.4011 80.9993 61.4145 81.0017 61.4269 81.0068C61.4393 81.0119 61.4506 81.0196 61.4598 81.0294C61.4691 81.0392 61.4762 81.0508 61.4806 81.0635C61.485 81.0762 61.4867 81.0897 61.4856 81.1031C61.4844 81.1165 61.4804 81.1295 61.4739 81.1412C61.4674 81.153 61.4584 81.1632 61.4476 81.1712C61.4368 81.1793 61.4245 81.1849 61.4113 81.1878C61.3982 81.1907 61.3846 81.1908 61.3714 81.1881C60.7375 81.1355 60.1561 81.4555 59.6133 82.1705C59.604 82.1819 59.5923 82.1911 59.5789 82.1974C59.5656 82.2037 59.5511 82.207 59.5363 82.2069Z" fill="#37474F"/>
<path d="M60.3362 87.4874C58.0818 86.6002 57.0043 85.626 55.2867 83.2744C54.0045 80.1005 52.6657 73.5399 51.7481 72.0431C51.0412 70.8946 50.2067 70.1634 48.0374 70.4389C43.5672 71.0141 36.482 72.4988 36.482 72.4988L33.4276 71.1579L28.9209 75.8409C30.1139 76.4485 30.6507 77.4066 31.8923 78.2998C33.2109 79.2498 33.8955 79.8817 35.998 79.9202C39.4089 79.9931 42.2182 77.9676 44.4057 77.1838C45.6464 76.7099 46.8377 76.1156 47.9625 75.4094C47.9888 76.3634 48.4142 78.2998 49.9677 80.4468C50.8157 81.5846 51.5922 82.7738 52.293 84.0076C52.3407 84.1596 52.4178 84.3006 52.5198 84.4228C52.7406 84.8401 52.7102 85.5612 52.7467 86.0594C52.8784 87.8925 53.6278 86.6225 56.2285 88.8647C56.8362 89.3893 57.4073 89.8268 58.2216 90.0071C58.9622 90.1589 59.7272 90.1451 60.4618 89.9666C60.7691 89.9029 61.0563 89.7657 61.299 89.5668C61.5417 89.3678 61.7326 89.1131 61.8553 88.8242C62.2807 87.9715 60.9823 87.7446 60.3362 87.4874Z" fill="#B16668"/>
<path d="M50.3444 80.9795C50.1779 80.8235 50.0292 80.6496 49.9009 80.461C48.3473 78.3139 47.9058 76.5761 47.8754 75.62C47.8754 75.62 46.968 76.1365 44.3369 77.5969C42.3114 78.7231 39.6782 80.4691 36.1235 80.2928C34.3006 80.1997 33.0853 79.4583 31.789 78.4699C30.9099 77.7974 30.2901 76.6956 28.7507 75.8469C29.3077 74.0503 29.6845 71.7351 33.1764 70.3781L37.8168 72.041C37.8168 72.041 43.1459 70.8257 47.6323 70.3781C50.5247 70.0925 50.8549 70.4449 51.5597 71.5934C52.3699 72.9322 53.1376 76.0596 54.0815 79.3955C53.8425 79.7905 52.0155 81.1071 50.3444 80.9795Z" fill="#455A64"/>
<path d="M52.6779 86.6225C52.5239 86.7116 52.7285 87.3942 52.848 87.5582C53.1268 87.8354 53.4776 88.0291 53.8607 88.1173C54.4461 88.2631 54.9606 88.5771 55.5662 89.1037C56.2314 89.6688 56.9987 90.1013 57.8267 90.3777C58.8834 90.7315 60.0357 90.6655 61.0451 90.1934C62.1693 89.6445 62.1308 89.0774 62.0174 88.6601L52.6779 86.6225Z" fill="#37474F"/>
<path d="M55.2868 83.2784L55.1733 82.9928C55.3759 82.8693 55.9734 83.7625 56.7937 84.672C57.4162 85.3737 58.1318 85.987 58.9205 86.4949C60.5976 87.4246 61.2052 87.5785 61.7987 88.0788C62.5623 88.7189 61.6913 89.6223 60.2573 90.0436C58.7645 90.4811 57.5472 89.92 56.6236 89.3589C55.9754 88.964 55.0336 88.1963 54.5576 87.8743C54.0816 87.5522 53.0101 87.3233 52.6557 86.8797C52.4531 86.6367 52.5139 85.9966 52.4653 85.4356C52.4207 84.9211 52.1068 84.0177 52.283 84.0177L52.5098 84.433C53.8021 84.7712 55.305 83.9792 55.2868 83.2784Z" fill="#4CA9EE"/>
<path opacity="0.2" d="M55.2868 83.2784L55.1733 82.9928C55.3759 82.8693 55.9734 83.7625 56.7937 84.672C57.4162 85.3737 58.1318 85.987 58.9205 86.4949C60.5976 87.4246 61.2052 87.5785 61.7987 88.0788C62.5623 88.7189 61.6913 89.6223 60.2573 90.0436C58.7645 90.4811 57.5472 89.92 56.6236 89.3589C55.9754 88.964 55.0336 88.1963 54.5576 87.8743C54.0816 87.5522 53.0101 87.3233 52.6557 86.8797C52.4531 86.6367 52.5139 85.9966 52.4653 85.4356C52.4207 84.9211 52.1068 84.0177 52.283 84.0177L52.5098 84.433C53.8021 84.7712 55.305 83.9792 55.2868 83.2784Z" fill="black"/>
<path opacity="0.2" d="M57.9177 85.9643C56.8523 85.1196 55.5985 83.481 55.2846 83.3048C55.2724 83.7707 54.604 84.2669 53.7797 84.4411C54.4926 84.2892 55.8193 85.9987 56.4412 86.6205C57.2838 87.4631 57.859 87.9391 58.2438 87.9614C58.7603 87.4895 59.2566 87.1775 59.6515 87.0823C59.0301 86.7819 58.4478 86.4064 57.9177 85.9643Z" fill="black"/>
<path d="M57.4439 87.8924C57.4225 87.8925 57.4018 87.8854 57.3851 87.8721C57.3753 87.8644 57.3671 87.8548 57.3609 87.8439C57.3548 87.833 57.3508 87.821 57.3493 87.8086C57.3478 87.7962 57.3488 87.7836 57.3521 87.7716C57.3555 87.7595 57.3612 87.7483 57.3689 87.7384C57.9604 86.9687 58.5842 86.6244 59.2952 86.6852C59.3201 86.6872 59.3432 86.699 59.3594 86.718C59.3757 86.7369 59.3839 86.7615 59.3823 86.7864C59.3797 86.8115 59.3675 86.8346 59.3482 86.8509C59.3289 86.8671 59.3041 86.8752 59.279 86.8735C58.6429 86.8189 58.0637 87.1409 57.5188 87.8559C57.51 87.8674 57.4986 87.8767 57.4856 87.883C57.4726 87.8893 57.4583 87.8925 57.4439 87.8924Z" fill="#37474F"/>
<path d="M56.6681 87.3192C56.6468 87.3194 56.626 87.3123 56.6094 87.299C56.5995 87.2913 56.5913 87.2817 56.5852 87.2708C56.579 87.2599 56.5751 87.2479 56.5736 87.2355C56.5721 87.2231 56.573 87.2105 56.5764 87.1984C56.5797 87.1864 56.5854 87.1751 56.5932 87.1653C57.1846 86.3956 57.8085 86.0513 58.5194 86.11C58.5319 86.1111 58.5441 86.1146 58.5552 86.1204C58.5664 86.1261 58.5763 86.134 58.5844 86.1436C58.5924 86.1532 58.5986 86.1643 58.6024 86.1763C58.6062 86.1882 58.6076 86.2008 58.6065 86.2133C58.6054 86.2258 58.6019 86.238 58.5962 86.2491C58.5904 86.2603 58.5825 86.2702 58.5729 86.2783C58.5633 86.2864 58.5522 86.2925 58.5403 86.2963C58.5283 86.3001 58.5157 86.3015 58.5032 86.3004C57.8672 86.2457 57.2879 86.5678 56.743 87.2808C56.7347 87.2928 56.7235 87.3027 56.7104 87.3094C56.6973 87.3161 56.6828 87.3195 56.6681 87.3192Z" fill="#37474F"/>
<path d="M55.8925 86.748C55.8711 86.7482 55.8504 86.7411 55.8337 86.7278C55.8239 86.7201 55.8157 86.7105 55.8095 86.6996C55.8034 86.6887 55.7994 86.6767 55.7979 86.6643C55.7964 86.6519 55.7974 86.6393 55.8007 86.6272C55.8041 86.6152 55.8098 86.6039 55.8175 86.5941C56.4069 85.8244 57.0328 85.4781 57.7417 85.5388C57.7668 85.5414 57.7899 85.5536 57.8062 85.5729C57.8224 85.5921 57.8305 85.617 57.8288 85.6421C57.8281 85.6547 57.8248 85.6671 57.8191 85.6784C57.8135 85.6897 57.8056 85.6997 57.7959 85.7079C57.7862 85.716 57.775 85.7221 57.7629 85.7258C57.7508 85.7294 57.7381 85.7306 57.7255 85.7292C57.0916 85.6745 56.5102 85.9946 55.9674 86.7096C55.9587 86.7213 55.9474 86.7309 55.9344 86.7375C55.9214 86.7442 55.9071 86.7478 55.8925 86.748Z" fill="#37474F"/>
<path d="M55.1896 86.11C55.1683 86.1102 55.1475 86.1031 55.1309 86.0898C55.121 86.0821 55.1128 86.0725 55.1066 86.0616C55.1005 86.0507 55.0966 86.0387 55.0951 86.0263C55.0935 86.0139 55.0945 86.0013 55.0979 85.9893C55.1012 85.9772 55.1069 85.9659 55.1146 85.9561C55.7061 85.1864 56.3299 84.8401 57.0409 84.9008C57.0658 84.9034 57.0887 84.9157 57.1046 84.935C57.1206 84.9544 57.1282 84.9792 57.126 85.0041C57.1252 85.0166 57.122 85.0287 57.1164 85.0399C57.1109 85.051 57.1032 85.0609 57.0937 85.0691C57.0843 85.0772 57.0733 85.0833 57.0614 85.0871C57.0496 85.0909 57.0371 85.0923 57.0247 85.0912C56.3867 85.0365 55.8094 85.3586 55.2645 86.0716C55.2562 86.0837 55.245 86.0935 55.2319 86.1002C55.2188 86.1069 55.2043 86.1103 55.1896 86.11Z" fill="#37474F"/>
<path d="M54.6102 85.3464C54.5895 85.3468 54.5693 85.3396 54.5535 85.3262C54.5435 85.3186 54.5351 85.3092 54.5288 85.2983C54.5224 85.2875 54.5183 85.2756 54.5166 85.2631C54.5149 85.2507 54.5157 85.2381 54.5189 85.226C54.5221 85.2138 54.5277 85.2025 54.5353 85.1925C55.1267 84.4228 55.7506 84.0785 56.4615 84.1393C56.4864 84.1413 56.5095 84.1531 56.5258 84.1721C56.5421 84.191 56.5503 84.2156 56.5486 84.2405C56.546 84.2656 56.5338 84.2887 56.5146 84.305C56.4953 84.3212 56.4705 84.3293 56.4453 84.3276C55.8113 84.2729 55.23 84.595 54.6872 85.31C54.6779 85.3214 54.6661 85.3306 54.6528 85.3369C54.6395 85.3432 54.6249 85.3465 54.6102 85.3464Z" fill="#37474F"/>
<path d="M19.7152 66.2866C19.7152 66.2866 14.1431 63.3091 13.262 62.9081L18.1231 60.0441L17.0901 57.3583C17.0901 57.3583 9.93815 59.6957 8.56892 60.437C7.84582 60.8259 7.43464 61.389 7.43262 61.944C7.43262 62.8716 7.97545 64.0262 9.19479 65.0673C11.7955 67.2811 15.6642 69.3876 19.0873 71.2835C20.2377 71.9053 21.5361 72.7479 21.5361 72.7479C21.9351 71.9175 22.4232 69.0433 19.7152 66.2866Z" fill="#B16668"/>
<path d="M13.262 62.9081C12.4346 63.3535 11.5417 63.6646 10.6167 63.8297C10.6167 63.8297 12.0811 64.2044 13.8311 63.1876L13.262 62.9081Z" fill="#9A4A4D"/>
<path d="M25.3986 55.5677L25.3622 55.4726C24.232 52.5417 22.3462 52.4688 19.2857 53.682C17.0212 54.5813 15.2125 56.2665 15.093 58.5432C15.0534 59.3872 15.2085 60.229 15.5464 61.0035C15.8843 61.778 16.3958 62.4643 17.0415 63.0094C18.4107 64.168 20.2661 64.5042 22.5103 63.6393C25.6073 63.1471 26.5268 58.4966 25.3986 55.5677Z" fill="#263238"/>
<path d="M22.9235 54.7211C23.6223 54.8386 24.8781 55.9992 25.9618 59.0293C26.8834 61.5977 26.302 62.5436 25.9618 62.8778C25.6215 63.212 24.7748 63.4166 23.9484 63.5867L24.5378 65.1139L20.9223 65.8573L19.8448 63.0216C19.8448 63.0216 19.5592 63.6414 18.5221 63.2626C17.6654 62.9507 17.0861 62.0899 17.3899 61.3911C17.4729 61.2209 17.5951 61.073 17.7464 60.9593C17.8978 60.8457 18.0739 60.7696 18.2604 60.7373C18.447 60.7051 18.6385 60.7176 18.8192 60.7739C18.9999 60.8301 19.1647 60.9285 19.2999 61.0609C19.2999 61.0609 19.7698 60.9232 19.9076 59.9003C20.7028 59.6912 21.4055 59.2229 21.9047 58.5696C23.1625 56.9978 22.9782 55.2822 22.9235 54.7211Z" fill="#B16668"/>
<path d="M22.243 59.4222C22.2596 59.4651 22.2675 59.5109 22.2663 59.5569C22.2651 59.6029 22.2547 59.6483 22.2359 59.6903C22.2171 59.7322 22.1901 59.7701 22.1565 59.8016C22.123 59.8331 22.0835 59.8577 22.0405 59.8739C21.9521 59.9029 21.8558 59.896 21.7724 59.8547C21.6891 59.8134 21.6253 59.741 21.5948 59.6531C21.5797 59.6107 21.573 59.5657 21.5752 59.5207C21.5775 59.4757 21.5885 59.4315 21.6078 59.3908C21.6271 59.3501 21.6542 59.3136 21.6876 59.2833C21.721 59.2531 21.76 59.2297 21.8025 59.2146C21.8449 59.1994 21.8899 59.1927 21.9349 59.195C21.9799 59.1972 22.024 59.2083 22.0647 59.2275C22.1054 59.2468 22.142 59.2739 22.1722 59.3073C22.2024 59.3407 22.2258 59.3797 22.241 59.4222H22.243Z" fill="#263238"/>
<path d="M24.7688 57.4555L23.9485 57.2529C23.9587 57.1989 23.9799 57.1475 24.0106 57.102C24.0413 57.0564 24.081 57.0175 24.1273 56.9878C24.1735 56.958 24.2253 56.938 24.2796 56.9289C24.3338 56.9198 24.3893 56.9219 24.4427 56.9349C24.5537 56.9629 24.6497 57.0326 24.7104 57.1296C24.7712 57.2266 24.7921 57.3434 24.7688 57.4555Z" fill="#263238"/>
<path d="M21.4894 58.5452L20.8636 59.1103C20.8248 59.0714 20.7943 59.0249 20.774 58.9738C20.7537 58.9228 20.744 58.8681 20.7455 58.8131C20.747 58.7582 20.7597 58.7041 20.7828 58.6542C20.8059 58.6043 20.8389 58.5596 20.8798 58.5229C20.965 58.4479 21.0756 58.4084 21.189 58.4126C21.3025 58.4167 21.41 58.4642 21.4894 58.5452Z" fill="#263238"/>
<path d="M24.9612 58.3203C24.981 58.3844 24.9816 58.4528 24.9628 58.5171C24.9441 58.5815 24.9069 58.6389 24.8558 58.6823C24.8048 58.7257 24.7421 58.7531 24.6756 58.7612C24.6091 58.7693 24.5416 58.7577 24.4817 58.7279C24.4217 58.698 24.3718 58.6512 24.3381 58.5933C24.3045 58.5353 24.2886 58.4687 24.2924 58.4018C24.2963 58.3349 24.3196 58.2706 24.3597 58.2169C24.3997 58.1632 24.4546 58.1224 24.5176 58.0996C24.5612 58.0847 24.6074 58.0786 24.6534 58.0816C24.6993 58.0847 24.7443 58.0968 24.7855 58.1173C24.8268 58.1379 24.8636 58.1664 24.8937 58.2012C24.9239 58.2361 24.9468 58.2766 24.9612 58.3203Z" fill="#263238"/>
<path d="M23.841 61.6603C23.8614 61.7248 23.8623 61.7938 23.8437 61.8588C23.8251 61.9237 23.7878 61.9818 23.7364 62.0257C23.6851 62.0697 23.6219 62.0975 23.5549 62.1058C23.4878 62.1141 23.4197 62.1024 23.3592 62.0723C23.2987 62.0422 23.2484 61.9949 23.2146 61.9364C23.1808 61.8779 23.1649 61.8107 23.169 61.7433C23.173 61.6758 23.1969 61.611 23.2375 61.557C23.2781 61.503 23.3337 61.4622 23.3974 61.4395C23.4855 61.41 23.5818 61.4167 23.6649 61.4581C23.7481 61.4995 23.8115 61.5722 23.841 61.6603Z" fill="#9A4A4D"/>
<path d="M23.1727 58.6485L23.7601 60.6274L24.7222 60.0217L23.1727 58.6485Z" fill="#9A4A4D"/>
<path d="M23.9484 63.5867C23.0876 63.7892 21.2181 63.9593 20.7076 63.3841C20.9426 63.6804 21.2629 63.8975 21.6252 64.0059C22.2936 64.2429 24.153 64.0849 24.153 64.0849L23.9484 63.5867Z" fill="#9A4A4D"/>
<path d="M19.302 61.0628L19.8185 62.4017C20.0599 62.3084 20.2545 62.1232 20.3597 61.8866C20.4648 61.6501 20.472 61.3816 20.3796 61.1398L19.8975 59.9022L19.302 61.0628Z" fill="#263238"/>
<path d="M35.2913 19.3155C35.1237 19.2737 34.9495 19.2661 34.7789 19.2932C34.6441 19.3149 34.516 19.3668 34.4042 19.4451C34.2989 19.5191 34.2111 19.6152 34.1469 19.7267C34.0796 19.8427 34.0233 19.9647 33.9788 20.0913C33.9428 20.1919 33.913 20.2948 33.8897 20.3991C33.8573 20.5328 33.8269 20.6685 33.7965 20.8042C33.7661 20.9399 33.7398 21.0858 33.7155 21.2235C33.6912 21.3612 33.675 21.4686 33.6649 21.5435C33.6483 21.6781 33.6483 21.8141 33.6649 21.9486C33.6817 22.0771 33.7236 22.201 33.7884 22.3132C33.8605 22.4324 33.9589 22.5336 34.076 22.6089C34.2204 22.7017 34.3814 22.7656 34.55 22.7973C34.6936 22.8287 34.8406 22.8416 34.9875 22.8358C35.1204 22.8316 35.2512 22.8014 35.3723 22.7467C35.4898 22.6892 35.5919 22.6044 35.6701 22.4996C35.7621 22.3741 35.8244 22.2293 35.8524 22.0762L35.1212 21.9182C35.0904 21.9117 35.0612 21.899 35.0355 21.8809C35.0097 21.8628 34.9879 21.8397 34.9713 21.8129C34.9534 21.7869 34.9411 21.7574 34.9352 21.7264C34.9293 21.6954 34.9299 21.6635 34.9369 21.6327L35.1394 20.7111C35.1457 20.6799 35.1583 20.6503 35.1764 20.6242C35.1945 20.5981 35.2177 20.5759 35.2447 20.5591C35.2711 20.5421 35.3007 20.5304 35.3316 20.5248C35.3626 20.5193 35.3943 20.5199 35.425 20.5267L37.5194 20.9784C37.5503 20.9846 37.5796 20.9971 37.6054 21.0153C37.6312 21.0334 37.653 21.0567 37.6693 21.0837C37.6867 21.11 37.6987 21.1395 37.7046 21.1704C37.7105 21.2014 37.7102 21.2332 37.7037 21.264L37.4647 22.378C37.3954 22.7243 37.2502 23.0508 37.0393 23.3341C36.8432 23.5947 36.5922 23.809 36.3041 23.962C36.0061 24.119 35.681 24.218 35.346 24.2536C34.9776 24.2919 34.6055 24.27 34.2442 24.1888C33.862 24.114 33.4968 23.9698 33.1666 23.7635C32.8818 23.5833 32.6343 23.3503 32.4374 23.0768C32.2527 22.8176 32.1249 22.5221 32.0627 22.2099C32.0009 21.8946 31.9968 21.5707 32.0505 21.2539C32.089 21.0149 32.1376 20.7576 32.1964 20.4842C32.2551 20.2108 32.3179 19.9515 32.3827 19.7064C32.4602 19.3945 32.5978 19.1007 32.7878 18.8415C32.974 18.5835 33.2112 18.3663 33.4846 18.2035C33.7764 18.0319 34.0992 17.9197 34.4345 17.8733C35.2085 17.7802 35.9915 17.9447 36.6626 18.3412C36.9388 18.5095 37.1852 18.7223 37.3918 18.9712C37.5695 19.1826 37.7069 19.425 37.7969 19.6862C37.8741 19.8992 37.8998 20.1276 37.8718 20.3525C37.8697 20.3783 37.8612 20.4031 37.8471 20.4247C37.8329 20.4463 37.8136 20.464 37.7908 20.4761C37.7456 20.5046 37.691 20.514 37.6389 20.5024L36.4823 20.2553C36.4439 20.2495 36.4071 20.2355 36.3746 20.2142C36.3421 20.1929 36.3146 20.1647 36.2939 20.1318C36.2555 20.069 36.219 20.0082 36.1846 19.9454C36.1121 19.8083 36.0154 19.6854 35.899 19.5829C35.7242 19.4407 35.5142 19.3483 35.2913 19.3155Z" fill="#4CA9EE"/>
<path d="M42.9497 23.2531C42.9355 23.3422 42.9153 23.4556 42.8869 23.5913C42.8586 23.727 42.8302 23.8384 42.8059 23.9235C42.7362 24.1927 42.6136 24.4454 42.4454 24.6669C42.2803 24.8842 42.0738 25.0666 41.8377 25.2036C41.5815 25.3462 41.3002 25.4383 41.0093 25.475C40.6775 25.5176 40.3408 25.5011 40.0148 25.4264C39.6869 25.3603 39.373 25.2376 39.0871 25.0639C38.8362 24.911 38.6174 24.7108 38.443 24.4744C38.2816 24.2515 38.166 23.9989 38.1027 23.7311C38.0395 23.4613 38.0319 23.1815 38.0804 22.9087C38.0926 22.8196 38.1129 22.7062 38.1432 22.5705C38.1736 22.4348 38.1979 22.3234 38.2222 22.2383C38.2857 21.9677 38.4058 21.7137 38.5747 21.4929C38.7427 21.2744 38.9536 21.0924 39.1945 20.9582C39.4523 20.8148 39.7346 20.7207 40.0269 20.6807C40.6955 20.5987 41.3724 20.7412 41.9512 21.0858C42.1967 21.2461 42.4109 21.45 42.5831 21.6874C42.7465 21.9091 42.8624 22.1621 42.9234 22.4307C42.9859 22.7005 42.9948 22.9799 42.9497 23.2531ZM39.6461 23.2004C39.629 23.2991 39.6317 23.4003 39.6539 23.498C39.6762 23.5957 39.7176 23.688 39.7758 23.7696C39.9113 23.9261 40.0941 24.0342 40.2965 24.0777C40.499 24.1212 40.71 24.0976 40.8979 24.0106C40.9842 23.96 41.0597 23.8928 41.1198 23.8128C41.18 23.7329 41.2237 23.6417 41.2483 23.5447C41.2815 23.4487 41.3086 23.3506 41.3293 23.251C41.3512 23.1529 41.3668 23.0534 41.3759 22.9533C41.3931 22.8546 41.3905 22.7534 41.3683 22.6557C41.346 22.558 41.3046 22.4657 41.2463 22.3841C41.1179 22.2194 40.9319 22.1094 40.7257 22.0763C40.5222 22.0211 40.3054 22.0442 40.1181 22.1411C40.0317 22.1921 39.9562 22.2597 39.8961 22.34C39.8359 22.4203 39.7923 22.5117 39.7677 22.609C39.7347 22.7044 39.7077 22.8018 39.6867 22.9006C39.6669 22.9996 39.6534 23.0997 39.6461 23.2004Z" fill="#4CA9EE"/>
<path d="M44.8537 26.1293C44.8392 26.191 44.8013 26.2446 44.748 26.279C44.6948 26.3134 44.6303 26.3258 44.5681 26.3136L43.4723 26.0787C43.4411 26.0724 43.4116 26.0598 43.3855 26.0417C43.3593 26.0236 43.3372 26.0003 43.3204 25.9733C43.3028 25.9472 43.2908 25.9177 43.2852 25.8866C43.2796 25.8556 43.2806 25.8237 43.288 25.7931L43.4764 24.914C43.4829 24.8832 43.4956 24.854 43.5137 24.8283C43.5318 24.8025 43.5549 24.7807 43.5817 24.7641C43.6077 24.7461 43.6371 24.7338 43.6682 24.7279C43.6992 24.7219 43.7312 24.7226 43.762 24.7297L44.8577 24.9646C44.8886 24.9712 44.9177 24.9838 44.9435 25.002C44.9692 25.0201 44.9911 25.0432 45.0076 25.07C45.0254 25.0961 45.0376 25.1255 45.0435 25.1565C45.0495 25.1875 45.049 25.2194 45.0421 25.2502L44.8537 26.1293ZM45.2588 24.2577C45.2525 24.2889 45.24 24.3185 45.2218 24.3446C45.2037 24.3707 45.1805 24.3929 45.1535 24.4097C45.1273 24.4273 45.0978 24.4393 45.0668 24.4449C45.0357 24.4504 45.0039 24.4495 44.9732 24.4421L43.8774 24.2071C43.8464 24.2012 43.817 24.1887 43.7911 24.1706C43.7653 24.1524 43.7436 24.129 43.7275 24.1018C43.7095 24.0758 43.6972 24.0463 43.6913 24.0153C43.6853 23.9842 43.686 23.9523 43.6931 23.9215L44.5033 20.1723C44.5095 20.1412 44.5221 20.1116 44.5402 20.0855C44.5583 20.0594 44.5816 20.0372 44.6086 20.0204C44.6349 20.0031 44.6644 19.9911 44.6953 19.9852C44.7262 19.9793 44.758 19.9796 44.7889 19.986L45.8867 20.223C45.9176 20.2291 45.9469 20.2417 45.9727 20.2598C45.9986 20.278 46.0203 20.3013 46.0366 20.3283C46.0541 20.3545 46.0662 20.384 46.0721 20.4149C46.078 20.4459 46.0777 20.4777 46.071 20.5086L45.2588 24.2577Z" fill="#4CA9EE"/>
<path d="M35.267 35.7342C35.102 35.7873 34.9491 35.8727 34.8173 35.9854C34.7163 36.0708 34.6361 36.1782 34.5827 36.2993C34.5294 36.4203 34.5043 36.552 34.5095 36.6842C34.5117 36.8204 34.5273 36.9561 34.556 37.0893C34.5787 37.1943 34.6077 37.2978 34.6431 37.3992C34.6857 37.5288 34.7323 37.6625 34.7809 37.8043C34.8295 37.9461 34.8801 38.0757 34.9328 38.2094C34.9855 38.3431 35.026 38.4403 35.0584 38.5112C35.1117 38.6325 35.1797 38.7467 35.2609 38.8515C35.3419 38.9518 35.4425 39.0345 35.5566 39.0945C35.6817 39.16 35.8206 39.1947 35.9617 39.1958C36.1326 39.1979 36.3024 39.1677 36.462 39.1067C36.6011 39.0562 36.7332 38.9881 36.855 38.9041C36.9664 38.8312 37.0616 38.7361 37.1345 38.6246C37.2051 38.515 37.2482 38.3899 37.2601 38.26C37.2709 38.1042 37.2474 37.948 37.1912 37.8023L36.4863 38.0534C36.428 38.0775 36.3624 38.0775 36.304 38.0534C36.2753 38.0404 36.2496 38.0216 36.2283 37.9983C36.2071 37.9749 36.1908 37.9475 36.1805 37.9177L35.8625 37.0285C35.8516 36.9987 35.847 36.967 35.8487 36.9353C35.8504 36.9037 35.8586 36.8727 35.8726 36.8442C35.9001 36.787 35.9488 36.7427 36.0083 36.7207L38.0338 35.9996C38.0632 35.9882 38.0946 35.9832 38.1261 35.9849C38.1575 35.9867 38.1882 35.9951 38.2161 36.0097C38.245 36.0223 38.271 36.0407 38.2926 36.0637C38.3142 36.0867 38.3309 36.1138 38.3417 36.1434L38.7225 37.2169C38.847 37.5476 38.8954 37.902 38.8643 38.2539C38.8346 38.5789 38.7344 38.8934 38.5706 39.1755C38.3997 39.4665 38.1741 39.7217 37.9062 39.927C37.6135 40.1535 37.2858 40.3307 36.936 40.4516C36.5713 40.5876 36.1849 40.6562 35.7956 40.6541C35.4576 40.6505 35.1233 40.5817 34.8113 40.4516C34.518 40.3272 34.2543 40.1422 34.0375 39.9088C33.8174 39.6721 33.6418 39.3976 33.519 39.0986C33.4279 38.8737 33.3347 38.6287 33.2395 38.3674C33.1443 38.1061 33.0633 37.8509 32.9883 37.6058C32.8901 37.3 32.8523 36.9781 32.8769 36.6579C32.901 36.3406 32.9885 36.0313 33.1342 35.7484C33.2928 35.4498 33.5089 35.1854 33.7702 34.9706C34.3781 34.4868 35.1282 34.2163 35.905 34.201C36.2285 34.1992 36.5501 34.2505 36.857 34.3529C37.1184 34.4438 37.3613 34.581 37.574 34.758C37.7514 34.8989 37.8936 35.0792 37.9893 35.2846C38.0007 35.3076 38.0066 35.3329 38.0066 35.3585C38.0066 35.3842 38.0007 35.4095 37.9893 35.4324C37.966 35.4808 37.9245 35.518 37.8738 35.5357L36.7578 35.9408C36.7228 35.957 36.6848 35.9654 36.6464 35.9654C36.6079 35.9654 36.5699 35.957 36.535 35.9408C36.4681 35.9084 36.4053 35.874 36.3425 35.8396C36.1844 35.7374 36.0028 35.6772 35.815 35.6648C35.6271 35.6524 35.4392 35.6881 35.269 35.7687L35.267 35.7342Z" fill="#4CA9EE"/>
<path d="M43.8511 35.0577C43.8856 35.1408 43.9261 35.2481 43.9747 35.3778C44.0233 35.5074 44.0557 35.6188 44.08 35.7039C44.1636 35.9673 44.1927 36.2451 44.1655 36.5202C44.1384 36.7953 44.0555 37.0619 43.922 37.304C43.7815 37.5614 43.5915 37.7886 43.363 37.9724C42.8326 38.3867 42.1825 38.6183 41.5097 38.6327C41.2161 38.6344 40.925 38.5787 40.6529 38.4687C40.3979 38.3655 40.1664 38.2119 39.9723 38.017C39.7755 37.821 39.621 37.5865 39.5186 37.3283C39.4842 37.2473 39.4416 37.1399 39.3951 37.0083C39.3485 36.8766 39.314 36.7693 39.2897 36.6822C39.2007 36.422 39.1689 36.1456 39.1966 35.872C39.2245 35.5975 39.3079 35.3315 39.4416 35.0901C39.5863 34.8326 39.7772 34.604 40.0047 34.4157C40.2648 34.2039 40.5604 34.04 40.8777 33.9316C41.1912 33.8145 41.5234 33.7554 41.858 33.7574C42.1534 33.7578 42.446 33.8135 42.7209 33.9214C42.9764 34.0236 43.2081 34.1774 43.4015 34.3731C43.5944 34.5699 43.7471 34.8025 43.8511 35.0577ZM41.0154 36.749C41.0521 36.8419 41.1067 36.9266 41.1762 36.9982C41.2458 37.0698 41.3288 37.1269 41.4205 37.1663C41.6182 37.2279 41.8305 37.2237 42.0255 37.1543C42.2206 37.0849 42.3878 36.954 42.5022 36.7814C42.5498 36.6932 42.5792 36.5962 42.5886 36.4963C42.598 36.3965 42.5872 36.2957 42.5568 36.2001C42.5335 36.1015 42.5051 36.0041 42.4718 35.9084C42.4381 35.8127 42.3982 35.7194 42.3523 35.6289C42.3159 35.5359 42.2614 35.4511 42.1918 35.3794C42.1223 35.3077 42.0391 35.2507 41.9472 35.2117C41.7493 35.1509 41.537 35.1558 41.3421 35.2255C41.1472 35.2952 40.98 35.4261 40.8656 35.5985C40.8182 35.6869 40.7892 35.784 40.7801 35.8838C40.7711 35.9837 40.7822 36.0844 40.8129 36.1799C40.8343 36.2783 40.8628 36.3751 40.898 36.4695C40.9296 36.5653 40.9682 36.6588 41.0134 36.749H41.0154Z" fill="#4CA9EE"/>
<path d="M46.3403 34.7012C46.3512 34.7307 46.3559 34.7621 46.3542 34.7934C46.3524 34.8248 46.3443 34.8554 46.3302 34.8835C46.3171 34.9122 46.2983 34.938 46.275 34.9592C46.2517 34.9805 46.2243 34.9967 46.1945 35.0071L45.1371 35.3838C45.0772 35.4046 45.0115 35.401 44.9543 35.3737C44.897 35.3464 44.8528 35.2976 44.8313 35.238L43.5431 31.6245C43.519 31.5661 43.519 31.5006 43.5431 31.4422C43.57 31.3841 43.6188 31.339 43.6788 31.3166L44.7361 30.9419C44.7649 30.9294 44.7959 30.923 44.8272 30.923C44.8586 30.923 44.8896 30.9294 44.9184 30.9419C44.9475 30.9544 44.9736 30.9729 44.9949 30.9963C45.0163 31.0197 45.0323 31.0475 45.0419 31.0776L46.3403 34.7012ZM46.9824 36.5039C46.9933 36.5334 46.998 36.5647 46.9963 36.5961C46.9945 36.6275 46.9863 36.6581 46.9722 36.6862C46.9453 36.7443 46.8965 36.7894 46.8365 36.8118L45.7792 37.1865C45.7193 37.2073 45.6536 37.2037 45.5964 37.1764C45.5391 37.1491 45.4949 37.1003 45.4734 37.0407L45.1716 36.194C45.1607 36.1645 45.1559 36.1332 45.1577 36.1018C45.1594 36.0704 45.1676 36.0398 45.1817 36.0117C45.1941 35.9826 45.2127 35.9565 45.2361 35.9352C45.2595 35.9138 45.2873 35.8978 45.3174 35.8882L46.3727 35.5114C46.4025 35.5005 46.4342 35.4957 46.4659 35.4974C46.4976 35.4992 46.5286 35.5074 46.557 35.5215C46.5859 35.5343 46.6118 35.553 46.6331 35.5763C46.6544 35.5997 46.6706 35.6273 46.6806 35.6572L46.9824 36.5039Z" fill="#4CA9EE"/>
</svg>
